Lora-Medium.ufo
<glyph name="exclam" format="2">
  <advance width="263.3333333333333"/>
  <unicode hex="0021"/>
  <outline>
    <contour>
      <point x="107.66666666666667" y="224.33333333333334" type="line"/>
      <point x="155.0" y="224.33333333333334" type="line"/>
      <point x="193.33333333333334" y="637.0" type="line" smooth="yes"/>
      <point x="196.66666666666666" y="674.6666666666666"/>
      <point x="178.33333333333334" y="716.0"/>
      <point x="131.66666666666666" y="716.0" type="curve" smooth="yes"/>
      <point x="87.33333333333333" y="716.0"/>
      <point x="65.66666666666667" y="674.6666666666666"/>
      <point x="69.0" y="637.0" type="curve" smooth="yes"/>
    </contour>
    <contour>
      <point x="130.66666666666666" y="-16.0" type="curve" smooth="yes"/>
      <point x="164.0" y="-16.0"/>
      <point x="194.33333333333334" y="14.333333333333332"/>
      <point x="194.33333333333334" y="52.666666666666664" type="curve" smooth="yes"/>
      <point x="194.33333333333334" y="91.0"/>
      <point x="167.33333333333334" y="122.0"/>
      <point x="131.66666666666666" y="122.0" type="curve" smooth="yes"/>
      <point x="98.0" y="122.0"/>
      <point x="68.0" y="91.0"/>
      <point x="68.0" y="52.666666666666664" type="curve" smooth="yes"/>
      <point x="68.0" y="14.333333333333332"/>
      <point x="97.0" y="-16.0"/>
    </contour>
  </outline>
</glyph>
<glyph name="quotedbl" format="2">
  <advance width="339.3333333333333"/>
  <unicode hex="0022"/>
  <outline>
    <contour>
      <point x="206.68666666666667" y="491.0" type="line"/>
      <point x="274.27333333333337" y="491.0" type="line"/>
      <point x="282.8533333333333" y="716.0" type="line"/>
      <point x="198.44" y="716.0" type="line"/>
    </contour>
    <contour>
      <point x="63.68666666666667" y="491.0" type="line"/>
      <point x="131.27333333333334" y="491.0" type="line"/>
      <point x="139.85333333333332" y="716.0" type="line"/>
      <point x="55.44" y="716.0" type="line"/>
    </contour>
  </outline>
</glyph>
<glyph name="numbersign" format="2">
  <advance width="843.6666666666666"/>
  <unicode hex="0023"/>
  <outline>
    <contour>
      <point x="156.66666666666666" y="-16.0" type="line"/>
      <point x="240.0" y="-16.0" type="line"/>
      <point x="282.3333333333333" y="170.0" type="line"/>
      <point x="478.6666666666667" y="170.0" type="line"/>
      <point x="435.0" y="-16.0" type="line"/>
      <point x="518.3333333333334" y="-16.0" type="line"/>
      <point x="561.0" y="170.0" type="line"/>
      <point x="725.0" y="170.0" type="line"/>
      <point x="742.6666666666666" y="239.66666666666666" type="line"/>
      <point x="575.6666666666666" y="239.66666666666666" type="line"/>
      <point x="626.0" y="459.3333333333333" type="line"/>
      <point x="792.0" y="459.3333333333333" type="line"/>
      <point x="808.6666666666666" y="528.0" type="line"/>
      <point x="808.6666666666666" y="529.0" type="line"/>
      <point x="641.6666666666666" y="529.0" type="line"/>
      <point x="684.3333333333334" y="716.0" type="line"/>
      <point x="607.0" y="716.0" type="line"/>
      <point x="563.0" y="529.0" type="line"/>
      <point x="363.3333333333333" y="529.0" type="line"/>
      <point x="406.3333333333333" y="716.0" type="line"/>
      <point x="328.6666666666667" y="716.0" type="line"/>
      <point x="284.6666666666667" y="529.0" type="line"/>
      <point x="118.0" y="529.0" type="line"/>
      <point x="100.33333333333333" y="459.3333333333333" type="line"/>
      <point x="269.0" y="459.3333333333333" type="line"/>
      <point x="215.66666666666666" y="239.66666666666666" type="line"/>
      <point x="52.0" y="239.66666666666666" type="line"/>
      <point x="34.333333333333336" y="170.0" type="line"/>
      <point x="200.33333333333334" y="170.0" type="line"/>
    </contour>
    <contour>
      <point x="297.0" y="239.66666666666666" type="line"/>
      <point x="347.6666666666667" y="459.3333333333333" type="line"/>
      <point x="546.6666666666666" y="459.3333333333333" type="line"/>
      <point x="494.0" y="239.66666666666666" type="line"/>
    </contour>
  </outline>
</glyph>
<glyph name="dollar" format="2">
  <advance width="548.6666666666666"/>
  <unicode hex="0024"/>
  <outline>
    <contour>
      <point x="251.0" y="-153.33333333333334" type="line"/>
      <point x="316.0" y="-153.33333333333334" type="line"/>
      <point x="316.3333333333333" y="-15.0" type="line"/>
      <point x="444.6666666666667" y="-3.3333333333333335"/>
      <point x="510.0" y="78.33333333333333"/>
      <point x="510.0" y="175.33333333333334" type="curve" smooth="yes"/>
      <point x="510.0" y="302.6666666666667"/>
      <point x="397.0" y="356.6666666666667"/>
      <point x="297.3333333333333" y="406.6666666666667" type="curve" smooth="yes"/>
      <point x="206.33333333333334" y="451.3333333333333"/>
      <point x="147.33333333333334" y="487.3333333333333"/>
      <point x="147.33333333333334" y="559.3333333333334" type="curve" smooth="yes"/>
      <point x="147.33333333333334" y="615.3333333333334"/>
      <point x="185.33333333333334" y="666.6666666666666"/>
      <point x="260.0" y="666.6666666666666" type="curve" smooth="yes"/>
      <point x="369.3333333333333" y="667.0"/>
      <point x="409.0" y="591.6666666666666"/>
      <point x="419.0" y="490.6666666666667" type="curve"/>
      <point x="465.6666666666667" y="490.6666666666667" type="line"/>
      <point x="465.6666666666667" y="713.6666666666666" type="line"/>
      <point x="406.3333333333333" y="713.6666666666666" type="line"/>
      <point x="410.0" y="672.0" type="line"/>
      <point x="378.0" y="696.0"/>
      <point x="344.0" y="707.3333333333334"/>
      <point x="309.0" y="712.6666666666666" type="curve"/>
      <point x="310.0" y="834.3333333333334" type="line"/>
      <point x="242.66666666666666" y="834.3333333333334" type="line"/>
      <point x="242.66666666666666" y="716.0" type="line"/>
      <point x="96.0" y="711.3333333333334"/>
      <point x="50.0" y="604.6666666666666"/>
      <point x="50.0" y="536.3333333333334" type="curve" smooth="yes"/>
      <point x="50.0" y="414.0"/>
      <point x="147.0" y="356.6666666666667"/>
      <point x="247.0" y="308.6666666666667" type="curve" smooth="yes"/>
      <point x="330.3333333333333" y="268.3333333333333"/>
      <point x="409.6666666666667" y="232.66666666666666"/>
      <point x="409.6666666666667" y="150.66666666666666" type="curve" smooth="yes"/>
      <point x="409.6666666666667" y="83.0"/>
      <point x="359.6666666666667" y="34.0"/>
      <point x="284.0" y="34.0" type="curve" smooth="yes"/>
      <point x="182.0" y="34.0"/>
      <point x="114.33333333333333" y="87.66666666666667"/>
      <point x="103.33333333333333" y="207.0" type="curve"/>
      <point x="58.333333333333336" y="207.0" type="line"/>
      <point x="58.333333333333336" y="-11.666666666666666" type="line"/>
      <point x="120.0" y="-11.666666666666666" type="line"/>
      <point x="116.0" y="29.0" type="line"/>
      <point x="153.66666666666666" y="5.666666666666666"/>
      <point x="205.33333333333334" y="-11.333333333333334"/>
      <point x="250.0" y="-15.0" type="curve"/>
    </contour>
  </outline>
</glyph>
<glyph name="percent" format="2">
  <advance width="881.3333333333334"/>
  <unicode hex="0025"/>
  <outline>
    <contour>
      <point x="174.33333333333334" y="-17.0" type="line"/>
      <point x="745.0" y="667.3333333333334" type="line"/>
      <point x="690.6666666666666" y="716.0" type="line"/>
      <point x="124.66666666666667" y="26.666666666666664" type="line"/>
    </contour>
    <contour>
      <point x="221.33333333333334" y="331.6666666666667" type="curve" smooth="yes"/>
      <point x="324.3333333333333" y="331.6666666666667"/>
      <point x="406.3333333333333" y="426.0"/>
      <point x="406.3333333333333" y="530.0" type="curve" smooth="yes"/>
      <point x="406.3333333333333" y="622.0"/>
      <point x="344.3333333333333" y="718.6666666666666"/>
      <point x="220.66666666666666" y="716.0" type="curve" smooth="yes"/>
      <point x="103.0" y="713.6666666666666"/>
      <point x="37.666666666666664" y="614.3333333333334"/>
      <point x="37.666666666666664" y="520.3333333333334" type="curve" smooth="yes"/>
      <point x="37.666666666666664" y="423.3333333333333"/>
      <point x="101.0" y="331.6666666666667"/>
    </contour>
    <contour>
      <point x="223.66666666666666" y="385.0" type="curve" smooth="yes"/>
      <point x="152.66666666666666" y="385.0"/>
      <point x="136.0" y="477.3333333333333"/>
      <point x="136.0" y="536.6666666666666" type="curve" smooth="yes"/>
      <point x="136.0" y="582.6666666666666"/>
      <point x="154.66666666666666" y="667.0"/>
      <point x="221.66666666666666" y="667.0" type="curve" smooth="yes"/>
      <point x="288.6666666666667" y="667.0"/>
      <point x="308.3333333333333" y="576.3333333333334"/>
      <point x="308.3333333333333" y="514.3333333333334" type="curve" smooth="yes"/>
      <point x="308.3333333333333" y="457.3333333333333"/>
      <point x="288.6666666666667" y="385.0"/>
    </contour>
    <contour>
      <point x="661.6666666666666" y="-16.0" type="curve" smooth="yes"/>
      <point x="774.6666666666666" y="-14.666666666666666"/>
      <point x="844.6666666666666" y="83.33333333333333"/>
      <point x="844.6666666666666" y="180.33333333333334" type="curve" smooth="yes"/>
      <point x="844.6666666666666" y="275.0"/>
      <point x="781.0" y="369.0"/>
      <point x="661.0" y="368.3333333333333" type="curve" smooth="yes"/>
      <point x="553.3333333333334" y="367.3333333333333"/>
      <point x="475.3333333333333" y="271.3333333333333"/>
      <point x="475.3333333333333" y="171.33333333333334" type="curve" smooth="yes"/>
      <point x="475.3333333333333" y="77.0"/>
      <point x="538.0" y="-17.333333333333332"/>
    </contour>
    <contour>
      <point x="662.6666666666666" y="34.666666666666664" type="curve" smooth="yes"/>
      <point x="595.0" y="34.666666666666664"/>
      <point x="574.0" y="125.66666666666667"/>
      <point x="574.0" y="187.0" type="curve" smooth="yes"/>
      <point x="574.0" y="241.0"/>
      <point x="593.6666666666666" y="316.6666666666667"/>
      <point x="659.3333333333334" y="316.6666666666667" type="curve" smooth="yes"/>
      <point x="729.0" y="316.6666666666667"/>
      <point x="746.6666666666666" y="224.66666666666666"/>
      <point x="746.6666666666666" y="164.66666666666666" type="curve" smooth="yes"/>
      <point x="746.6666666666666" y="115.33333333333333"/>
      <point x="729.0" y="34.666666666666664"/>
    </contour>
  </outline>
</glyph>
<glyph name="ampersand" format="2">
  <advance width="686.6666666666666"/>
  <unicode hex="0026"/>
  <outline>
    <contour>
      <point x="267.6666666666667" y="-16.0" type="curve" smooth="yes"/>
      <point x="365.3333333333333" y="-16.0"/>
      <point x="434.6666666666667" y="22.333333333333336"/>
      <point x="480.6666666666667" y="74.33333333333333" type="curve"/>
      <point x="542.0" y="21.666666666666668"/>
      <point x="584.3333333333334" y="0.0"/>
      <point x="596.0" y="0.0" type="curve" smooth="yes"/>
      <point x="693.6666666666666" y="0.0" type="line"/>
      <point x="693.6666666666666" y="44.0" type="line"/>
      <point x="670.6666666666666" y="44.0"/>
      <point x="626.0" y="71.0"/>
      <point x="568.6666666666666" y="121.66666666666667" type="curve" smooth="yes"/>
      <point x="554.3333333333334" y="133.66666666666666"/>
      <point x="542.0" y="146.0"/>
      <point x="530.3333333333334" y="156.0" type="curve"/>
      <point x="545.0" y="195.66666666666666"/>
      <point x="550.6666666666666" y="235.0"/>
      <point x="550.0" y="265.3333333333333" type="curve" smooth="yes"/>
      <point x="549.3333333333334" y="298.0"/>
      <point x="542.0" y="323.6666666666667"/>
      <point x="525.6666666666666" y="341.0" type="curve"/>
      <point x="599.3333333333334" y="337.3333333333333" type="line"/>
      <point x="599.3333333333334" y="389.6666666666667" type="line"/>
      <point x="426.6666666666667" y="389.6666666666667" type="line"/>
      <point x="426.6666666666667" y="346.3333333333333" type="line"/>
      <point x="477.6666666666667" y="343.6666666666667"/>
      <point x="495.0" y="303.3333333333333"/>
      <point x="495.0" y="254.33333333333334" type="curve" smooth="yes"/>
      <point x="495.0" y="236.66666666666666"/>
      <point x="492.6666666666667" y="216.33333333333334"/>
      <point x="486.6666666666667" y="195.0" type="curve"/>
      <point x="424.6666666666667" y="252.33333333333334"/>
      <point x="347.0" y="331.6666666666667"/>
      <point x="309.3333333333333" y="372.6666666666667" type="curve"/>
      <point x="414.0" y="428.0"/>
      <point x="466.6666666666667" y="493.3333333333333"/>
      <point x="466.6666666666667" y="570.3333333333334" type="curve" smooth="yes"/>
      <point x="466.6666666666667" y="651.0"/>
      <point x="399.6666666666667" y="716.0"/>
      <point x="297.3333333333333" y="716.0" type="curve" smooth="yes"/>
      <point x="187.66666666666666" y="716.0"/>
      <point x="111.33333333333333" y="654.0"/>
      <point x="110.33333333333333" y="556.3333333333334" type="curve" smooth="yes"/>
      <point x="110.0" y="496.0"/>
      <point x="129.0" y="443.0"/>
      <point x="188.33333333333334" y="372.3333333333333" type="curve"/>
      <point x="94.33333333333333" y="333.3333333333333"/>
      <point x="31.666666666666668" y="263.6666666666667"/>
      <point x="31.666666666666668" y="176.66666666666666" type="curve" smooth="yes"/>
      <point x="31.666666666666668" y="38.666666666666664"/>
      <point x="151.0" y="-16.0"/>
    </contour>
    <contour>
      <point x="286.3333333333333" y="41.0" type="curve" smooth="yes"/>
      <point x="209.33333333333334" y="43.0"/>
      <point x="143.66666666666666" y="91.33333333333333"/>
      <point x="143.66666666666666" y="195.0" type="curve" smooth="yes"/>
      <point x="143.66666666666666" y="232.0"/>
      <point x="160.0" y="298.3333333333333"/>
      <point x="215.33333333333334" y="334.0" type="curve"/>
      <point x="261.0" y="281.6666666666667"/>
      <point x="320.3333333333333" y="223.0"/>
      <point x="406.0" y="141.0" type="curve" smooth="yes"/>
      <point x="418.3333333333333" y="129.33333333333334"/>
      <point x="429.6666666666667" y="119.0"/>
      <point x="442.0" y="108.0" type="curve"/>
      <point x="408.6666666666667" y="68.33333333333333"/>
      <point x="359.0" y="39.0"/>
    </contour>
    <contour>
      <point x="279.6666666666667" y="406.3333333333333" type="curve"/>
      <point x="237.66666666666666" y="454.3333333333333"/>
      <point x="206.0" y="512.0"/>
      <point x="206.0" y="563.3333333333334" type="curve" smooth="yes"/>
      <point x="206.0" y="632.6666666666666"/>
      <point x="243.0" y="671.3333333333334"/>
      <point x="292.3333333333333" y="671.3333333333334" type="curve" smooth="yes"/>
      <point x="346.6666666666667" y="671.3333333333334"/>
      <point x="378.3333333333333" y="628.6666666666666"/>
      <point x="378.3333333333333" y="570.0" type="curve" smooth="yes"/>
      <point x="378.3333333333333" y="516.6666666666666"/>
      <point x="346.6666666666667" y="452.0"/>
    </contour>
  </outline>
</glyph>
<glyph name="parenright" format="2">
  <advance width="302.0"/>
  <unicode hex="0029"/>
  <outline>
    <contour>
      <point x="44.333333333333336" y="-271.0" type="line"/>
      <point x="143.33333333333334" y="-180.0"/>
      <point x="270.6666666666667" y="28.0"/>
      <point x="270.6666666666667" y="250.0" type="curve" smooth="yes"/>
      <point x="270.6666666666667" y="472.0"/>
      <point x="143.33333333333334" y="669.0"/>
      <point x="44.0" y="760.0" type="curve"/>
      <point x="15.333333333333334" y="733.0" type="line"/>
      <point x="118.33333333333333" y="596.0"/>
      <point x="158.33333333333334" y="405.3333333333333"/>
      <point x="158.33333333333334" y="250.0" type="curve" smooth="yes"/>
      <point x="158.33333333333334" y="94.66666666666666"/>
      <point x="118.33333333333333" y="-107.0"/>
      <point x="15.333333333333334" y="-244.0" type="curve"/>
    </contour>
  </outline>
</glyph>
<glyph name="asterisk" format="2">
  <advance width="524.3333333333334"/>
  <unicode hex="002A"/>
  <outline>
    <contour>
      <point x="126.66666666666667" y="300.0" type="curve"/>
      <point x="159.0" y="277.6666666666667"/>
      <point x="186.0" y="306.0"/>
      <point x="203.33333333333334" y="333.3333333333333" type="curve" smooth="yes"/>
      <point x="223.0" y="366.6666666666667"/>
      <point x="246.0" y="411.3333333333333"/>
      <point x="262.3333333333333" y="456.3333333333333" type="curve"/>
      <point x="277.6666666666667" y="411.3333333333333"/>
      <point x="301.3333333333333" y="367.0"/>
      <point x="321.0" y="333.0" type="curve"/>
      <point x="339.0" y="306.0"/>
      <point x="366.0" y="277.6666666666667"/>
      <point x="397.0" y="300.0" type="curve" smooth="yes"/>
      <point x="428.6666666666667" y="323.3333333333333"/>
      <point x="409.6666666666667" y="360.6666666666667"/>
      <point x="388.3333333333333" y="385.6666666666667" type="curve" smooth="yes"/>
      <point x="362.3333333333333" y="415.0"/>
      <point x="328.6666666666667" y="448.3333333333333"/>
      <point x="290.6666666666667" y="477.0" type="curve"/>
      <point x="338.6666666666667" y="478.3333333333333"/>
      <point x="386.0" y="486.6666666666667"/>
      <point x="424.6666666666667" y="494.6666666666667" type="curve"/>
      <point x="457.3333333333333" y="503.3333333333333"/>
      <point x="492.0" y="520.3333333333334"/>
      <point x="479.6666666666667" y="558.0" type="curve" smooth="yes"/>
      <point x="468.0" y="593.3333333333334"/>
      <point x="427.3333333333333" y="588.0"/>
      <point x="396.6666666666667" y="575.0" type="curve" smooth="yes"/>
      <point x="360.6666666666667" y="558.6666666666666"/>
      <point x="319.0" y="538.0"/>
      <point x="279.0" y="511.3333333333333" type="curve"/>
      <point x="293.6666666666667" y="557.0"/>
      <point x="300.3333333333333" y="605.0"/>
      <point x="303.6666666666667" y="644.3333333333334" type="curve" smooth="yes"/>
      <point x="306.3333333333333" y="676.3333333333334"/>
      <point x="301.3333333333333" y="716.0"/>
      <point x="262.3333333333333" y="716.0" type="curve" smooth="yes"/>
      <point x="223.33333333333334" y="716.0"/>
      <point x="217.0" y="676.3333333333334"/>
      <point x="219.66666666666666" y="644.3333333333334" type="curve" smooth="yes"/>
      <point x="223.0" y="605.0"/>
      <point x="229.66666666666666" y="557.0"/>
      <point x="244.33333333333334" y="511.3333333333333" type="curve"/>
      <point x="204.66666666666666" y="538.6666666666666"/>
      <point x="162.33333333333334" y="559.3333333333334"/>
      <point x="126.0" y="575.0" type="curve" smooth="yes"/>
      <point x="95.0" y="588.0"/>
      <point x="56.0" y="594.3333333333334"/>
      <point x="43.333333333333336" y="558.0" type="curve" smooth="yes"/>
      <point x="31.0" y="520.3333333333334"/>
      <point x="66.33333333333333" y="503.0"/>
      <point x="98.66666666666667" y="494.6666666666667" type="curve" smooth="yes"/>
      <point x="136.33333333333334" y="486.6666666666667"/>
      <point x="184.33333333333334" y="478.3333333333333"/>
      <point x="233.33333333333334" y="477.0" type="curve"/>
      <point x="194.33333333333334" y="449.3333333333333"/>
      <point x="161.66666666666666" y="415.3333333333333"/>
      <point x="135.33333333333334" y="385.6666666666667" type="curve" smooth="yes"/>
      <point x="114.66666666666667" y="360.3333333333333"/>
      <point x="96.66666666666667" y="323.3333333333333"/>
    </contour>
  </outline>
</glyph>
<glyph name="comma" format="2">
  <advance width="252.0"/>
  <unicode hex="002C"/>
  <outline>
    <contour>
      <point x="117.33333333333333" y="-181.66666666666666" type="line"/>
      <point x="167.33333333333334" y="-126.0"/>
      <point x="197.33333333333334" y="-38.0"/>
      <point x="197.33333333333334" y="17.333333333333332" type="curve" smooth="yes"/>
      <point x="197.33333333333334" y="71.33333333333333"/>
      <point x="170.33333333333334" y="113.33333333333333"/>
      <point x="119.33333333333333" y="113.0" type="curve" smooth="yes"/>
      <point x="84.66666666666667" y="113.0"/>
      <point x="58.666666666666664" y="87.33333333333333"/>
      <point x="58.666666666666664" y="49.333333333333336" type="curve" smooth="yes"/>
      <point x="58.666666666666664" y="15.333333333333334"/>
      <point x="83.0" y="-5.333333333333333"/>
      <point x="112.33333333333333" y="-5.333333333333333" type="curve" smooth="yes"/>
      <point x="120.0" y="-5.333333333333333"/>
      <point x="127.0" y="-4.0"/>
      <point x="136.0" y="-0.3333333333333333" type="curve" smooth="yes"/>
      <point x="141.33333333333334" y="-60.333333333333336"/>
      <point x="108.0" y="-131.33333333333334"/>
      <point x="86.33333333333333" y="-159.0" type="curve"/>
    </contour>
  </outline>
</glyph>
<glyph name="hyphen" format="2">
  <advance width="483.0"/>
  <unicode hex="002D"/>
  <outline>
    <contour>
      <point x="61.666666666666664" y="276.6666666666667" type="line"/>
      <point x="421.0" y="280.3333333333333" type="line"/>
      <point x="421.0" y="359.3333333333333" type="line"/>
      <point x="61.666666666666664" y="359.3333333333333" type="line"/>
    </contour>
  </outline>
</glyph>
<glyph name="period" format="2">
  <advance width="241.66666666666666"/>
  <unicode hex="002E"/>
  <outline>
    <contour>
      <point x="120.66666666666667" y="-16.0" type="curve" smooth="yes"/>
      <point x="155.66666666666666" y="-16.0"/>
      <point x="183.66666666666666" y="14.333333333333332"/>
      <point x="183.66666666666666" y="52.666666666666664" type="curve" smooth="yes"/>
      <point x="183.66666666666666" y="91.0"/>
      <point x="156.66666666666666" y="122.0"/>
      <point x="121.0" y="122.0" type="curve" smooth="yes"/>
      <point x="87.33333333333333" y="122.0"/>
      <point x="57.333333333333336" y="91.0"/>
      <point x="57.333333333333336" y="52.666666666666664" type="curve" smooth="yes"/>
      <point x="57.333333333333336" y="14.333333333333332"/>
      <point x="85.33333333333333" y="-16.0"/>
    </contour>
  </outline>
</glyph>
<glyph name="slash" format="2">
  <advance width="693.0"/>
  <unicode hex="002F"/>
  <outline>
    <contour>
      <point x="87.0" y="-271.0" type="line"/>
      <point x="671.3333333333334" y="711.6666666666666" type="line"/>
      <point x="597.6666666666666" y="758.3333333333334" type="line"/>
      <point x="22.333333333333332" y="-230.0" type="line"/>
    </contour>
  </outline>
</glyph>
<glyph name="zero" format="2">
  <advance width="626.0"/>
  <unicode hex="0030"/>
  <outline>
    <contour>
      <point x="313.3333333333333" y="-16.0" type="curve" smooth="yes"/>
      <point x="499.3333333333333" y="-16.0"/>
      <point x="574.6666666666666" y="186.0"/>
      <point x="574.6666666666666" y="352.0" type="curve" smooth="yes"/>
      <point x="574.6666666666666" y="519.0"/>
      <point x="511.3333333333333" y="716.0"/>
      <point x="317.3333333333333" y="716.0" type="curve" smooth="yes"/>
      <point x="131.33333333333334" y="716.0"/>
      <point x="51.666666666666664" y="515.0"/>
      <point x="51.666666666666664" y="347.0" type="curve" smooth="yes"/>
      <point x="51.666666666666664" y="180.0"/>
      <point x="109.33333333333333" y="-16.0"/>
    </contour>
    <contour>
      <point x="319.3333333333333" y="33.666666666666664" type="curve" smooth="yes"/>
      <point x="195.0" y="33.666666666666664"/>
      <point x="171.0" y="229.0"/>
      <point x="171.0" y="368.0" type="curve" smooth="yes"/>
      <point x="171.0" y="517.0"/>
      <point x="206.66666666666666" y="667.3333333333334"/>
      <point x="315.3333333333333" y="667.3333333333334" type="curve" smooth="yes"/>
      <point x="428.3333333333333" y="667.3333333333334"/>
      <point x="455.3333333333333" y="493.0"/>
      <point x="455.3333333333333" y="331.0" type="curve" smooth="yes"/>
      <point x="455.3333333333333" y="184.0"/>
      <point x="426.6666666666667" y="33.666666666666664"/>
    </contour>
  </outline>
</glyph>
<glyph name="one" format="2">
  <advance width="378.0"/>
  <unicode hex="0031"/>
  <outline>
    <contour>
      <point x="76.0" y="0.0" type="line"/>
      <point x="341.6666666666667" y="0.0" type="line"/>
      <point x="341.6666666666667" y="55.0" type="line"/>
      <point x="318.3333333333333" y="54.33333333333333"/>
      <point x="286.3333333333333" y="52.666666666666664"/>
      <point x="260.6666666666667" y="51.33333333333333" type="curve"/>
      <point x="263.3333333333333" y="69.66666666666667"/>
      <point x="263.6666666666667" y="98.0"/>
      <point x="263.6666666666667" y="127.33333333333333" type="curve" smooth="yes"/>
      <point x="263.0" y="716.0" type="line"/>
      <point x="220.33333333333334" y="716.0" type="line"/>
      <point x="14.0" y="563.6666666666666" type="line"/>
      <point x="39.333333333333336" y="524.3333333333334" type="line"/>
      <point x="155.66666666666666" y="597.3333333333334" type="line"/>
      <point x="157.66666666666666" y="149.0" type="line" smooth="yes"/>
      <point x="157.66666666666666" y="76.0"/>
      <point x="137.0" y="46.666666666666664"/>
      <point x="76.0" y="44.0" type="curve"/>
    </contour>
  </outline>
</glyph>
<glyph name="two" format="2">
  <advance width="535.6666666666666"/>
  <unicode hex="0032"/>
  <outline>
    <contour>
      <point x="43.666666666666664" y="0.0" type="curve"/>
      <point x="478.3333333333333" y="0.0" type="line"/>
      <point x="485.0" y="147.66666666666666" type="line"/>
      <point x="443.6666666666667" y="147.66666666666666" type="line"/>
      <point x="443.6666666666667" y="77.0"/>
      <point x="387.0" y="77.33333333333333"/>
      <point x="307.3333333333333" y="80.0" type="curve" smooth="yes"/>
      <point x="124.0" y="85.0" type="line"/>
      <point x="132.0" y="124.33333333333333"/>
      <point x="184.0" y="188.0"/>
      <point x="269.3333333333333" y="258.0" type="curve" smooth="yes"/>
      <point x="425.0" y="384.6666666666667"/>
      <point x="473.3333333333333" y="464.3333333333333"/>
      <point x="473.3333333333333" y="532.3333333333334" type="curve" smooth="yes"/>
      <point x="473.3333333333333" y="669.0"/>
      <point x="365.0" y="716.0"/>
      <point x="258.6666666666667" y="716.0" type="curve" smooth="yes"/>
      <point x="119.66666666666667" y="716.0"/>
      <point x="46.666666666666664" y="624.6666666666666"/>
      <point x="46.666666666666664" y="566.6666666666666" type="curve" smooth="yes"/>
      <point x="46.666666666666664" y="534.3333333333334"/>
      <point x="65.0" y="507.0"/>
      <point x="98.66666666666667" y="505.6666666666667" type="curve" smooth="yes"/>
      <point x="139.0" y="504.6666666666667"/>
      <point x="154.0" y="538.6666666666666"/>
      <point x="154.0" y="558.3333333333334" type="curve" smooth="yes"/>
      <point x="154.0" y="572.3333333333334"/>
      <point x="149.0" y="590.6666666666666"/>
      <point x="135.33333333333334" y="605.0" type="curve"/>
      <point x="149.66666666666666" y="639.0"/>
      <point x="191.0" y="666.3333333333334"/>
      <point x="239.66666666666666" y="666.3333333333334" type="curve" smooth="yes"/>
      <point x="329.0" y="666.6666666666666"/>
      <point x="353.6666666666667" y="590.6666666666666"/>
      <point x="353.6666666666667" y="519.6666666666666" type="curve" smooth="yes"/>
      <point x="353.6666666666667" y="452.3333333333333"/>
      <point x="317.3333333333333" y="383.0"/>
      <point x="227.0" y="297.6666666666667" type="curve" smooth="yes"/>
      <point x="134.66666666666666" y="210.0"/>
      <point x="43.666666666666664" y="140.33333333333334"/>
    </contour>
  </outline>
</glyph>
<glyph name="three" format="2">
  <advance width="558.0"/>
  <unicode hex="0033"/>
  <outline>
    <contour>
      <point x="254.0" y="-16.0" type="curve" smooth="yes"/>
      <point x="393.3333333333333" y="-16.0"/>
      <point x="511.3333333333333" y="52.333333333333336"/>
      <point x="511.3333333333333" y="188.66666666666666" type="curve" smooth="yes"/>
      <point x="511.3333333333333" y="286.3333333333333"/>
      <point x="439.6666666666667" y="360.0"/>
      <point x="313.0" y="377.0" type="curve"/>
      <point x="431.6666666666667" y="410.6666666666667"/>
      <point x="472.3333333333333" y="481.3333333333333"/>
      <point x="472.3333333333333" y="541.0" type="curve" smooth="yes"/>
      <point x="472.3333333333333" y="668.3333333333334"/>
      <point x="376.3333333333333" y="716.0"/>
      <point x="263.6666666666667" y="716.0" type="curve" smooth="yes"/>
      <point x="124.66666666666667" y="716.0"/>
      <point x="57.666666666666664" y="625.6666666666666"/>
      <point x="57.666666666666664" y="569.0" type="curve" smooth="yes"/>
      <point x="57.666666666666664" y="537.3333333333334"/>
      <point x="75.0" y="511.3333333333333"/>
      <point x="107.33333333333333" y="511.0" type="curve" smooth="yes"/>
      <point x="146.66666666666666" y="509.6666666666667"/>
      <point x="160.66666666666666" y="542.3333333333334"/>
      <point x="160.66666666666666" y="561.0" type="curve" smooth="yes"/>
      <point x="160.66666666666666" y="574.3333333333334"/>
      <point x="156.66666666666666" y="591.0"/>
      <point x="144.66666666666666" y="604.6666666666666" type="curve"/>
      <point x="155.66666666666666" y="633.6666666666666"/>
      <point x="197.0" y="666.6666666666666"/>
      <point x="249.0" y="666.6666666666666" type="curve" smooth="yes"/>
      <point x="333.0" y="666.6666666666666"/>
      <point x="359.6666666666667" y="609.6666666666666"/>
      <point x="359.3333333333333" y="532.0" type="curve" smooth="yes"/>
      <point x="358.6666666666667" y="470.6666666666667"/>
      <point x="319.3333333333333" y="395.6666666666667"/>
      <point x="220.0" y="395.6666666666667" type="curve" smooth="yes"/>
      <point x="207.33333333333334" y="395.6666666666667"/>
      <point x="196.0" y="395.6666666666667"/>
      <point x="183.0" y="396.0" type="curve"/>
      <point x="183.0" y="342.0" type="line"/>
      <point x="196.33333333333334" y="343.0"/>
      <point x="214.33333333333334" y="344.3333333333333"/>
      <point x="225.0" y="344.3333333333333" type="curve" smooth="yes"/>
      <point x="360.6666666666667" y="347.0"/>
      <point x="392.3333333333333" y="263.0"/>
      <point x="392.3333333333333" y="181.66666666666666" type="curve" smooth="yes"/>
      <point x="392.3333333333333" y="90.66666666666667"/>
      <point x="337.3333333333333" y="36.33333333333333"/>
      <point x="246.0" y="36.33333333333333" type="curve" smooth="yes"/>
      <point x="197.0" y="36.33333333333333"/>
      <point x="148.0" y="54.0"/>
      <point x="134.66666666666666" y="92.33333333333333" type="curve"/>
      <point x="142.33333333333334" y="105.66666666666667"/>
      <point x="147.33333333333334" y="120.66666666666667"/>
      <point x="147.33333333333334" y="134.33333333333334" type="curve" smooth="yes"/>
      <point x="147.33333333333334" y="155.0"/>
      <point x="135.0" y="187.33333333333334"/>
      <point x="94.33333333333333" y="185.66666666666666" type="curve" smooth="yes"/>
      <point x="60.666666666666664" y="184.66666666666666"/>
      <point x="41.0" y="157.0"/>
      <point x="41.0" y="123.66666666666667" type="curve" smooth="yes"/>
      <point x="41.0" y="61.333333333333336"/>
      <point x="107.66666666666667" y="-16.0"/>
    </contour>
  </outline>
</glyph>
<glyph name="four" format="2">
  <advance width="543.6666666666666"/>
  <unicode hex="0034"/>
  <outline>
    <contour>
      <point x="410.0" y="127.33333333333333" type="curve" smooth="yes"/>
      <point x="410.0" y="189.0" type="line"/>
      <point x="510.0" y="189.0" type="line"/>
      <point x="510.0" y="258.3333333333333" type="line"/>
      <point x="410.0" y="259.0" type="line"/>
      <point x="410.0" y="716.0" type="line"/>
      <point x="367.6666666666667" y="716.0" type="line"/>
      <point x="12.0" y="253.0" type="line"/>
      <point x="12.0" y="189.0" type="line"/>
      <point x="305.0" y="189.0" type="line"/>
      <point x="305.0" y="157.0" type="line" smooth="yes"/>
      <point x="305.0" y="81.33333333333333"/>
      <point x="287.0" y="47.33333333333333"/>
      <point x="226.66666666666666" y="44.0" type="curve" smooth="yes"/>
      <point x="220.0" y="44.0" type="line"/>
      <point x="220.0" y="0.0" type="line"/>
      <point x="482.3333333333333" y="0.0" type="line"/>
      <point x="482.3333333333333" y="53.0" type="line"/>
      <point x="460.3333333333333" y="52.33333333333333"/>
      <point x="430.6666666666667" y="51.33333333333333"/>
      <point x="406.0" y="50.0" type="curve"/>
      <point x="409.6666666666667" y="69.0"/>
      <point x="410.0" y="97.33333333333333"/>
    </contour>
    <contour>
      <point x="303.3333333333333" y="551.3333333333334" type="line"/>
      <point x="305.3333333333333" y="551.3333333333334" type="line"/>
      <point x="305.0" y="261.0" type="line"/>
      <point x="87.0" y="263.3333333333333" type="line"/>
    </contour>
  </outline>
</glyph>
<glyph name="five" format="2">
  <advance width="543.3333333333334"/>
  <unicode hex="0035"/>
  <outline>
    <contour>
      <point x="252.66666666666666" y="-16.0" type="curve" smooth="yes"/>
      <point x="382.6666666666667" y="-16.0"/>
      <point x="502.6666666666667" y="62.333333333333336"/>
      <point x="502.6666666666667" y="212.66666666666666" type="curve" smooth="yes"/>
      <point x="502.6666666666667" y="324.3333333333333"/>
      <point x="433.0" y="437.0"/>
      <point x="268.3333333333333" y="437.0" type="curve" smooth="yes"/>
      <point x="215.66666666666666" y="437.0"/>
      <point x="162.66666666666666" y="423.3333333333333"/>
      <point x="131.33333333333334" y="410.3333333333333" type="curve"/>
      <point x="131.33333333333334" y="616.3333333333334" type="line"/>
      <point x="458.6666666666667" y="623.0" type="line"/>
      <point x="465.0" y="765.0" type="line"/>
      <point x="426.0" y="765.0" type="line"/>
      <point x="426.0" y="716.3333333333334"/>
      <point x="400.0" y="700.0"/>
      <point x="334.0" y="700.0" type="curve" smooth="yes"/>
      <point x="75.0" y="700.0" type="line"/>
      <point x="77.66666666666667" y="375.3333333333333" type="line"/>
      <point x="110.66666666666667" y="347.0" type="line"/>
      <point x="148.66666666666666" y="371.0"/>
      <point x="206.66666666666666" y="382.6666666666667"/>
      <point x="238.66666666666666" y="382.6666666666667" type="curve" smooth="yes"/>
      <point x="370.0" y="382.6666666666667"/>
      <point x="382.0" y="263.6666666666667"/>
      <point x="382.0" y="193.66666666666666" type="curve" smooth="yes"/>
      <point x="382.0" y="114.0"/>
      <point x="344.3333333333333" y="36.33333333333333"/>
      <point x="253.0" y="33.666666666666664" type="curve" smooth="yes"/>
      <point x="212.33333333333334" y="32.33333333333333"/>
      <point x="152.66666666666666" y="51.0"/>
      <point x="144.33333333333334" y="91.33333333333333" type="curve"/>
      <point x="151.0" y="103.66666666666667"/>
      <point x="155.33333333333334" y="118.66666666666667"/>
      <point x="155.33333333333334" y="131.0" type="curve" smooth="yes"/>
      <point x="155.33333333333334" y="152.0"/>
      <point x="143.0" y="184.33333333333334"/>
      <point x="102.33333333333333" y="182.33333333333334" type="curve" smooth="yes"/>
      <point x="68.66666666666667" y="181.33333333333334"/>
      <point x="49.333333333333336" y="153.33333333333334"/>
      <point x="49.333333333333336" y="120.33333333333333" type="curve" smooth="yes"/>
      <point x="49.333333333333336" y="59.666666666666664"/>
      <point x="124.0" y="-16.0"/>
    </contour>
  </outline>
</glyph>
<glyph name="six" format="2">
  <advance width="577.0"/>
  <unicode hex="0036"/>
  <outline>
    <contour>
      <point x="292.3333333333333" y="-16.0" type="curve" smooth="yes"/>
      <point x="429.0" y="-16.0"/>
      <point x="530.0" y="88.33333333333333"/>
      <point x="530.0" y="213.66666666666666" type="curve" smooth="yes"/>
      <point x="530.0" y="326.6666666666667"/>
      <point x="474.3333333333333" y="441.3333333333333"/>
      <point x="318.3333333333333" y="440.0" type="curve" smooth="yes"/>
      <point x="250.0" y="439.3333333333333"/>
      <point x="192.66666666666666" y="403.0"/>
      <point x="163.66666666666666" y="365.3333333333333" type="curve"/>
      <point x="166.66666666666666" y="464.6666666666667"/>
      <point x="192.0" y="666.0"/>
      <point x="326.3333333333333" y="668.0" type="curve" smooth="yes"/>
      <point x="374.0" y="668.6666666666666"/>
      <point x="406.6666666666667" y="641.3333333333334"/>
      <point x="415.0" y="620.0" type="curve"/>
      <point x="406.0" y="606.3333333333334"/>
      <point x="402.3333333333333" y="589.6666666666666"/>
      <point x="402.3333333333333" y="577.3333333333334" type="curve" smooth="yes"/>
      <point x="402.3333333333333" y="557.0"/>
      <point x="415.0" y="527.6666666666666"/>
      <point x="454.3333333333333" y="528.3333333333334" type="curve" smooth="yes"/>
      <point x="487.3333333333333" y="529.6666666666666"/>
      <point x="504.0" y="556.0"/>
      <point x="504.0" y="586.6666666666666" type="curve" smooth="yes"/>
      <point x="504.0" y="640.3333333333334"/>
      <point x="446.6666666666667" y="716.0"/>
      <point x="325.3333333333333" y="716.0" type="curve" smooth="yes"/>
      <point x="97.66666666666667" y="716.0"/>
      <point x="52.666666666666664" y="444.6666666666667"/>
      <point x="52.666666666666664" y="326.6666666666667" type="curve" smooth="yes"/>
      <point x="52.666666666666664" y="116.33333333333333"/>
      <point x="114.0" y="-16.0"/>
    </contour>
    <contour>
      <point x="295.3333333333333" y="33.33333333333333" type="curve" smooth="yes"/>
      <point x="199.33333333333334" y="33.33333333333333"/>
      <point x="169.0" y="172.33333333333334"/>
      <point x="164.33333333333334" y="288.0" type="curve"/>
      <point x="183.0" y="338.0"/>
      <point x="239.0" y="383.3333333333333"/>
      <point x="295.0" y="383.3333333333333" type="curve" smooth="yes"/>
      <point x="397.3333333333333" y="383.3333333333333"/>
      <point x="412.3333333333333" y="260.6666666666667"/>
      <point x="412.3333333333333" y="190.66666666666666" type="curve" smooth="yes"/>
      <point x="412.3333333333333" y="109.0"/>
      <point x="381.3333333333333" y="33.33333333333333"/>
    </contour>
  </outline>
</glyph>
<glyph name="seven" format="2">
  <advance width="463.6666666666667"/>
  <unicode hex="0037"/>
  <outline>
    <contour>
      <point x="196.66666666666666" y="-16.0" type="curve" smooth="yes"/>
      <point x="231.0" y="-17.666666666666668"/>
      <point x="248.66666666666666" y="16.333333333333332"/>
      <point x="257.0" y="50.0" type="curve" smooth="yes"/>
      <point x="313.3333333333333" y="278.0"/>
      <point x="348.6666666666667" y="430.3333333333333"/>
      <point x="443.3333333333333" y="624.3333333333334" type="curve"/>
      <point x="443.3333333333333" y="700.0" type="line"/>
      <point x="22.0" y="700.0" type="line"/>
      <point x="19.666666666666668" y="544.6666666666666" type="line"/>
      <point x="56.666666666666664" y="544.6666666666666" type="line"/>
      <point x="56.666666666666664" y="599.0"/>
      <point x="87.33333333333333" y="620.0"/>
      <point x="138.66666666666666" y="620.3333333333334" type="curve" smooth="yes"/>
      <point x="384.6666666666667" y="620.3333333333334" type="line"/>
      <point x="316.3333333333333" y="471.6666666666667"/>
      <point x="257.3333333333333" y="322.3333333333333"/>
      <point x="221.66666666666666" y="233.33333333333334" type="curve" smooth="yes"/>
      <point x="193.66666666666666" y="164.33333333333334"/>
      <point x="154.66666666666666" y="74.33333333333333"/>
      <point x="154.66666666666666" y="32.666666666666664" type="curve" smooth="yes"/>
      <point x="154.66666666666666" y="7.0"/>
      <point x="165.66666666666666" y="-14.666666666666666"/>
    </contour>
  </outline>
</glyph>
<glyph name="eight" format="2">
  <advance width="565.3333333333334"/>
  <unicode hex="0038"/>
  <outline>
    <contour>
      <point x="278.3333333333333" y="-16.0" type="curve" smooth="yes"/>
      <point x="404.3333333333333" y="-16.0"/>
      <point x="518.0" y="40.666666666666664"/>
      <point x="518.0" y="168.0" type="curve" smooth="yes"/>
      <point x="518.0" y="250.66666666666666"/>
      <point x="450.3333333333333" y="325.3333333333333"/>
      <point x="357.0" y="380.6666666666667" type="curve"/>
      <point x="425.0" y="417.0"/>
      <point x="486.6666666666667" y="476.3333333333333"/>
      <point x="486.6666666666667" y="552.0" type="curve" smooth="yes"/>
      <point x="486.6666666666667" y="658.0"/>
      <point x="389.6666666666667" y="716.0"/>
      <point x="288.0" y="716.0" type="curve" smooth="yes"/>
      <point x="186.33333333333334" y="716.0"/>
      <point x="71.0" y="659.3333333333334"/>
      <point x="71.0" y="531.6666666666666" type="curve" smooth="yes"/>
      <point x="71.0" y="475.0"/>
      <point x="106.0" y="410.3333333333333"/>
      <point x="203.33333333333334" y="351.3333333333333" type="curve"/>
      <point x="129.33333333333334" y="306.3333333333333"/>
      <point x="58.0" y="238.0"/>
      <point x="58.0" y="152.66666666666666" type="curve" smooth="yes"/>
      <point x="58.0" y="24.666666666666668"/>
      <point x="184.66666666666666" y="-16.0"/>
    </contour>
    <contour>
      <point x="280.0" y="34.0" type="curve" smooth="yes"/>
      <point x="202.0" y="35.0"/>
      <point x="150.33333333333334" y="90.33333333333333"/>
      <point x="154.66666666666666" y="168.0" type="curve" smooth="yes"/>
      <point x="157.33333333333334" y="213.33333333333334"/>
      <point x="184.66666666666666" y="277.6666666666667"/>
      <point x="251.66666666666666" y="327.0" type="curve"/>
      <point x="366.6666666666667" y="276.0"/>
      <point x="405.0" y="211.0"/>
      <point x="405.0" y="148.33333333333334" type="curve" smooth="yes"/>
      <point x="405.0" y="78.0"/>
      <point x="358.6666666666667" y="33.0"/>
    </contour>
    <contour>
      <point x="312.0" y="407.6666666666667" type="curve"/>
      <point x="238.33333333333334" y="434.3333333333333"/>
      <point x="179.66666666666666" y="489.6666666666667"/>
      <point x="179.66666666666666" y="555.6666666666666" type="curve" smooth="yes"/>
      <point x="179.66666666666666" y="614.0"/>
      <point x="220.0" y="667.3333333333334"/>
      <point x="292.0" y="666.6666666666666" type="curve" smooth="yes"/>
      <point x="356.3333333333333" y="666.0"/>
      <point x="401.0" y="622.3333333333334"/>
      <point x="398.6666666666667" y="542.6666666666666" type="curve" smooth="yes"/>
      <point x="397.6666666666667" y="497.0"/>
      <point x="365.3333333333333" y="445.0"/>
    </contour>
  </outline>
</glyph>
<glyph name="nine" format="2">
  <advance width="577.3333333333334"/>
  <unicode hex="0039"/>
  <outline>
    <contour>
      <point x="256.3333333333333" y="-16.0" type="curve" smooth="yes"/>
      <point x="486.3333333333333" y="-15.333333333333334"/>
      <point x="522.3333333333334" y="218.33333333333334"/>
      <point x="522.3333333333334" y="365.3333333333333" type="curve" smooth="yes"/>
      <point x="522.3333333333334" y="565.0"/>
      <point x="468.6666666666667" y="716.0"/>
      <point x="284.0" y="716.0" type="curve" smooth="yes"/>
      <point x="140.33333333333334" y="716.0"/>
      <point x="46.333333333333336" y="617.0"/>
      <point x="46.333333333333336" y="485.6666666666667" type="curve" smooth="yes"/>
      <point x="46.333333333333336" y="373.0"/>
      <point x="101.66666666666667" y="258.0"/>
      <point x="257.3333333333333" y="259.3333333333333" type="curve" smooth="yes"/>
      <point x="326.0" y="260.0"/>
      <point x="382.3333333333333" y="296.0"/>
      <point x="411.3333333333333" y="334.3333333333333" type="curve"/>
      <point x="414.0" y="215.33333333333334"/>
      <point x="387.0" y="35.0"/>
      <point x="253.33333333333334" y="33.0" type="curve" smooth="yes"/>
      <point x="199.66666666666666" y="32.33333333333333"/>
      <point x="172.0" y="53.666666666666664"/>
      <point x="162.66666666666666" y="78.33333333333333" type="curve"/>
      <point x="171.66666666666666" y="90.66666666666667"/>
      <point x="176.66666666666666" y="107.66666666666667"/>
      <point x="176.66666666666666" y="120.0" type="curve" smooth="yes"/>
      <point x="176.66666666666666" y="140.33333333333334"/>
      <point x="163.33333333333334" y="170.33333333333334"/>
      <point x="125.33333333333333" y="169.66666666666666" type="curve" smooth="yes"/>
      <point x="92.33333333333333" y="168.33333333333334"/>
      <point x="74.0" y="141.0"/>
      <point x="74.0" y="109.66666666666667" type="curve" smooth="yes"/>
      <point x="74.0" y="52.666666666666664"/>
      <point x="125.0" y="-16.666666666666668"/>
    </contour>
    <contour>
      <point x="280.6666666666667" y="316.0" type="curve" smooth="yes"/>
      <point x="178.33333333333334" y="316.0"/>
      <point x="162.66666666666666" y="438.0"/>
      <point x="162.66666666666666" y="508.0" type="curve" smooth="yes"/>
      <point x="162.66666666666666" y="589.6666666666666"/>
      <point x="201.66666666666666" y="667.3333333333334"/>
      <point x="279.0" y="667.3333333333334" type="curve" smooth="yes"/>
      <point x="377.0" y="667.3333333333334"/>
      <point x="406.0" y="537.3333333333334"/>
      <point x="410.6666666666667" y="411.3333333333333" type="curve"/>
      <point x="392.0" y="360.6666666666667"/>
      <point x="336.6666666666667" y="316.0"/>
    </contour>
  </outline>
</glyph>
<glyph name="less" format="2">
  <advance width="530.0"/>
  <unicode hex="003C"/>
  <outline>
    <contour>
      <point x="482.6666666666667" y="80.66666666666667" type="line"/>
      <point x="482.6666666666667" y="157.0" type="line"/>
      <point x="124.33333333333333" y="315.6666666666667" type="line"/>
      <point x="482.6666666666667" y="473.6666666666667" type="line"/>
      <point x="482.6666666666667" y="548.3333333333334" type="line"/>
      <point x="36.0" y="349.6666666666667" type="line"/>
      <point x="36.0" y="275.3333333333333" type="line"/>
    </contour>
  </outline>
</glyph>
<glyph name="question" format="2">
  <advance width="483.6666666666667"/>
  <unicode hex="003F"/>
  <outline>
    <contour>
      <point x="229.66666666666666" y="185.66666666666666" type="curve" smooth="yes"/>
      <point x="254.0" y="185.66666666666666"/>
      <point x="289.3333333333333" y="191.33333333333334"/>
      <point x="314.3333333333333" y="205.0" type="curve"/>
      <point x="301.3333333333333" y="245.33333333333334" type="line"/>
      <point x="289.3333333333333" y="241.0"/>
      <point x="276.0" y="239.33333333333334"/>
      <point x="266.6666666666667" y="239.33333333333334" type="curve" smooth="yes"/>
      <point x="236.66666666666666" y="239.33333333333334"/>
      <point x="225.33333333333334" y="255.0"/>
      <point x="225.33333333333334" y="271.3333333333333" type="curve" smooth="yes"/>
      <point x="225.33333333333334" y="337.3333333333333"/>
      <point x="438.0" y="409.3333333333333"/>
      <point x="444.0" y="547.0" type="curve" smooth="yes"/>
      <point x="446.6666666666667" y="629.0"/>
      <point x="394.6666666666667" y="716.0"/>
      <point x="238.33333333333334" y="716.0" type="curve" smooth="yes"/>
      <point x="114.33333333333333" y="716.0"/>
      <point x="34.333333333333336" y="636.3333333333334"/>
      <point x="34.333333333333336" y="574.0" type="curve" smooth="yes"/>
      <point x="34.333333333333336" y="541.3333333333334"/>
      <point x="50.333333333333336" y="517.0"/>
      <point x="84.0" y="515.0" type="curve" smooth="yes"/>
      <point x="121.33333333333333" y="513.3333333333334"/>
      <point x="137.33333333333334" y="546.3333333333334"/>
      <point x="137.33333333333334" y="566.0" type="curve" smooth="yes"/>
      <point x="137.33333333333334" y="580.6666666666666"/>
      <point x="132.66666666666666" y="597.0"/>
      <point x="123.33333333333333" y="608.6666666666666" type="curve"/>
      <point x="131.0" y="635.0"/>
      <point x="173.0" y="666.6666666666666"/>
      <point x="222.0" y="666.6666666666666" type="curve" smooth="yes"/>
      <point x="307.0" y="666.6666666666666"/>
      <point x="333.3333333333333" y="611.0"/>
      <point x="332.0" y="541.6666666666666" type="curve" smooth="yes"/>
      <point x="330.0" y="464.3333333333333"/>
      <point x="284.6666666666667" y="417.0"/>
      <point x="235.66666666666666" y="373.0" type="curve" smooth="yes"/>
      <point x="182.0" y="323.3333333333333"/>
      <point x="147.33333333333334" y="293.6666666666667"/>
      <point x="147.33333333333334" y="253.33333333333334" type="curve" smooth="yes"/>
      <point x="147.33333333333334" y="204.0"/>
      <point x="189.33333333333334" y="185.66666666666666"/>
    </contour>
    <contour>
      <point x="237.0" y="-16.0" type="curve" smooth="yes"/>
      <point x="270.3333333333333" y="-16.0"/>
      <point x="297.3333333333333" y="13.0"/>
      <point x="297.3333333333333" y="49.333333333333336" type="curve" smooth="yes"/>
      <point x="297.3333333333333" y="85.0"/>
      <point x="271.0" y="114.66666666666667"/>
      <point x="237.33333333333334" y="114.66666666666667" type="curve" smooth="yes"/>
      <point x="206.33333333333334" y="114.66666666666667"/>
      <point x="177.0" y="85.0"/>
      <point x="177.0" y="49.333333333333336" type="curve" smooth="yes"/>
      <point x="177.0" y="10.333333333333332"/>
      <point x="206.0" y="-16.0"/>
    </contour>
  </outline>
</glyph>
<glyph name="at" format="2">
  <advance width="795.0"/>
  <unicode hex="0040"/>
  <outline>
    <contour>
      <point x="417.0" y="-96.33333333333333" type="curve" smooth="yes"/>
      <point x="521.6666666666666" y="-94.33333333333333"/>
      <point x="615.3333333333334" y="-57.0"/>
      <point x="682.3333333333334" y="20.0" type="curve"/>
      <point x="659.0" y="45.666666666666664" type="line"/>
      <point x="591.0" y="-33.333333333333336"/>
      <point x="493.3333333333333" y="-52.666666666666664"/>
      <point x="420.3333333333333" y="-51.333333333333336" type="curve" smooth="yes"/>
      <point x="266.3333333333333" y="-48.666666666666664"/>
      <point x="126.66666666666667" y="50.666666666666664"/>
      <point x="126.66666666666667" y="262.6666666666667" type="curve" smooth="yes"/>
      <point x="126.66666666666667" y="432.0"/>
      <point x="230.66666666666666" y="585.3333333333334"/>
      <point x="397.6666666666667" y="594.0" type="curve" smooth="yes"/>
      <point x="556.6666666666666" y="602.6666666666666"/>
      <point x="683.6666666666666" y="510.0"/>
      <point x="679.6666666666666" y="288.6666666666667" type="curve" smooth="yes"/>
      <point x="677.6666666666666" y="187.0"/>
      <point x="632.6666666666666" y="98.33333333333333"/>
      <point x="569.0" y="106.33333333333333" type="curve" smooth="yes"/>
      <point x="535.0" y="111.66666666666667"/>
      <point x="530.0" y="157.66666666666666"/>
      <point x="532.6666666666666" y="202.0" type="curve" smooth="yes"/>
      <point x="536.0" y="263.0"/>
      <point x="552.0" y="376.6666666666667"/>
      <point x="563.3333333333334" y="467.3333333333333" type="curve"/>
      <point x="526.6666666666666" y="478.0"/>
      <point x="482.0" y="483.0"/>
      <point x="451.6666666666667" y="483.0" type="curve" smooth="yes"/>
      <point x="299.6666666666667" y="483.0"/>
      <point x="218.33333333333334" y="353.6666666666667"/>
      <point x="218.33333333333334" y="213.0" type="curve" smooth="yes"/>
      <point x="218.33333333333334" y="113.66666666666667"/>
      <point x="268.6666666666667" y="72.0"/>
      <point x="324.3333333333333" y="72.0" type="curve" smooth="yes"/>
      <point x="380.6666666666667" y="72.0"/>
      <point x="430.6666666666667" y="118.0"/>
      <point x="470.0" y="228.66666666666666" type="curve"/>
      <point x="457.6666666666667" y="143.33333333333334"/>
      <point x="466.6666666666667" y="79.33333333333333"/>
      <point x="543.6666666666666" y="67.66666666666667" type="curve" smooth="yes"/>
      <point x="616.3333333333334" y="58.0"/>
      <point x="750.0" y="118.33333333333333"/>
      <point x="751.3333333333334" y="313.0" type="curve" smooth="yes"/>
      <point x="752.6666666666666" y="474.6666666666667"/>
      <point x="635.3333333333334" y="645.0"/>
      <point x="404.6666666666667" y="636.3333333333334" type="curve" smooth="yes"/>
      <point x="165.33333333333334" y="627.6666666666666"/>
      <point x="49.0" y="425.3333333333333"/>
      <point x="49.0" y="256.6666666666667" type="curve" smooth="yes"/>
      <point x="49.0" y="65.0"/>
      <point x="171.66666666666666" y="-101.33333333333333"/>
    </contour>
    <contour>
      <point x="344.6666666666667" y="120.33333333333333" type="curve" smooth="yes"/>
      <point x="315.3333333333333" y="120.33333333333333"/>
      <point x="298.0" y="157.66666666666666"/>
      <point x="298.0" y="218.0" type="curve" smooth="yes"/>
      <point x="298.0" y="319.0"/>
      <point x="342.0" y="444.3333333333333"/>
      <point x="427.6666666666667" y="446.3333333333333" type="curve" smooth="yes"/>
      <point x="448.3333333333333" y="446.6666666666667"/>
      <point x="467.6666666666667" y="444.3333333333333"/>
      <point x="481.3333333333333" y="439.3333333333333" type="curve"/>
      <point x="479.0" y="308.0"/>
      <point x="409.6666666666667" y="120.33333333333333"/>
    </contour>
  </outline>
</glyph>
<glyph name="A" format="2">
  <advance width="640.0"/>
  <unicode hex="0041"/>
  <anchor x="320.0" y="0.0" name="bottom"/>
  <anchor x="575.6666666666666" y="0.0" name="ogonek"/>
  <anchor x="315.6666666666667" y="700.0" name="top"/>
  <outline>
    <contour>
      <point x="-2.666666666666667" y="0.0" type="line"/>
      <point x="193.33333333333334" y="0.0" type="line"/>
      <point x="193.33333333333334" y="56.0" type="line"/>
      <point x="171.33333333333334" y="55.33333333333333"/>
      <point x="142.0" y="53.666666666666664"/>
      <point x="117.66666666666667" y="52.33333333333333" type="curve"/>
      <point x="127.33333333333333" y="74.66666666666667"/>
      <point x="136.0" y="98.0"/>
      <point x="145.0" y="125.33333333333333" type="curve"/>
      <point x="173.66666666666666" y="212.33333333333334" type="line"/>
      <point x="419.3333333333333" y="217.66666666666666" type="line"/>
      <point x="449.3333333333333" y="136.66666666666666" type="line" smooth="yes"/>
      <point x="465.0" y="95.33333333333333"/>
      <point x="472.6666666666667" y="45.33333333333333"/>
      <point x="404.3333333333333" y="44.0" type="curve"/>
      <point x="404.3333333333333" y="0.0" type="line"/>
      <point x="646.6666666666666" y="0.0" type="line"/>
      <point x="646.6666666666666" y="55.0" type="line"/>
      <point x="626.6666666666666" y="54.33333333333333"/>
      <point x="604.6666666666666" y="52.666666666666664"/>
      <point x="582.0" y="51.33333333333333" type="curve"/>
      <point x="582.3333333333334" y="81.33333333333333"/>
      <point x="565.3333333333334" y="132.33333333333334"/>
      <point x="555.3333333333334" y="157.66666666666666" type="curve" smooth="yes"/>
      <point x="335.6666666666667" y="718.6666666666666" type="line"/>
      <point x="296.3333333333333" y="718.6666666666666" type="line"/>
      <point x="94.0" y="166.33333333333334" type="line" smooth="yes"/>
      <point x="68.0" y="97.0"/>
      <point x="56.0" y="45.0"/>
      <point x="-2.666666666666667" y="45.0" type="curve"/>
    </contour>
    <contour>
      <point x="192.0" y="266.0" type="line"/>
      <point x="254.33333333333334" y="443.3333333333333" type="line"/>
      <point x="271.0" y="489.3333333333333"/>
      <point x="283.6666666666667" y="529.6666666666666"/>
      <point x="294.6666666666667" y="562.6666666666666" type="curve"/>
      <point x="296.3333333333333" y="562.6666666666666" type="line"/>
      <point x="308.3333333333333" y="523.0"/>
      <point x="323.3333333333333" y="478.3333333333333"/>
      <point x="339.0" y="435.0" type="curve"/>
      <point x="401.6666666666667" y="266.0" type="line"/>
    </contour>
  </outline>
</glyph>
<glyph name="B" format="2">
  <advance width="635.0"/>
  <unicode hex="0042"/>
  <outline>
    <contour>
      <point x="53.333333333333336" y="0.0" type="line"/>
      <point x="361.3333333333333" y="0.0" type="line" smooth="yes"/>
      <point x="498.0" y="0.0"/>
      <point x="599.6666666666666" y="71.66666666666667"/>
      <point x="599.6666666666666" y="197.0" type="curve" smooth="yes"/>
      <point x="599.6666666666666" y="293.3333333333333"/>
      <point x="529.3333333333334" y="368.3333333333333"/>
      <point x="387.0" y="375.3333333333333" type="curve"/>
      <point x="387.0" y="377.0" type="line"/>
      <point x="491.6666666666667" y="398.6666666666667"/>
      <point x="543.0" y="464.6666666666667"/>
      <point x="545.0" y="527.3333333333334" type="curve" smooth="yes"/>
      <point x="548.3333333333334" y="646.6666666666666"/>
      <point x="453.0" y="702.3333333333334"/>
      <point x="296.3333333333333" y="702.0" type="curve" smooth="yes"/>
      <point x="212.33333333333334" y="701.6666666666666"/>
      <point x="132.66666666666666" y="701.0"/>
      <point x="53.333333333333336" y="700.0" type="curve"/>
      <point x="53.333333333333336" y="645.0" type="line"/>
      <point x="74.0" y="646.0"/>
      <point x="103.33333333333333" y="647.6666666666666"/>
      <point x="126.33333333333333" y="648.6666666666666" type="curve"/>
      <point x="124.33333333333333" y="631.6666666666666"/>
      <point x="123.0" y="602.0"/>
      <point x="123.0" y="566.0" type="curve" smooth="yes"/>
      <point x="123.0" y="158.33333333333334" type="line" smooth="yes"/>
      <point x="123.0" y="81.33333333333333"/>
      <point x="118.33333333333333" y="46.0"/>
      <point x="53.333333333333336" y="44.0" type="curve"/>
    </contour>
    <contour>
      <point x="226.0" y="50.33333333333333" type="curve"/>
      <point x="228.0" y="67.33333333333333"/>
      <point x="229.33333333333334" y="95.66666666666667"/>
      <point x="229.33333333333334" y="131.66666666666666" type="curve" smooth="yes"/>
      <point x="229.33333333333334" y="336.6666666666667" type="line"/>
      <point x="259.3333333333333" y="338.3333333333333"/>
      <point x="287.0" y="339.0"/>
      <point x="325.0" y="339.0" type="curve" smooth="yes"/>
      <point x="407.0" y="339.0"/>
      <point x="482.6666666666667" y="306.0"/>
      <point x="482.6666666666667" y="194.0" type="curve" smooth="yes"/>
      <point x="482.6666666666667" y="102.66666666666667"/>
      <point x="424.6666666666667" y="50.666666666666664"/>
      <point x="329.0" y="49.33333333333333" type="curve" smooth="yes"/>
      <point x="310.0" y="49.0"/>
      <point x="258.3333333333333" y="48.33333333333333"/>
    </contour>
    <contour>
      <point x="229.33333333333334" y="386.3333333333333" type="line"/>
      <point x="229.33333333333334" y="562.0" type="line" smooth="yes"/>
      <point x="229.33333333333334" y="636.3333333333334"/>
      <point x="244.66666666666666" y="654.3333333333334"/>
      <point x="298.6666666666667" y="654.6666666666666" type="curve" smooth="yes"/>
      <point x="359.6666666666667" y="655.0"/>
      <point x="432.0" y="631.6666666666666"/>
      <point x="433.3333333333333" y="533.3333333333334" type="curve" smooth="yes"/>
      <point x="434.0" y="459.6666666666667"/>
      <point x="399.3333333333333" y="390.0"/>
      <point x="295.3333333333333" y="388.0" type="curve" smooth="yes"/>
    </contour>
  </outline>
</glyph>
<glyph name="C" format="2">
  <advance width="695.3333333333334"/>
  <unicode hex="0043"/>
  <anchor x="352.0" y="0.0" name="bottom"/>
  <anchor x="393.6666666666667" y="700.0" name="top"/>
  <outline>
    <contour>
      <point x="594.0" y="476.6666666666667" type="curve"/>
      <point x="639.6666666666666" y="476.6666666666667" type="line"/>
      <point x="639.6666666666666" y="709.0" type="line"/>
      <point x="578.0" y="709.0" type="line"/>
      <point x="582.6666666666666" y="659.0" type="line"/>
      <point x="523.0" y="697.0"/>
      <point x="457.6666666666667" y="716.0"/>
      <point x="390.3333333333333" y="716.0" type="curve" smooth="yes"/>
      <point x="157.33333333333334" y="716.0"/>
      <point x="42.333333333333336" y="525.3333333333334"/>
      <point x="42.333333333333336" y="339.3333333333333" type="curve" smooth="yes"/>
      <point x="42.333333333333336" y="140.33333333333334"/>
      <point x="180.66666666666666" y="-16.0"/>
      <point x="383.3333333333333" y="-16.0" type="curve" smooth="yes"/>
      <point x="465.3333333333333" y="-16.0"/>
      <point x="582.3333333333334" y="10.333333333333334"/>
      <point x="672.3333333333334" y="134.66666666666666" type="curve"/>
      <point x="639.0" y="163.33333333333334" type="line"/>
      <point x="584.3333333333334" y="87.66666666666667"/>
      <point x="494.6666666666667" y="45.666666666666664"/>
      <point x="408.6666666666667" y="45.666666666666664" type="curve" smooth="yes"/>
      <point x="265.3333333333333" y="45.666666666666664"/>
      <point x="160.0" y="172.66666666666666"/>
      <point x="160.0" y="356.0" type="curve" smooth="yes"/>
      <point x="160.0" y="534.6666666666666"/>
      <point x="258.0" y="664.6666666666666"/>
      <point x="399.3333333333333" y="664.6666666666666" type="curve" smooth="yes"/>
      <point x="507.6666666666667" y="664.3333333333334"/>
      <point x="578.6666666666666" y="597.0"/>
    </contour>
  </outline>
</glyph>
<glyph name="D" format="2">
  <advance width="749.6666666666666"/>
  <unicode hex="0044"/>
  <anchor x="375.3333333333333" y="350.0" name="center"/>
  <anchor x="350.6666666666667" y="700.0" name="top"/>
  <outline>
    <contour>
      <point x="53.333333333333336" y="44.0" type="curve"/>
      <point x="53.333333333333336" y="0.0" type="line"/>
      <point x="324.0" y="0.0" type="line" smooth="yes"/>
      <point x="584.6666666666666" y="0.0"/>
      <point x="707.3333333333334" y="174.66666666666666"/>
      <point x="707.3333333333334" y="351.6666666666667" type="curve" smooth="yes"/>
      <point x="707.3333333333334" y="567.6666666666666"/>
      <point x="556.3333333333334" y="702.0"/>
      <point x="307.6666666666667" y="701.0" type="curve" smooth="yes"/>
      <point x="53.333333333333336" y="700.0" type="line"/>
      <point x="53.333333333333336" y="645.0" type="line"/>
      <point x="74.0" y="646.0"/>
      <point x="103.33333333333333" y="647.6666666666666"/>
      <point x="126.33333333333333" y="648.6666666666666" type="curve"/>
      <point x="124.33333333333333" y="629.6666666666666"/>
      <point x="123.0" y="600.6666666666666"/>
      <point x="123.0" y="570.6666666666666" type="curve" smooth="yes"/>
      <point x="123.0" y="155.0" type="line" smooth="yes"/>
      <point x="123.0" y="80.66666666666667"/>
      <point x="118.33333333333333" y="46.666666666666664"/>
    </contour>
    <contour>
      <point x="229.33333333333334" y="133.33333333333334" type="curve" smooth="yes"/>
      <point x="229.33333333333334" y="545.6666666666666" type="line" smooth="yes"/>
      <point x="229.33333333333334" y="618.6666666666666"/>
      <point x="233.33333333333334" y="654.6666666666666"/>
      <point x="299.6666666666667" y="654.0" type="curve" smooth="yes"/>
      <point x="492.6666666666667" y="652.6666666666666"/>
      <point x="589.3333333333334" y="541.3333333333334"/>
      <point x="589.3333333333334" y="347.3333333333333" type="curve" smooth="yes"/>
      <point x="589.3333333333334" y="183.66666666666666"/>
      <point x="492.3333333333333" y="49.666666666666664"/>
      <point x="329.0" y="49.666666666666664" type="curve" smooth="yes"/>
      <point x="315.6666666666667" y="49.666666666666664"/>
      <point x="267.6666666666667" y="50.0"/>
      <point x="226.0" y="51.33333333333333" type="curve"/>
      <point x="228.0" y="68.33333333333333"/>
      <point x="229.33333333333334" y="97.33333333333333"/>
    </contour>
  </outline>
</glyph>
<glyph name="E" format="2">
  <advance width="622.6666666666666"/>
  <unicode hex="0045"/>
  <anchor x="375.6666666666667" y="0.0" name="bottom"/>
  <anchor x="560.6666666666666" y="5.0" name="ogonek"/>
  <anchor x="326.0" y="700.0" name="top"/>
  <anchor x="20.0" y="700.0" name="topleft"/>
  <outline>
    <contour>
      <point x="398.6666666666667" y="253.0" type="curve"/>
      <point x="442.6666666666667" y="253.0" type="line"/>
      <point x="442.6666666666667" y="474.0" type="line"/>
      <point x="387.6666666666667" y="474.0" type="line"/>
      <point x="393.6666666666667" y="387.6666666666667" type="line"/>
      <point x="229.33333333333334" y="388.3333333333333" type="line"/>
      <point x="229.33333333333334" y="545.0" type="line" smooth="yes"/>
      <point x="229.33333333333334" y="625.0"/>
      <point x="238.33333333333334" y="651.6666666666666"/>
      <point x="302.3333333333333" y="653.3333333333334" type="curve" smooth="yes"/>
      <point x="371.6666666666667" y="655.0" type="line" smooth="yes"/>
      <point x="439.6666666666667" y="657.0"/>
      <point x="502.0" y="633.6666666666666"/>
      <point x="502.0" y="518.6666666666666" type="curve"/>
      <point x="546.0" y="518.6666666666666" type="line"/>
      <point x="540.6666666666666" y="700.0" type="line"/>
      <point x="53.333333333333336" y="700.0" type="line"/>
      <point x="53.333333333333336" y="645.0" type="line"/>
      <point x="74.0" y="646.0"/>
      <point x="103.33333333333333" y="647.6666666666666"/>
      <point x="126.33333333333333" y="648.6666666666666" type="curve"/>
      <point x="124.33333333333333" y="629.6666666666666"/>
      <point x="123.0" y="600.6666666666666"/>
      <point x="123.0" y="570.6666666666666" type="curve" smooth="yes"/>
      <point x="123.0" y="155.0" type="line" smooth="yes"/>
      <point x="123.0" y="80.66666666666667"/>
      <point x="118.33333333333333" y="46.666666666666664"/>
      <point x="53.333333333333336" y="44.0" type="curve"/>
      <point x="53.333333333333336" y="0.0" type="line"/>
      <point x="573.3333333333334" y="0.0" type="line"/>
      <point x="579.0" y="203.33333333333334" type="line"/>
      <point x="534.6666666666666" y="203.33333333333334" type="line"/>
      <point x="534.6666666666666" y="88.0"/>
      <point x="475.6666666666667" y="52.666666666666664"/>
      <point x="398.0" y="52.0" type="curve" smooth="yes"/>
      <point x="226.0" y="50.0" type="line"/>
      <point x="228.0" y="67.0"/>
      <point x="229.33333333333334" y="95.33333333333333"/>
      <point x="229.33333333333334" y="131.33333333333334" type="curve" smooth="yes"/>
      <point x="229.33333333333334" y="338.6666666666667" type="line"/>
      <point x="286.6666666666667" y="341.0" type="line" smooth="yes"/>
      <point x="361.3333333333333" y="343.3333333333333"/>
      <point x="398.6666666666667" y="339.6666666666667"/>
    </contour>
  </outline>
</glyph>
<glyph name="F" format="2">
  <advance width="555.6666666666666"/>
  <unicode hex="0046"/>
  <outline>
    <contour>
      <point x="53.333333333333336" y="0.0" type="line"/>
      <point x="323.6666666666667" y="0.0" type="line"/>
      <point x="323.6666666666667" y="55.0" type="line"/>
      <point x="296.0" y="54.33333333333333"/>
      <point x="255.66666666666666" y="52.666666666666664"/>
      <point x="226.0" y="51.33333333333333" type="curve"/>
      <point x="228.0" y="68.33333333333333"/>
      <point x="229.33333333333334" y="98.0"/>
      <point x="229.33333333333334" y="134.0" type="curve" smooth="yes"/>
      <point x="229.33333333333334" y="320.6666666666667" type="line"/>
      <point x="273.3333333333333" y="322.6666666666667" type="line" smooth="yes"/>
      <point x="347.3333333333333" y="326.0"/>
      <point x="385.3333333333333" y="321.3333333333333"/>
      <point x="385.3333333333333" y="234.0" type="curve"/>
      <point x="428.6666666666667" y="234.0" type="line"/>
      <point x="428.6666666666667" y="455.6666666666667" type="line"/>
      <point x="373.6666666666667" y="455.6666666666667" type="line"/>
      <point x="379.6666666666667" y="369.0" type="line"/>
      <point x="229.33333333333334" y="369.6666666666667" type="line"/>
      <point x="229.33333333333334" y="542.3333333333334" type="line" smooth="yes"/>
      <point x="229.33333333333334" y="614.3333333333334"/>
      <point x="234.33333333333334" y="651.6666666666666"/>
      <point x="297.6666666666667" y="653.3333333333334" type="curve" smooth="yes"/>
      <point x="358.3333333333333" y="655.0" type="line" smooth="yes"/>
      <point x="426.3333333333333" y="657.0"/>
      <point x="490.6666666666667" y="633.6666666666666"/>
      <point x="490.6666666666667" y="518.6666666666666" type="curve"/>
      <point x="534.6666666666666" y="518.6666666666666" type="line"/>
      <point x="529.3333333333334" y="700.0" type="line"/>
      <point x="53.333333333333336" y="700.0" type="line"/>
      <point x="53.333333333333336" y="645.0" type="line"/>
      <point x="74.0" y="646.0"/>
      <point x="103.33333333333333" y="647.6666666666666"/>
      <point x="126.33333333333333" y="648.6666666666666" type="curve"/>
      <point x="124.33333333333333" y="629.6666666666666"/>
      <point x="123.0" y="600.6666666666666"/>
      <point x="123.0" y="570.6666666666666" type="curve" smooth="yes"/>
      <point x="123.0" y="155.0" type="line" smooth="yes"/>
      <point x="123.0" y="80.66666666666667"/>
      <point x="118.33333333333333" y="46.666666666666664"/>
      <point x="53.333333333333336" y="44.0" type="curve"/>
    </contour>
  </outline>
</glyph>
<glyph name="G" format="2">
  <advance width="758.6666666666666"/>
  <unicode hex="0047"/>
  <anchor x="429.0" y="0.0" name="bottom"/>
  <anchor x="393.0" y="700.0" name="top"/>
  <outline>
    <contour>
      <point x="383.3333333333333" y="-16.0" type="curve" smooth="yes"/>
      <point x="432.6666666666667" y="-16.0"/>
      <point x="489.3333333333333" y="-5.333333333333333"/>
      <point x="530.6666666666666" y="9.333333333333334" type="curve" smooth="yes"/>
      <point x="577.3333333333334" y="26.333333333333332"/>
      <point x="615.0" y="35.333333333333336"/>
      <point x="642.6666666666666" y="35.333333333333336" type="curve" smooth="yes"/>
      <point x="668.6666666666666" y="35.333333333333336" type="line"/>
      <point x="668.6666666666666" y="190.66666666666666" type="line" smooth="yes"/>
      <point x="668.6666666666666" y="234.0"/>
      <point x="674.0" y="298.3333333333333"/>
      <point x="739.0" y="299.0" type="curve"/>
      <point x="739.0" y="343.0" type="line"/>
      <point x="499.6666666666667" y="343.0" type="line"/>
      <point x="499.6666666666667" y="288.0" type="line"/>
      <point x="519.6666666666666" y="289.0"/>
      <point x="549.0" y="290.3333333333333"/>
      <point x="571.3333333333334" y="291.6666666666667" type="curve"/>
      <point x="570.6666666666666" y="264.6666666666667"/>
      <point x="570.0" y="230.33333333333334"/>
      <point x="570.0" y="197.0" type="curve"/>
      <point x="570.0" y="84.66666666666667" type="line"/>
      <point x="523.0" y="55.33333333333333"/>
      <point x="457.0" y="42.33333333333333"/>
      <point x="409.0" y="42.33333333333333" type="curve" smooth="yes"/>
      <point x="258.3333333333333" y="42.33333333333333"/>
      <point x="160.66666666666666" y="175.33333333333334"/>
      <point x="160.66666666666666" y="358.6666666666667" type="curve" smooth="yes"/>
      <point x="160.66666666666666" y="530.6666666666666"/>
      <point x="259.0" y="665.3333333333334"/>
      <point x="400.0" y="665.3333333333334" type="curve" smooth="yes"/>
      <point x="508.6666666666667" y="665.0"/>
      <point x="593.3333333333334" y="599.0"/>
      <point x="605.3333333333334" y="478.6666666666667" type="curve"/>
      <point x="651.0" y="478.6666666666667" type="line"/>
      <point x="651.0" y="709.0" type="line"/>
      <point x="588.6666666666666" y="709.0" type="line"/>
      <point x="592.6666666666666" y="663.0" type="line"/>
      <point x="537.3333333333334" y="696.3333333333334"/>
      <point x="456.6666666666667" y="716.0"/>
      <point x="391.0" y="716.0" type="curve" smooth="yes"/>
      <point x="158.0" y="716.0"/>
      <point x="43.333333333333336" y="522.6666666666666"/>
      <point x="43.333333333333336" y="336.6666666666667" type="curve" smooth="yes"/>
      <point x="43.333333333333336" y="124.33333333333333"/>
      <point x="177.0" y="-16.0"/>
    </contour>
  </outline>
</glyph>
<glyph name="H" format="2">
  <advance width="789.0"/>
  <unicode hex="0048"/>
  <anchor x="394.3333333333333" y="350.0" name="center"/>
  <anchor x="394.3333333333333" y="700.0" name="top"/>
  <outline>
    <contour>
      <point x="53.333333333333336" y="0.0" type="line"/>
      <point x="299.0" y="0.0" type="line"/>
      <point x="299.0" y="55.0" type="line"/>
      <point x="278.3333333333333" y="54.33333333333333"/>
      <point x="249.0" y="52.666666666666664"/>
      <point x="226.0" y="51.33333333333333" type="curve"/>
      <point x="228.0" y="68.33333333333333"/>
      <point x="229.33333333333334" y="98.0"/>
      <point x="229.33333333333334" y="134.0" type="curve" smooth="yes"/>
      <point x="229.33333333333334" y="326.6666666666667" type="line"/>
      <point x="559.6666666666666" y="330.3333333333333" type="line"/>
      <point x="559.6666666666666" y="155.0" type="line" smooth="yes"/>
      <point x="559.6666666666666" y="80.66666666666667"/>
      <point x="555.0" y="46.666666666666664"/>
      <point x="490.0" y="44.0" type="curve"/>
      <point x="490.0" y="0.0" type="line"/>
      <point x="735.6666666666666" y="0.0" type="line"/>
      <point x="735.6666666666666" y="55.0" type="line"/>
      <point x="715.0" y="54.33333333333333"/>
      <point x="685.6666666666666" y="52.666666666666664"/>
      <point x="662.6666666666666" y="51.33333333333333" type="curve"/>
      <point x="664.6666666666666" y="68.33333333333333"/>
      <point x="666.0" y="98.0"/>
      <point x="666.0" y="134.0" type="curve" smooth="yes"/>
      <point x="666.0" y="545.0" type="line" smooth="yes"/>
      <point x="666.0" y="619.3333333333334"/>
      <point x="670.6666666666666" y="653.3333333333334"/>
      <point x="735.6666666666666" y="656.0" type="curve"/>
      <point x="735.6666666666666" y="700.0" type="line"/>
      <point x="490.0" y="700.0" type="line"/>
      <point x="490.0" y="645.0" type="line"/>
      <point x="510.6666666666667" y="646.0"/>
      <point x="539.6666666666666" y="647.6666666666666"/>
      <point x="563.0" y="648.6666666666666" type="curve"/>
      <point x="560.6666666666666" y="629.6666666666666"/>
      <point x="559.6666666666666" y="600.6666666666666"/>
      <point x="559.6666666666666" y="570.6666666666666" type="curve" smooth="yes"/>
      <point x="559.6666666666666" y="382.3333333333333" type="line"/>
      <point x="229.33333333333334" y="382.3333333333333" type="line"/>
      <point x="229.33333333333334" y="545.0" type="line" smooth="yes"/>
      <point x="229.33333333333334" y="619.3333333333334"/>
      <point x="234.0" y="653.3333333333334"/>
      <point x="299.0" y="656.0" type="curve"/>
      <point x="299.0" y="700.0" type="line"/>
      <point x="53.333333333333336" y="700.0" type="line"/>
      <point x="53.333333333333336" y="645.0" type="line"/>
      <point x="74.0" y="646.0"/>
      <point x="103.33333333333333" y="647.6666666666666"/>
      <point x="126.33333333333333" y="648.6666666666666" type="curve"/>
      <point x="124.33333333333333" y="629.6666666666666"/>
      <point x="123.0" y="600.6666666666666"/>
      <point x="123.0" y="570.6666666666666" type="curve" smooth="yes"/>
      <point x="123.0" y="155.0" type="line" smooth="yes"/>
      <point x="123.0" y="80.66666666666667"/>
      <point x="118.33333333333333" y="46.666666666666664"/>
      <point x="53.333333333333336" y="44.0" type="curve"/>
    </contour>
  </outline>
</glyph>
<glyph name="I" format="2">
  <advance width="352.3333333333333"/>
  <unicode hex="0049"/>
  <anchor x="176.66666666666666" y="0.0" name="bottom"/>
  <anchor x="294.6666666666667" y="0.0" name="ogonek"/>
  <anchor x="178.0" y="700.0" name="top"/>
  <anchor x="20.0" y="700.0" name="topleft"/>
  <outline>
    <contour>
      <point x="299.0" y="656.0" type="curve"/>
      <point x="299.0" y="700.0" type="line"/>
      <point x="53.333333333333336" y="700.0" type="line"/>
      <point x="53.333333333333336" y="645.0" type="line"/>
      <point x="74.0" y="646.0"/>
      <point x="103.33333333333333" y="647.6666666666666"/>
      <point x="126.33333333333333" y="648.6666666666666" type="curve"/>
      <point x="124.33333333333333" y="629.6666666666666"/>
      <point x="123.0" y="600.6666666666666"/>
      <point x="123.0" y="570.6666666666666" type="curve" smooth="yes"/>
      <point x="123.0" y="155.0" type="line" smooth="yes"/>
      <point x="123.0" y="80.66666666666667"/>
      <point x="118.33333333333333" y="46.666666666666664"/>
      <point x="53.333333333333336" y="44.0" type="curve"/>
      <point x="53.333333333333336" y="0.0" type="line"/>
      <point x="299.0" y="0.0" type="line"/>
      <point x="299.0" y="55.0" type="line"/>
      <point x="278.3333333333333" y="54.33333333333333"/>
      <point x="249.0" y="52.666666666666664"/>
      <point x="226.0" y="51.33333333333333" type="curve"/>
      <point x="228.0" y="68.33333333333333"/>
      <point x="229.33333333333334" y="98.0"/>
      <point x="229.33333333333334" y="134.0" type="curve" smooth="yes"/>
      <point x="229.33333333333334" y="545.0" type="line" smooth="yes"/>
      <point x="229.33333333333334" y="619.3333333333334"/>
      <point x="234.0" y="653.3333333333334"/>
    </contour>
  </outline>
</glyph>
<glyph name="J" format="2">
  <advance width="399.0"/>
  <unicode hex="004A"/>
  <anchor x="228.66666666666666" y="700.0" name="top"/>
  <outline>
    <contour>
      <point x="117.33333333333333" y="-16.0" type="curve" smooth="yes"/>
      <point x="239.0" y="-16.0"/>
      <point x="295.0" y="58.0"/>
      <point x="295.0" y="247.33333333333334" type="curve" smooth="yes"/>
      <point x="295.0" y="561.0" type="line" smooth="yes"/>
      <point x="295.0" y="625.3333333333334"/>
      <point x="311.0" y="655.3333333333334"/>
      <point x="370.0" y="656.0" type="curve"/>
      <point x="370.0" y="700.0" type="line"/>
      <point x="97.0" y="700.0" type="line"/>
      <point x="97.0" y="645.0" type="line"/>
      <point x="124.33333333333333" y="646.0"/>
      <point x="160.0" y="647.6666666666666"/>
      <point x="190.0" y="648.6666666666666" type="curve"/>
      <point x="189.0" y="623.0"/>
      <point x="188.66666666666666" y="591.3333333333334"/>
      <point x="188.66666666666666" y="559.3333333333334" type="curve"/>
      <point x="188.66666666666666" y="137.66666666666666" type="line" smooth="yes"/>
      <point x="188.66666666666666" y="64.33333333333333"/>
      <point x="170.66666666666666" y="36.0"/>
      <point x="134.66666666666666" y="35.33333333333333" type="curve" smooth="yes"/>
      <point x="125.66666666666667" y="34.666666666666664"/>
      <point x="105.66666666666666" y="38.33333333333333"/>
      <point x="98.33333333333333" y="51.33333333333333" type="curve"/>
      <point x="102.33333333333333" y="59.33333333333333"/>
      <point x="104.33333333333333" y="70.66666666666667"/>
      <point x="104.0" y="78.33333333333333" type="curve" smooth="yes"/>
      <point x="103.66666666666666" y="103.0"/>
      <point x="89.33333333333333" y="131.66666666666666"/>
      <point x="50.666666666666664" y="129.33333333333334" type="curve" smooth="yes"/>
      <point x="16.333333333333332" y="128.0"/>
      <point x="-1.0" y="98.33333333333333"/>
      <point x="-1.0" y="67.0" type="curve" smooth="yes"/>
      <point x="-1.0" y="17.0"/>
      <point x="53.666666666666664" y="-16.0"/>
    </contour>
  </outline>
</glyph>
<glyph name="K" format="2">
  <advance width="692.6666666666666"/>
  <unicode hex="004B"/>
  <anchor x="388.3333333333333" y="0.0" name="bottom"/>
  <anchor x="355.0" y="700.0" name="top"/>
  <outline>
    <contour>
      <point x="53.333333333333336" y="0.0" type="line"/>
      <point x="299.0" y="0.0" type="line"/>
      <point x="299.0" y="55.0" type="line"/>
      <point x="278.3333333333333" y="54.33333333333333"/>
      <point x="249.0" y="52.666666666666664"/>
      <point x="226.0" y="51.33333333333333" type="curve"/>
      <point x="228.0" y="68.33333333333333"/>
      <point x="229.33333333333334" y="98.0"/>
      <point x="229.33333333333334" y="134.0" type="curve" smooth="yes"/>
      <point x="229.33333333333334" y="331.6666666666667" type="line"/>
      <point x="274.0" y="332.3333333333333" type="line"/>
      <point x="296.0" y="318.0"/>
      <point x="320.6666666666667" y="285.6666666666667"/>
      <point x="343.3333333333333" y="255.33333333333334" type="curve" smooth="yes"/>
      <point x="456.3333333333333" y="99.33333333333333" type="line" smooth="yes"/>
      <point x="491.3333333333333" y="52.333333333333336"/>
      <point x="537.6666666666666" y="0.3333333333333333"/>
      <point x="556.3333333333334" y="0.0" type="curve" smooth="yes"/>
      <point x="689.0" y="0.0" type="line"/>
      <point x="689.0" y="44.0" type="line"/>
      <point x="645.3333333333334" y="44.666666666666664"/>
      <point x="611.3333333333334" y="66.33333333333333"/>
      <point x="547.3333333333334" y="152.66666666666666" type="curve" smooth="yes"/>
      <point x="438.3333333333333" y="300.3333333333333" type="line" smooth="yes"/>
      <point x="417.0" y="328.3333333333333"/>
      <point x="396.0" y="355.6666666666667"/>
      <point x="362.0" y="376.6666666666667" type="curve"/>
      <point x="459.3333333333333" y="532.0" type="line" smooth="yes"/>
      <point x="523.0" y="634.3333333333334"/>
      <point x="574.6666666666666" y="650.6666666666666"/>
      <point x="645.6666666666666" y="656.0" type="curve"/>
      <point x="645.6666666666666" y="700.0" type="line"/>
      <point x="420.6666666666667" y="700.0" type="line"/>
      <point x="420.6666666666667" y="647.0" type="line"/>
      <point x="438.6666666666667" y="648.0"/>
      <point x="462.0" y="648.3333333333334"/>
      <point x="482.3333333333333" y="649.6666666666666" type="curve"/>
      <point x="458.6666666666667" y="630.0"/>
      <point x="431.3333333333333" y="590.6666666666666"/>
      <point x="412.3333333333333" y="560.0" type="curve" smooth="yes"/>
      <point x="303.3333333333333" y="385.0" type="line"/>
      <point x="229.33333333333334" y="385.0" type="line"/>
      <point x="229.33333333333334" y="545.0" type="line" smooth="yes"/>
      <point x="229.33333333333334" y="619.3333333333334"/>
      <point x="234.0" y="653.3333333333334"/>
      <point x="299.0" y="656.0" type="curve"/>
      <point x="299.0" y="700.0" type="line"/>
      <point x="53.333333333333336" y="700.0" type="line"/>
      <point x="53.333333333333336" y="645.0" type="line"/>
      <point x="74.0" y="646.0"/>
      <point x="103.33333333333333" y="647.6666666666666"/>
      <point x="126.33333333333333" y="648.6666666666666" type="curve"/>
      <point x="124.33333333333333" y="629.6666666666666"/>
      <point x="123.0" y="600.6666666666666"/>
      <point x="123.0" y="570.6666666666666" type="curve" smooth="yes"/>
      <point x="123.0" y="155.0" type="line" smooth="yes"/>
      <point x="123.0" y="80.66666666666667"/>
      <point x="118.33333333333333" y="46.666666666666664"/>
      <point x="53.333333333333336" y="44.0" type="curve"/>
    </contour>
  </outline>
</glyph>
<glyph name="L" format="2">
  <advance width="586.6666666666666"/>
  <unicode hex="004C"/>
  <anchor x="328.6666666666667" y="0.0" name="bottom"/>
  <anchor x="189.0" y="700.0" name="top"/>
  <outline>
    <contour>
      <point x="53.333333333333336" y="0.0" type="line"/>
      <point x="561.6666666666666" y="0.0" type="line"/>
      <point x="567.6666666666666" y="218.0" type="line"/>
      <point x="522.6666666666666" y="218.0" type="line"/>
      <point x="522.6666666666666" y="103.0"/>
      <point x="477.6666666666667" y="53.0"/>
      <point x="395.3333333333333" y="52.0" type="curve" smooth="yes"/>
      <point x="226.0" y="50.0" type="line"/>
      <point x="228.0" y="67.0"/>
      <point x="229.33333333333334" y="95.33333333333333"/>
      <point x="229.33333333333334" y="131.33333333333334" type="curve" smooth="yes"/>
      <point x="229.33333333333334" y="545.0" type="line" smooth="yes"/>
      <point x="229.33333333333334" y="619.3333333333334"/>
      <point x="234.0" y="653.3333333333334"/>
      <point x="299.0" y="656.0" type="curve"/>
      <point x="299.0" y="700.0" type="line"/>
      <point x="53.333333333333336" y="700.0" type="line"/>
      <point x="53.333333333333336" y="645.0" type="line"/>
      <point x="74.0" y="646.0"/>
      <point x="103.33333333333333" y="647.6666666666666"/>
      <point x="126.33333333333333" y="648.6666666666666" type="curve"/>
      <point x="124.33333333333333" y="629.6666666666666"/>
      <point x="123.0" y="600.6666666666666"/>
      <point x="123.0" y="570.6666666666666" type="curve" smooth="yes"/>
      <point x="123.0" y="155.0" type="line" smooth="yes"/>
      <point x="123.0" y="80.66666666666667"/>
      <point x="118.33333333333333" y="46.666666666666664"/>
      <point x="53.333333333333336" y="44.0" type="curve"/>
    </contour>
  </outline>
</glyph>
<glyph name="M" format="2">
  <advance width="936.0"/>
  <unicode hex="004D"/>
  <anchor x="468.0" y="0.0" name="bottom"/>
  <anchor x="468.0" y="700.0" name="top"/>
  <outline>
    <contour>
      <point x="424.0" y="-10.0" type="curve"/>
      <point x="475.0" y="-10.0" type="line"/>
      <point x="690.0" y="534.3333333333334" type="line" smooth="yes"/>
      <point x="693.6666666666666" y="545.3333333333334"/>
      <point x="698.3333333333334" y="555.0"/>
      <point x="702.3333333333334" y="564.6666666666666" type="curve"/>
      <point x="704.3333333333334" y="523.0"/>
      <point x="707.3333333333334" y="472.3333333333333"/>
      <point x="709.0" y="443.0" type="curve"/>
      <point x="725.0" y="152.33333333333334" type="line" smooth="yes"/>
      <point x="728.6666666666666" y="74.66666666666667"/>
      <point x="713.6666666666666" y="46.0"/>
      <point x="657.3333333333334" y="44.0" type="curve"/>
      <point x="657.3333333333334" y="0.0" type="line"/>
      <point x="899.3333333333334" y="0.0" type="line"/>
      <point x="899.3333333333334" y="55.0" type="line"/>
      <point x="878.6666666666666" y="54.33333333333333"/>
      <point x="848.6666666666666" y="53.33333333333333"/>
      <point x="825.3333333333334" y="52.0" type="curve"/>
      <point x="826.3333333333334" y="69.0"/>
      <point x="827.3333333333334" y="96.0"/>
      <point x="825.3333333333334" y="123.33333333333333" type="curve" smooth="yes"/>
      <point x="803.0" y="554.3333333333334" type="line" smooth="yes"/>
      <point x="798.6666666666666" y="636.0"/>
      <point x="824.6666666666666" y="656.0"/>
      <point x="873.0" y="656.0" type="curve"/>
      <point x="873.0" y="700.0" type="line"/>
      <point x="697.3333333333334" y="700.0" type="line"/>
      <point x="638.6666666666666" y="549.3333333333334"/>
      <point x="578.3333333333334" y="406.3333333333333"/>
      <point x="522.3333333333334" y="263.0" type="curve" smooth="yes"/>
      <point x="507.6666666666667" y="225.0"/>
      <point x="488.3333333333333" y="172.33333333333334"/>
      <point x="472.6666666666667" y="133.0" type="curve"/>
      <point x="471.0" y="133.0" type="line"/>
      <point x="449.6666666666667" y="185.66666666666666"/>
      <point x="423.0" y="251.0"/>
      <point x="400.3333333333333" y="306.3333333333333" type="curve"/>
      <point x="235.33333333333334" y="700.0" type="line"/>
      <point x="59.666666666666664" y="700.0" type="line"/>
      <point x="59.666666666666664" y="645.6666666666666" type="line"/>
      <point x="80.33333333333333" y="646.6666666666666"/>
      <point x="109.66666666666667" y="647.6666666666666"/>
      <point x="132.66666666666666" y="648.6666666666666" type="curve"/>
      <point x="131.33333333333334" y="625.6666666666666"/>
      <point x="130.33333333333334" y="595.3333333333334"/>
      <point x="129.33333333333334" y="566.0" type="curve"/>
      <point x="114.66666666666667" y="134.33333333333334" type="line" smooth="yes"/>
      <point x="113.0" y="74.66666666666667"/>
      <point x="101.33333333333333" y="45.33333333333333"/>
      <point x="45.0" y="44.0" type="curve"/>
      <point x="45.0" y="0.0" type="line"/>
      <point x="248.33333333333334" y="0.0" type="line"/>
      <point x="248.33333333333334" y="55.0" type="line"/>
      <point x="227.0" y="54.33333333333333"/>
      <point x="197.0" y="52.666666666666664"/>
      <point x="173.0" y="51.33333333333333" type="curve"/>
      <point x="176.0" y="73.66666666666667"/>
      <point x="176.66666666666666" y="106.0"/>
      <point x="177.33333333333334" y="138.0" type="curve" smooth="yes"/>
      <point x="178.66666666666666" y="248.0"/>
      <point x="183.0" y="393.0"/>
      <point x="185.0" y="477.0" type="curve" smooth="yes"/>
      <point x="185.33333333333334" y="507.0"/>
      <point x="185.33333333333334" y="538.0"/>
      <point x="184.66666666666666" y="573.0" type="curve"/>
      <point x="208.66666666666666" y="496.3333333333333"/>
      <point x="237.0" y="422.0"/>
      <point x="261.0" y="367.0" type="curve" smooth="yes"/>
      <point x="314.0" y="239.66666666666666"/>
      <point x="369.6666666666667" y="115.33333333333333"/>
    </contour>
  </outline>
</glyph>
<glyph name="N" format="2">
  <advance width="765.6666666666666"/>
  <unicode hex="004E"/>
  <anchor x="389.3333333333333" y="0.0" name="bottom"/>
  <anchor x="392.3333333333333" y="700.0" name="top"/>
  <outline>
    <contour>
      <point x="595.3333333333334" y="-14.0" type="line"/>
      <point x="655.6666666666666" y="-14.0" type="line"/>
      <point x="657.0" y="545.0" type="line" smooth="yes"/>
      <point x="657.0" y="619.3333333333334"/>
      <point x="660.3333333333334" y="653.3333333333334"/>
      <point x="725.3333333333334" y="656.0" type="curve"/>
      <point x="725.3333333333334" y="700.0" type="line"/>
      <point x="526.6666666666666" y="700.0" type="line"/>
      <point x="526.6666666666666" y="645.0" type="line"/>
      <point x="547.3333333333334" y="646.0"/>
      <point x="576.6666666666666" y="647.6666666666666"/>
      <point x="599.6666666666666" y="648.6666666666666" type="curve"/>
      <point x="597.6666666666666" y="629.6666666666666"/>
      <point x="596.6666666666666" y="600.6666666666666"/>
      <point x="596.6666666666666" y="570.6666666666666" type="curve" smooth="yes"/>
      <point x="596.0" y="159.66666666666666" type="line"/>
      <point x="595.0" y="159.66666666666666" type="line"/>
      <point x="578.3333333333334" y="182.66666666666666"/>
      <point x="560.0" y="207.0"/>
      <point x="537.6666666666666" y="236.66666666666666" type="curve"/>
      <point x="185.66666666666666" y="700.0" type="line"/>
      <point x="54.0" y="700.0" type="line"/>
      <point x="54.0" y="645.0" type="line"/>
      <point x="73.66666666666667" y="646.0"/>
      <point x="102.0" y="647.6666666666666"/>
      <point x="124.0" y="648.6666666666666" type="curve"/>
      <point x="123.0" y="628.3333333333334"/>
      <point x="122.66666666666667" y="600.6666666666666"/>
      <point x="122.66666666666667" y="574.0" type="curve"/>
      <point x="122.66666666666667" y="125.66666666666667" type="line" smooth="yes"/>
      <point x="122.66666666666667" y="78.0"/>
      <point x="110.66666666666667" y="44.666666666666664"/>
      <point x="55.0" y="44.0" type="curve"/>
      <point x="55.0" y="0.0" type="line"/>
      <point x="253.0" y="0.0" type="line"/>
      <point x="253.0" y="55.0" type="line"/>
      <point x="232.33333333333334" y="54.33333333333333"/>
      <point x="203.0" y="52.666666666666664"/>
      <point x="180.0" y="51.33333333333333" type="curve"/>
      <point x="182.0" y="78.33333333333333"/>
      <point x="182.66666666666666" y="112.66666666666667"/>
      <point x="182.66666666666666" y="147.33333333333334" type="curve" smooth="yes"/>
      <point x="180.0" y="536.0" type="line"/>
      <point x="181.0" y="536.0" type="line"/>
      <point x="195.33333333333334" y="516.3333333333334"/>
      <point x="209.0" y="497.6666666666667"/>
      <point x="222.66666666666666" y="479.6666666666667" type="curve"/>
    </contour>
  </outline>
</glyph>
<glyph name="O" format="2">
  <advance width="785.6666666666666"/>
  <unicode hex="004F"/>
  <anchor x="393.0" y="0.0" name="bottom"/>
  <anchor x="393.0" y="350.0" name="center"/>
  <anchor x="707.3333333333334" y="10.0" name="ogonek"/>
  <anchor x="387.3333333333333" y="700.0" name="top"/>
  <anchor x="20.0" y="700.0" name="topleft"/>
  <anchor x="576.3333333333334" y="700.0" name="topright"/>
  <outline>
    <contour>
      <point x="395.6666666666667" y="-16.0" type="curve" smooth="yes"/>
      <point x="632.0" y="-16.0"/>
      <point x="744.6666666666666" y="184.33333333333334"/>
      <point x="744.6666666666666" y="350.0" type="curve" smooth="yes"/>
      <point x="744.6666666666666" y="517.0"/>
      <point x="635.0" y="716.0"/>
      <point x="391.3333333333333" y="716.0" type="curve" smooth="yes"/>
      <point x="155.0" y="716.0"/>
      <point x="42.333333333333336" y="518.0"/>
      <point x="42.333333333333336" y="350.0" type="curve" smooth="yes"/>
      <point x="42.333333333333336" y="176.0"/>
      <point x="142.0" y="-16.0"/>
    </contour>
    <contour>
      <point x="400.6666666666667" y="35.666666666666664" type="curve" smooth="yes"/>
      <point x="230.66666666666666" y="35.33333333333333"/>
      <point x="160.0" y="225.66666666666666"/>
      <point x="160.0" y="366.0" type="curve" smooth="yes"/>
      <point x="160.0" y="505.6666666666667"/>
      <point x="229.33333333333334" y="664.0"/>
      <point x="385.0" y="665.0" type="curve" smooth="yes"/>
      <point x="542.0" y="666.0"/>
      <point x="625.3333333333334" y="502.0"/>
      <point x="625.3333333333334" y="331.6666666666667" type="curve" smooth="yes"/>
      <point x="625.3333333333334" y="192.66666666666666"/>
      <point x="556.0" y="36.0"/>
    </contour>
  </outline>
</glyph>
<glyph name="P" format="2">
  <advance width="617.0"/>
  <unicode hex="0050"/>
  <outline>
    <contour>
      <point x="53.333333333333336" y="44.0" type="curve"/>
      <point x="53.333333333333336" y="0.0" type="line"/>
      <point x="315.6666666666667" y="0.0" type="line"/>
      <point x="315.6666666666667" y="55.666666666666664" type="line"/>
      <point x="290.3333333333333" y="54.33333333333333"/>
      <point x="253.66666666666666" y="53.33333333333333"/>
      <point x="226.0" y="51.33333333333333" type="curve"/>
      <point x="228.0" y="68.33333333333333"/>
      <point x="229.33333333333334" y="98.0"/>
      <point x="229.33333333333334" y="134.33333333333334" type="curve" smooth="yes"/>
      <point x="229.33333333333334" y="260.3333333333333" type="line"/>
      <point x="245.66666666666666" y="259.3333333333333"/>
      <point x="263.3333333333333" y="259.3333333333333"/>
      <point x="277.3333333333333" y="259.6666666666667" type="curve" smooth="yes"/>
      <point x="523.0" y="261.6666666666667"/>
      <point x="596.3333333333334" y="392.0"/>
      <point x="594.0" y="497.0" type="curve" smooth="yes"/>
      <point x="591.3333333333334" y="635.3333333333334"/>
      <point x="484.0" y="702.3333333333334"/>
      <point x="296.6666666666667" y="702.0" type="curve" smooth="yes"/>
      <point x="213.0" y="701.6666666666666"/>
      <point x="131.66666666666666" y="701.0"/>
      <point x="53.333333333333336" y="700.0" type="curve"/>
      <point x="53.333333333333336" y="645.0" type="line"/>
      <point x="74.0" y="646.0"/>
      <point x="103.33333333333333" y="647.6666666666666"/>
      <point x="126.33333333333333" y="648.6666666666666" type="curve"/>
      <point x="124.33333333333333" y="629.6666666666666"/>
      <point x="123.0" y="600.6666666666666"/>
      <point x="123.0" y="570.6666666666666" type="curve" smooth="yes"/>
      <point x="123.0" y="155.0" type="line" smooth="yes"/>
      <point x="123.0" y="80.66666666666667"/>
      <point x="118.33333333333333" y="46.666666666666664"/>
    </contour>
    <contour>
      <point x="229.33333333333334" y="312.6666666666667" type="curve"/>
      <point x="229.33333333333334" y="547.0" type="line" smooth="yes"/>
      <point x="229.33333333333334" y="617.6666666666666"/>
      <point x="233.66666666666666" y="652.6666666666666"/>
      <point x="295.0" y="652.6666666666666" type="curve" smooth="yes"/>
      <point x="393.0" y="652.6666666666666"/>
      <point x="477.6666666666667" y="616.0"/>
      <point x="477.6666666666667" y="487.3333333333333" type="curve" smooth="yes"/>
      <point x="477.6666666666667" y="375.3333333333333"/>
      <point x="400.3333333333333" y="309.6666666666667"/>
      <point x="287.6666666666667" y="309.6666666666667" type="curve" smooth="yes"/>
      <point x="265.6666666666667" y="309.6666666666667"/>
      <point x="250.66666666666666" y="310.0"/>
    </contour>
  </outline>
</glyph>
<glyph name="Q" format="2">
  <advance width="787.3333333333334"/>
  <unicode hex="0051"/>
  <outline>
    <contour>
      <point x="753.0" y="-218.0" type="curve" smooth="yes"/>
      <point x="788.6666666666666" y="-218.0" type="line"/>
      <point x="788.6666666666666" y="-173.66666666666666" type="line"/>
      <point x="748.0" y="-173.66666666666666"/>
      <point x="728.0" y="-150.33333333333334"/>
      <point x="635.0" y="-64.33333333333333" type="curve" smooth="yes"/>
      <point x="578.3333333333334" y="-11.333333333333334"/>
      <point x="544.0" y="-3.666666666666667"/>
      <point x="491.6666666666667" y="-3.0" type="curve"/>
      <point x="662.3333333333334" y="42.33333333333333"/>
      <point x="744.6666666666666" y="208.33333333333334"/>
      <point x="744.6666666666666" y="350.0" type="curve" smooth="yes"/>
      <point x="744.6666666666666" y="517.0"/>
      <point x="635.3333333333334" y="716.0"/>
      <point x="391.6666666666667" y="716.0" type="curve" smooth="yes"/>
      <point x="155.33333333333334" y="716.0"/>
      <point x="42.666666666666664" y="518.0"/>
      <point x="42.666666666666664" y="350.0" type="curve" smooth="yes"/>
      <point x="42.666666666666664" y="178.0"/>
      <point x="140.0" y="-13.333333333333334"/>
      <point x="388.0" y="-16.0" type="curve" smooth="yes"/>
      <point x="458.3333333333333" y="-16.0"/>
      <point x="494.6666666666667" y="-83.66666666666667"/>
      <point x="583.0" y="-162.66666666666666" type="curve" smooth="yes"/>
      <point x="643.0" y="-216.33333333333334"/>
      <point x="674.3333333333334" y="-218.0"/>
    </contour>
    <contour>
      <point x="400.6666666666667" y="35.666666666666664" type="curve" smooth="yes"/>
      <point x="231.0" y="35.33333333333333"/>
      <point x="160.33333333333334" y="225.66666666666666"/>
      <point x="160.33333333333334" y="366.0" type="curve" smooth="yes"/>
      <point x="160.33333333333334" y="505.6666666666667"/>
      <point x="229.33333333333334" y="664.0"/>
      <point x="385.3333333333333" y="665.0" type="curve" smooth="yes"/>
      <point x="542.3333333333334" y="666.0"/>
      <point x="625.6666666666666" y="502.0"/>
      <point x="625.6666666666666" y="331.6666666666667" type="curve" smooth="yes"/>
      <point x="625.6666666666666" y="192.66666666666666"/>
      <point x="556.0" y="36.0"/>
    </contour>
  </outline>
</glyph>
<glyph name="R" format="2">
  <advance width="647.3333333333334"/>
  <unicode hex="0052"/>
  <anchor x="350.6666666666667" y="0.0" name="bottom"/>
  <anchor x="323.6666666666667" y="700.0" name="top"/>
  <outline>
    <contour>
      <point x="53.333333333333336" y="0.0" type="line"/>
      <point x="302.3333333333333" y="0.0" type="line"/>
      <point x="302.3333333333333" y="55.0" type="line"/>
      <point x="281.6666666666667" y="54.33333333333333"/>
      <point x="249.0" y="52.666666666666664"/>
      <point x="226.0" y="51.33333333333333" type="curve"/>
      <point x="228.0" y="68.33333333333333"/>
      <point x="229.33333333333334" y="98.0"/>
      <point x="229.33333333333334" y="134.33333333333334" type="curve" smooth="yes"/>
      <point x="229.33333333333334" y="299.3333333333333" type="line"/>
      <point x="251.0" y="298.6666666666667"/>
      <point x="270.3333333333333" y="298.0"/>
      <point x="292.0" y="299.3333333333333" type="curve" smooth="yes"/>
      <point x="315.0" y="277.3333333333333"/>
      <point x="333.0" y="244.33333333333334"/>
      <point x="350.6666666666667" y="216.66666666666666" type="curve" smooth="yes"/>
      <point x="420.0" y="105.33333333333333" type="line" smooth="yes"/>
      <point x="447.3333333333333" y="61.666666666666664"/>
      <point x="469.6666666666667" y="28.333333333333336"/>
      <point x="503.6666666666667" y="0.0" type="curve"/>
      <point x="642.6666666666666" y="0.0" type="line"/>
      <point x="642.6666666666666" y="44.0" type="line"/>
      <point x="585.6666666666666" y="44.666666666666664"/>
      <point x="561.3333333333334" y="80.0"/>
      <point x="524.0" y="138.66666666666666" type="curve" smooth="yes"/>
      <point x="463.0" y="233.33333333333334" type="line" smooth="yes"/>
      <point x="440.6666666666667" y="268.3333333333333"/>
      <point x="419.6666666666667" y="296.3333333333333"/>
      <point x="394.0" y="312.6666666666667" type="curve"/>
      <point x="534.3333333333334" y="344.3333333333333"/>
      <point x="577.0" y="430.0"/>
      <point x="577.3333333333334" y="510.3333333333333" type="curve" smooth="yes"/>
      <point x="578.6666666666666" y="637.3333333333334"/>
      <point x="488.0" y="699.6666666666666"/>
      <point x="300.6666666666667" y="701.3333333333334" type="curve" smooth="yes"/>
      <point x="217.66666666666666" y="702.3333333333334"/>
      <point x="135.0" y="701.0"/>
      <point x="53.333333333333336" y="700.0" type="curve"/>
      <point x="53.333333333333336" y="645.0" type="line"/>
      <point x="74.0" y="646.0"/>
      <point x="103.33333333333333" y="647.6666666666666"/>
      <point x="126.33333333333333" y="648.6666666666666" type="curve"/>
      <point x="124.33333333333333" y="629.6666666666666"/>
      <point x="123.0" y="600.6666666666666"/>
      <point x="123.0" y="570.6666666666666" type="curve" smooth="yes"/>
      <point x="123.0" y="155.0" type="line" smooth="yes"/>
      <point x="123.0" y="80.66666666666667"/>
      <point x="118.33333333333333" y="46.666666666666664"/>
      <point x="53.333333333333336" y="44.0" type="curve"/>
    </contour>
    <contour>
      <point x="286.6666666666667" y="348.0" type="curve" smooth="yes"/>
      <point x="265.6666666666667" y="347.3333333333333"/>
      <point x="248.33333333333334" y="348.6666666666667"/>
      <point x="229.33333333333334" y="350.6666666666667" type="curve"/>
      <point x="229.33333333333334" y="547.0" type="line" smooth="yes"/>
      <point x="229.33333333333334" y="617.6666666666666"/>
      <point x="233.66666666666666" y="652.6666666666666"/>
      <point x="297.6666666666667" y="652.6666666666666" type="curve" smooth="yes"/>
      <point x="393.3333333333333" y="652.6666666666666"/>
      <point x="462.3333333333333" y="615.6666666666666"/>
      <point x="462.3333333333333" y="505.6666666666667" type="curve" smooth="yes"/>
      <point x="462.3333333333333" y="395.0"/>
      <point x="396.3333333333333" y="350.6666666666667"/>
    </contour>
  </outline>
</glyph>
<glyph name="S" format="2">
  <advance width="577.3333333333334"/>
  <unicode hex="0053"/>
  <anchor x="307.0" y="0.0" name="bottom"/>
  <anchor x="281.0" y="700.0" name="top"/>
  <outline>
    <contour>
      <point x="450.0" y="484.0" type="curve"/>
      <point x="496.0" y="484.0" type="line"/>
      <point x="496.0" y="708.3333333333334" type="line"/>
      <point x="436.0" y="708.3333333333334" type="line"/>
      <point x="440.0" y="666.0" type="line"/>
      <point x="388.3333333333333" y="703.3333333333334"/>
      <point x="319.3333333333333" y="716.0"/>
      <point x="267.6666666666667" y="716.0" type="curve" smooth="yes"/>
      <point x="100.66666666666667" y="716.0"/>
      <point x="54.333333333333336" y="608.0"/>
      <point x="54.333333333333336" y="535.0" type="curve" smooth="yes"/>
      <point x="54.333333333333336" y="406.6666666666667"/>
      <point x="159.66666666666666" y="354.0"/>
      <point x="270.0" y="306.0" type="curve" smooth="yes"/>
      <point x="352.3333333333333" y="269.3333333333333"/>
      <point x="434.6666666666667" y="234.0"/>
      <point x="434.6666666666667" y="150.66666666666666" type="curve" smooth="yes"/>
      <point x="434.6666666666667" y="79.66666666666667"/>
      <point x="374.3333333333333" y="36.0"/>
      <point x="298.6666666666667" y="36.0" type="curve" smooth="yes"/>
      <point x="196.66666666666666" y="36.0"/>
      <point x="117.0" y="95.66666666666667"/>
      <point x="106.33333333333333" y="211.66666666666666" type="curve"/>
      <point x="58.333333333333336" y="211.66666666666666" type="line"/>
      <point x="62.333333333333336" y="-8.333333333333334" type="line"/>
      <point x="122.66666666666667" y="-8.333333333333334" type="line"/>
      <point x="118.33333333333333" y="34.333333333333336" type="line"/>
      <point x="169.0" y="1.0"/>
      <point x="237.33333333333334" y="-16.0"/>
      <point x="295.0" y="-16.0" type="curve" smooth="yes"/>
      <point x="445.6666666666667" y="-16.0"/>
      <point x="536.3333333333334" y="64.33333333333333"/>
      <point x="536.3333333333334" y="178.0" type="curve" smooth="yes"/>
      <point x="536.3333333333334" y="306.6666666666667"/>
      <point x="420.0" y="360.0"/>
      <point x="318.3333333333333" y="404.0" type="curve" smooth="yes"/>
      <point x="223.66666666666666" y="445.6666666666667"/>
      <point x="152.33333333333334" y="482.0"/>
      <point x="152.33333333333334" y="558.6666666666666" type="curve" smooth="yes"/>
      <point x="152.33333333333334" y="617.3333333333334"/>
      <point x="199.33333333333334" y="665.3333333333334"/>
      <point x="273.6666666666667" y="665.3333333333334" type="curve" smooth="yes"/>
      <point x="382.6666666666667" y="665.6666666666666"/>
      <point x="440.0" y="585.0"/>
    </contour>
  </outline>
</glyph>
<glyph name="T" format="2">
  <advance width="643.3333333333334"/>
  <unicode hex="0054"/>
  <anchor x="321.0" y="0.0" name="bottom"/>
  <anchor x="321.6666666666667" y="350.0" name="center"/>
  <anchor x="321.6666666666667" y="700.0" name="top"/>
  <outline>
    <contour>
      <point x="575.0" y="484.0" type="curve"/>
      <point x="622.3333333333334" y="484.0" type="line"/>
      <point x="616.3333333333334" y="700.0" type="line"/>
      <point x="25.666666666666668" y="700.0" type="line"/>
      <point x="20.0" y="484.0" type="line"/>
      <point x="66.66666666666667" y="484.0" type="line"/>
      <point x="66.66666666666667" y="598.6666666666666"/>
      <point x="103.0" y="651.6666666666666"/>
      <point x="184.33333333333334" y="652.0" type="curve" smooth="yes"/>
      <point x="268.3333333333333" y="652.6666666666666" type="line"/>
      <point x="267.6666666666667" y="155.0" type="line" smooth="yes"/>
      <point x="267.6666666666667" y="82.66666666666667"/>
      <point x="263.6666666666667" y="46.666666666666664"/>
      <point x="198.66666666666666" y="44.0" type="curve"/>
      <point x="198.66666666666666" y="0.0" type="line"/>
      <point x="452.6666666666667" y="0.0" type="line"/>
      <point x="452.6666666666667" y="55.0" type="line"/>
      <point x="429.3333333333333" y="54.33333333333333"/>
      <point x="396.6666666666667" y="52.666666666666664"/>
      <point x="370.6666666666667" y="51.33333333333333" type="curve"/>
      <point x="373.0" y="68.33333333333333"/>
      <point x="374.0" y="98.0"/>
      <point x="374.0" y="134.0" type="curve" smooth="yes"/>
      <point x="374.6666666666667" y="653.6666666666666" type="line"/>
      <point x="447.3333333333333" y="653.6666666666666" type="line" smooth="yes"/>
      <point x="541.3333333333334" y="654.6666666666666"/>
      <point x="573.6666666666666" y="598.6666666666666"/>
    </contour>
  </outline>
</glyph>
<glyph name="V" format="2">
  <advance width="671.3333333333334"/>
  <unicode hex="0056"/>
  <outline>
    <contour>
      <point x="321.3333333333333" y="-8.666666666666666" type="line"/>
      <point x="367.3333333333333" y="-8.666666666666666" type="line"/>
      <point x="520.3333333333334" y="408.6666666666667"/>
      <point x="547.0" y="481.0"/>
      <point x="574.6666666666666" y="555.0" type="curve" smooth="yes"/>
      <point x="601.0" y="628.6666666666666"/>
      <point x="629.0" y="653.3333333333334"/>
      <point x="683.3333333333334" y="656.0" type="curve"/>
      <point x="683.3333333333334" y="700.0" type="line"/>
      <point x="473.0" y="700.0" type="line"/>
      <point x="473.0" y="645.0" type="line"/>
      <point x="495.0" y="646.0"/>
      <point x="525.3333333333334" y="647.6666666666666"/>
      <point x="550.0" y="648.6666666666666" type="curve"/>
      <point x="538.6666666666666" y="631.0"/>
      <point x="527.3333333333334" y="599.0"/>
      <point x="517.0" y="569.0" type="curve" smooth="yes"/>
      <point x="494.6666666666667" y="506.3333333333333"/>
      <point x="465.3333333333333" y="426.6666666666667"/>
      <point x="417.6666666666667" y="292.0" type="curve" smooth="yes"/>
      <point x="398.3333333333333" y="237.33333333333334"/>
      <point x="383.0" y="194.66666666666666"/>
      <point x="368.3333333333333" y="150.66666666666666" type="curve"/>
      <point x="366.6666666666667" y="150.66666666666666" type="line"/>
      <point x="349.0" y="197.66666666666666"/>
      <point x="322.6666666666667" y="258.3333333333333"/>
      <point x="293.6666666666667" y="327.0" type="curve" smooth="yes"/>
      <point x="259.3333333333333" y="408.6666666666667"/>
      <point x="231.33333333333334" y="480.0"/>
      <point x="199.66666666666666" y="557.6666666666666" type="curve" smooth="yes"/>
      <point x="173.66666666666666" y="621.3333333333334"/>
      <point x="191.0" y="653.0"/>
      <point x="252.33333333333334" y="655.3333333333334" type="curve"/>
      <point x="253.0" y="700.0" type="line"/>
      <point x="0.0" y="700.0" type="line"/>
      <point x="0.0" y="645.0" type="line"/>
      <point x="17.333333333333332" y="646.0"/>
      <point x="35.333333333333336" y="646.3333333333334"/>
      <point x="55.333333333333336" y="647.3333333333334" type="curve"/>
      <point x="58.0" y="620.0"/>
      <point x="69.33333333333333" y="581.3333333333334"/>
      <point x="93.33333333333333" y="525.0" type="curve" smooth="yes"/>
    </contour>
  </outline>
</glyph>
<glyph name="W" format="2">
  <advance width="1002.0"/>
  <unicode hex="0057"/>
  <anchor x="518.3333333333334" y="700.0" name="top"/>
  <outline>
    <contour>
      <point x="280.3333333333333" y="-8.666666666666666" type="line"/>
      <point x="328.6666666666667" y="-8.666666666666666" type="line"/>
      <point x="462.0" y="406.3333333333333" type="line"/>
      <point x="473.6666666666667" y="443.3333333333333"/>
      <point x="484.0" y="479.3333333333333"/>
      <point x="493.6666666666667" y="516.6666666666666" type="curve"/>
      <point x="505.3333333333333" y="478.6666666666667"/>
      <point x="515.6666666666666" y="440.0"/>
      <point x="529.6666666666666" y="400.0" type="curve"/>
      <point x="670.3333333333334" y="-8.666666666666666" type="line"/>
      <point x="720.0" y="-8.666666666666666" type="line"/>
      <point x="780.0" y="166.0"/>
      <point x="835.6666666666666" y="341.6666666666667"/>
      <point x="894.3333333333334" y="521.6666666666666" type="curve" smooth="yes"/>
      <point x="931.0" y="629.6666666666666"/>
      <point x="952.0" y="650.0"/>
      <point x="1012.3333333333334" y="656.0" type="curve"/>
      <point x="1012.3333333333334" y="700.0" type="line"/>
      <point x="802.0" y="700.0" type="line"/>
      <point x="802.0" y="645.0" type="line"/>
      <point x="824.6666666666666" y="646.0"/>
      <point x="855.6666666666666" y="647.0"/>
      <point x="881.0" y="648.0" type="curve"/>
      <point x="865.6666666666666" y="625.3333333333334"/>
      <point x="854.6666666666666" y="594.3333333333334"/>
      <point x="846.6666666666666" y="569.0" type="curve" smooth="yes"/>
      <point x="826.3333333333334" y="504.3333333333333"/>
      <point x="811.6666666666666" y="446.6666666666667"/>
      <point x="759.3333333333334" y="291.3333333333333" type="curve" smooth="yes"/>
      <point x="745.0" y="245.0"/>
      <point x="731.3333333333334" y="199.66666666666666"/>
      <point x="719.3333333333334" y="159.33333333333334" type="curve"/>
      <point x="717.0" y="159.33333333333334" type="line"/>
      <point x="701.3333333333334" y="217.66666666666666"/>
      <point x="683.0" y="272.0"/>
      <point x="666.3333333333334" y="327.3333333333333" type="curve" smooth="yes"/>
      <point x="636.3333333333334" y="422.3333333333333"/>
      <point x="575.0" y="601.6666666666666"/>
      <point x="545.6666666666666" y="701.3333333333334" type="curve"/>
      <point x="494.3333333333333" y="701.3333333333334" type="line"/>
      <point x="472.6666666666667" y="627.3333333333334"/>
      <point x="422.3333333333333" y="476.6666666666667"/>
      <point x="374.6666666666667" y="324.0" type="curve" smooth="yes"/>
      <point x="366.0" y="296.3333333333333"/>
      <point x="340.3333333333333" y="210.0"/>
      <point x="328.3333333333333" y="167.66666666666666" type="curve"/>
      <point x="326.6666666666667" y="167.66666666666666" type="line"/>
      <point x="309.3333333333333" y="231.0"/>
      <point x="293.6666666666667" y="271.6666666666667"/>
      <point x="277.0" y="327.0" type="curve" smooth="yes"/>
      <point x="253.0" y="406.3333333333333"/>
      <point x="228.33333333333334" y="474.3333333333333"/>
      <point x="206.33333333333334" y="558.3333333333334" type="curve" smooth="yes"/>
      <point x="185.66666666666666" y="632.0"/>
      <point x="200.66666666666666" y="653.6666666666666"/>
      <point x="269.3333333333333" y="656.0" type="curve"/>
      <point x="269.3333333333333" y="700.0" type="line"/>
      <point x="9.0" y="700.0" type="line"/>
      <point x="9.0" y="645.0" type="line"/>
      <point x="27.333333333333332" y="646.0"/>
      <point x="45.666666666666664" y="646.3333333333334"/>
      <point x="66.66666666666667" y="647.3333333333334" type="curve"/>
      <point x="70.66666666666667" y="620.0"/>
      <point x="82.0" y="585.0"/>
      <point x="101.66666666666667" y="525.6666666666666" type="curve" smooth="yes"/>
    </contour>
  </outline>
</glyph>
<glyph name="X" format="2">
  <advance width="665.6666666666666"/>
  <unicode hex="0058"/>
  <outline>
    <contour>
      <point x="19.666666666666664" y="0.0" type="line"/>
      <point x="223.66666666666666" y="0.0" type="line"/>
      <point x="223.66666666666666" y="55.0" type="line"/>
      <point x="200.33333333333334" y="53.666666666666664"/>
      <point x="170.66666666666666" y="52.33333333333333"/>
      <point x="144.66666666666666" y="50.666666666666664" type="curve"/>
      <point x="172.0" y="81.33333333333333"/>
      <point x="192.33333333333334" y="112.66666666666667"/>
      <point x="217.66666666666666" y="149.33333333333334" type="curve" smooth="yes"/>
      <point x="249.33333333333334" y="196.0"/>
      <point x="281.3333333333333" y="242.33333333333334"/>
      <point x="313.0" y="287.6666666666667" type="curve"/>
      <point x="365.3333333333333" y="216.66666666666666"/>
      <point x="413.0" y="157.0"/>
      <point x="445.0" y="115.33333333333333" type="curve" smooth="yes"/>
      <point x="471.0" y="80.66666666666667"/>
      <point x="481.6666666666667" y="42.0"/>
      <point x="406.0" y="44.0" type="curve"/>
      <point x="406.0" y="0.0" type="line"/>
      <point x="669.0" y="0.0" type="line"/>
      <point x="669.0" y="55.0" type="line"/>
      <point x="651.6666666666666" y="54.33333333333333"/>
      <point x="636.6666666666666" y="54.0"/>
      <point x="616.6666666666666" y="52.666666666666664" type="curve"/>
      <point x="598.0" y="80.66666666666667"/>
      <point x="576.3333333333334" y="110.0"/>
      <point x="553.3333333333334" y="140.0" type="curve" smooth="yes"/>
      <point x="511.6666666666667" y="194.0"/>
      <point x="441.6666666666667" y="284.6666666666667"/>
      <point x="373.3333333333333" y="375.3333333333333" type="curve"/>
      <point x="480.6666666666667" y="525.6666666666666" type="line" smooth="yes"/>
      <point x="526.3333333333334" y="590.0"/>
      <point x="574.3333333333334" y="648.0"/>
      <point x="632.3333333333334" y="656.0" type="curve"/>
      <point x="632.3333333333334" y="700.0" type="line"/>
      <point x="425.3333333333333" y="700.0" type="line"/>
      <point x="425.3333333333333" y="645.0" type="line"/>
      <point x="448.6666666666667" y="646.0"/>
      <point x="480.3333333333333" y="647.6666666666666"/>
      <point x="506.3333333333333" y="648.6666666666666" type="curve"/>
      <point x="486.3333333333333" y="630.6666666666666"/>
      <point x="459.3333333333333" y="593.3333333333334"/>
      <point x="427.3333333333333" y="548.6666666666666" type="curve" smooth="yes"/>
      <point x="338.0" y="421.0" type="line"/>
      <point x="293.3333333333333" y="481.6666666666667"/>
      <point x="251.66666666666666" y="538.6666666666666"/>
      <point x="225.66666666666666" y="578.0" type="curve" smooth="yes"/>
      <point x="200.33333333333334" y="615.3333333333334"/>
      <point x="182.33333333333334" y="652.6666666666666"/>
      <point x="252.0" y="654.6666666666666" type="curve" smooth="yes"/>
      <point x="284.6666666666667" y="656.0" type="line"/>
      <point x="284.6666666666667" y="700.0" type="line"/>
      <point x="10.666666666666666" y="700.0" type="line"/>
      <point x="10.666666666666666" y="645.0" type="line"/>
      <point x="27.333333333333332" y="646.0"/>
      <point x="44.666666666666664" y="646.3333333333334"/>
      <point x="64.0" y="647.3333333333334" type="curve"/>
      <point x="74.0" y="620.3333333333334"/>
      <point x="86.66666666666667" y="596.0"/>
      <point x="111.33333333333333" y="561.3333333333334" type="curve" smooth="yes"/>
      <point x="148.66666666666666" y="510.6666666666667"/>
      <point x="198.33333333333334" y="444.0"/>
      <point x="277.6666666666667" y="335.3333333333333" type="curve"/>
      <point x="152.33333333333334" y="159.66666666666666" type="line" smooth="yes"/>
      <point x="106.0" y="93.66666666666667"/>
      <point x="75.0" y="55.666666666666664"/>
      <point x="19.666666666666664" y="44.0" type="curve"/>
    </contour>
  </outline>
</glyph>
<glyph name="Y" format="2">
  <advance width="645.0"/>
  <unicode hex="0059"/>
  <anchor x="322.6666666666667" y="0.0" name="bottom"/>
  <anchor x="335.6666666666667" y="700.0" name="top"/>
  <anchor x="20.0" y="700.0" name="topleft"/>
  <outline>
    <contour>
      <point x="211.0" y="0.0" type="line"/>
      <point x="465.0" y="0.0" type="line"/>
      <point x="465.0" y="55.0" type="line"/>
      <point x="441.6666666666667" y="54.33333333333333"/>
      <point x="409.0" y="52.666666666666664"/>
      <point x="383.0" y="51.33333333333333" type="curve"/>
      <point x="385.0" y="68.33333333333333"/>
      <point x="386.3333333333333" y="98.0"/>
      <point x="386.3333333333333" y="134.0" type="curve" smooth="yes"/>
      <point x="385.6666666666667" y="147.33333333333334"/>
      <point x="386.3333333333333" y="247.0"/>
      <point x="387.0" y="292.3333333333333" type="curve"/>
      <point x="427.3333333333333" y="369.3333333333333"/>
      <point x="469.3333333333333" y="449.3333333333333"/>
      <point x="514.3333333333334" y="534.3333333333334" type="curve" smooth="yes"/>
      <point x="558.0" y="615.3333333333334"/>
      <point x="590.6666666666666" y="651.0"/>
      <point x="650.3333333333334" y="656.0" type="curve"/>
      <point x="650.3333333333334" y="700.0" type="line"/>
      <point x="440.6666666666667" y="700.0" type="line"/>
      <point x="440.6666666666667" y="645.0" type="line"/>
      <point x="462.6666666666667" y="646.0"/>
      <point x="494.3333333333333" y="647.0"/>
      <point x="519.0" y="648.3333333333334" type="curve"/>
      <point x="500.3333333333333" y="627.0"/>
      <point x="479.3333333333333" y="586.6666666666666"/>
      <point x="469.3333333333333" y="567.0" type="curve"/>
      <point x="395.3333333333333" y="425.6666666666667" type="line"/>
      <point x="378.0" y="391.3333333333333"/>
      <point x="363.3333333333333" y="363.0"/>
      <point x="351.0" y="338.3333333333333" type="curve"/>
      <point x="349.3333333333333" y="338.3333333333333" type="line"/>
      <point x="329.6666666666667" y="370.0"/>
      <point x="306.0" y="407.3333333333333"/>
      <point x="291.0" y="432.0" type="curve"/>
      <point x="212.33333333333334" y="557.6666666666666" type="line"/>
      <point x="175.0" y="618.6666666666666"/>
      <point x="186.66666666666666" y="657.3333333333334"/>
      <point x="267.3333333333333" y="656.0" type="curve"/>
      <point x="267.3333333333333" y="700.0" type="line"/>
      <point x="-3.0" y="700.0" type="line"/>
      <point x="-3.0" y="645.0" type="line"/>
      <point x="16.0" y="646.0"/>
      <point x="33.333333333333336" y="646.3333333333334"/>
      <point x="54.666666666666664" y="647.3333333333334" type="curve"/>
      <point x="58.0" y="623.3333333333334"/>
      <point x="74.33333333333333" y="586.0"/>
      <point x="103.33333333333333" y="540.3333333333334" type="curve" smooth="yes"/>
      <point x="280.6666666666667" y="260.0" type="line"/>
      <point x="280.0" y="155.0" type="line" smooth="yes"/>
      <point x="280.0" y="82.66666666666667"/>
      <point x="276.0" y="46.666666666666664"/>
      <point x="211.0" y="44.0" type="curve"/>
    </contour>
  </outline>
</glyph>
<glyph name="Z" format="2">
  <advance width="608.0"/>
  <unicode hex="005A"/>
  <anchor x="308.0" y="700.0" name="top"/>
  <outline>
    <contour>
      <point x="42.0" y="0.0" type="line"/>
      <point x="555.6666666666666" y="0.0" type="line"/>
      <point x="561.6666666666666" y="208.0" type="line"/>
      <point x="517.0" y="208.0" type="line"/>
      <point x="517.0" y="97.0"/>
      <point x="455.0" y="49.666666666666664"/>
      <point x="371.6666666666667" y="49.33333333333333" type="curve" smooth="yes"/>
      <point x="148.66666666666666" y="48.0" type="line"/>
      <point x="172.66666666666666" y="72.66666666666666"/>
      <point x="194.0" y="100.33333333333333"/>
      <point x="222.66666666666666" y="143.0" type="curve" smooth="yes"/>
      <point x="558.0" y="651.6666666666666" type="line"/>
      <point x="558.0" y="700.0" type="line"/>
      <point x="57.666666666666664" y="700.0" type="line"/>
      <point x="51.666666666666664" y="491.0" type="line"/>
      <point x="96.33333333333333" y="491.0" type="line"/>
      <point x="96.33333333333333" y="603.0"/>
      <point x="140.0" y="649.6666666666666"/>
      <point x="217.33333333333334" y="651.0" type="curve" smooth="yes"/>
      <point x="444.3333333333333" y="651.6666666666666" type="line"/>
      <point x="419.3333333333333" y="622.3333333333334"/>
      <point x="399.3333333333333" y="591.6666666666666"/>
      <point x="378.3333333333333" y="559.0" type="curve" smooth="yes"/>
      <point x="235.0" y="333.0"/>
      <point x="125.33333333333333" y="176.33333333333334"/>
      <point x="42.0" y="55.666666666666664" type="curve"/>
    </contour>
  </outline>
</glyph>
<glyph name="bracketleft" format="2">
  <advance width="368.0"/>
  <unicode hex="005B"/>
  <outline>
    <contour>
      <point x="73.33333333333333" y="-255.0" type="line"/>
      <point x="359.6666666666667" y="-255.0" type="line"/>
      <point x="359.6666666666667" y="-191.33333333333334" type="line"/>
      <point x="162.66666666666666" y="-188.33333333333334" type="line"/>
      <point x="167.33333333333334" y="688.3333333333334" type="line"/>
      <point x="357.6666666666667" y="691.3333333333334" type="line"/>
      <point x="357.6666666666667" y="755.0" type="line"/>
      <point x="74.33333333333333" y="755.0" type="line"/>
    </contour>
  </outline>
</glyph>
<glyph name="asciicircum" format="2">
  <advance width="823.0"/>
  <unicode hex="005E"/>
  <outline>
    <contour>
      <point x="658.6666666666666" y="437.0" type="line"/>
      <point x="763.0" y="437.0" type="line"/>
      <point x="457.0" y="716.0" type="line"/>
      <point x="368.0" y="716.0" type="line"/>
      <point x="60.0" y="441.0" type="line"/>
      <point x="158.33333333333334" y="441.0" type="line"/>
      <point x="408.6666666666667" y="668.3333333333334" type="line"/>
    </contour>
  </outline>
</glyph>
<glyph name="underscore" format="2">
  <advance width="763.3333333333334"/>
  <unicode hex="005F"/>
  <outline>
    <contour>
      <point x="74.0" y="-125.66666666666667" type="line"/>
      <point x="689.0" y="-125.66666666666667" type="line"/>
      <point x="689.0" y="-54.0" type="line"/>
      <point x="74.0" y="-50.0" type="line"/>
    </contour>
  </outline>
</glyph>
<glyph name="grave" format="2">
  <advance width="262.0"/>
  <unicode hex="0060"/>
  <anchor x="131.0" y="500.0" name="_top"/>
  <outline>
    <contour>
      <point x="183.33333333333334" y="575.0" type="line"/>
      <point x="217.33333333333334" y="604.0" type="line"/>
      <point x="134.0" y="740.6666666666666" type="line" smooth="yes"/>
      <point x="107.0" y="780.3333333333334"/>
      <point x="73.33333333333333" y="772.3333333333334"/>
      <point x="59.666666666666664" y="761.3333333333334" type="curve" smooth="yes"/>
      <point x="43.666666666666664" y="747.0"/>
      <point x="35.333333333333336" y="714.6666666666666"/>
      <point x="68.33333333333333" y="681.0" type="curve" smooth="yes"/>
    </contour>
  </outline>
</glyph>
<glyph name="a" format="2">
  <advance width="518.6666666666666"/>
  <unicode hex="0061"/>
  <anchor x="259.3333333333333" y="0.0" name="bottom"/>
  <anchor x="470.0" y="5.0" name="ogonek"/>
  <anchor x="251.33333333333334" y="522.0" name="top"/>
  <outline>
    <contour>
      <point x="338.3333333333333" y="0.0" type="curve"/>
      <point x="496.6666666666667" y="0.0" type="line"/>
      <point x="496.6666666666667" y="53.33333333333333" type="line"/>
      <point x="476.0" y="52.666666666666664"/>
      <point x="451.0" y="51.0"/>
      <point x="427.6666666666667" y="49.666666666666664" type="curve"/>
      <point x="430.6666666666667" y="77.66666666666667"/>
      <point x="431.6666666666667" y="104.0"/>
      <point x="431.6666666666667" y="124.33333333333333" type="curve" smooth="yes"/>
      <point x="431.6666666666667" y="197.0"/>
      <point x="432.6666666666667" y="256.3333333333333"/>
      <point x="432.6666666666667" y="329.0" type="curve" smooth="yes"/>
      <point x="433.3333333333333" y="458.6666666666667"/>
      <point x="376.0" y="516.0"/>
      <point x="262.3333333333333" y="516.0" type="curve" smooth="yes"/>
      <point x="146.66666666666666" y="516.0"/>
      <point x="60.0" y="463.0"/>
      <point x="60.0" y="392.0" type="curve" smooth="yes"/>
      <point x="60.0" y="362.0"/>
      <point x="77.33333333333333" y="337.0"/>
      <point x="109.33333333333333" y="336.6666666666667" type="curve" smooth="yes"/>
      <point x="147.0" y="335.6666666666667"/>
      <point x="161.66666666666666" y="365.6666666666667"/>
      <point x="161.66666666666666" y="385.3333333333333" type="curve" smooth="yes"/>
      <point x="161.66666666666666" y="396.6666666666667"/>
      <point x="159.0" y="412.0"/>
      <point x="149.0" y="423.3333333333333" type="curve"/>
      <point x="167.33333333333334" y="454.3333333333333"/>
      <point x="206.33333333333334" y="467.6666666666667"/>
      <point x="241.0" y="467.3333333333333" type="curve" smooth="yes"/>
      <point x="317.3333333333333" y="466.6666666666667"/>
      <point x="329.0" y="408.3333333333333"/>
      <point x="329.0" y="345.0" type="curve" smooth="yes"/>
      <point x="329.0" y="286.3333333333333" type="line"/>
      <point x="195.66666666666666" y="285.6666666666667"/>
      <point x="32.666666666666664" y="232.0"/>
      <point x="32.666666666666664" y="107.66666666666667" type="curve" smooth="yes"/>
      <point x="32.666666666666664" y="37.666666666666664"/>
      <point x="82.0" y="-16.0"/>
      <point x="178.0" y="-16.0" type="curve" smooth="yes"/>
      <point x="234.66666666666666" y="-16.0"/>
      <point x="287.0" y="8.0"/>
      <point x="332.3333333333333" y="53.333333333333336" type="curve"/>
      <point x="334.0" y="35.0"/>
      <point x="334.6666666666667" y="21.666666666666668"/>
    </contour>
    <contour>
      <point x="328.6666666666667" y="240.0" type="curve"/>
      <point x="328.6666666666667" y="200.66666666666666"/>
      <point x="328.0" y="165.0"/>
      <point x="328.0" y="153.0" type="curve" smooth="yes"/>
      <point x="328.0" y="136.0"/>
      <point x="328.0" y="120.33333333333333"/>
      <point x="328.6666666666667" y="106.0" type="curve"/>
      <point x="295.0" y="74.0"/>
      <point x="260.3333333333333" y="54.666666666666664"/>
      <point x="214.33333333333334" y="54.666666666666664" type="curve" smooth="yes"/>
      <point x="177.33333333333334" y="54.666666666666664"/>
      <point x="145.0" y="75.66666666666667"/>
      <point x="143.33333333333334" y="121.33333333333333" type="curve" smooth="yes"/>
      <point x="141.0" y="203.0"/>
      <point x="242.33333333333334" y="235.66666666666666"/>
    </contour>
  </outline>
</glyph>
<glyph name="b" format="2">
  <advance width="579.0"/>
  <unicode hex="0062"/>
  <outline>
    <contour>
      <point x="71.66666666666667" y="605.0" type="curve" smooth="yes"/>
      <point x="70.33333333333333" y="0.0" type="line"/>
      <point x="113.66666666666667" y="0.0" type="line"/>
      <point x="139.66666666666666" y="44.666666666666664" type="line"/>
      <point x="183.33333333333334" y="-4.0"/>
      <point x="244.0" y="-16.0"/>
      <point x="286.0" y="-16.0" type="curve" smooth="yes"/>
      <point x="426.3333333333333" y="-16.0"/>
      <point x="540.3333333333334" y="94.66666666666667"/>
      <point x="540.3333333333334" y="262.3333333333333" type="curve" smooth="yes"/>
      <point x="540.3333333333334" y="417.6666666666667"/>
      <point x="447.0" y="516.0"/>
      <point x="321.6666666666667" y="516.0" type="curve" smooth="yes"/>
      <point x="266.3333333333333" y="516.0"/>
      <point x="215.66666666666666" y="496.6666666666667"/>
      <point x="176.0" y="458.6666666666667" type="curve"/>
      <point x="176.0" y="755.0" type="line"/>
      <point x="138.66666666666666" y="755.0" type="line"/>
      <point x="124.0" y="741.3333333333334"/>
      <point x="93.66666666666667" y="727.0"/>
      <point x="4.0" y="727.0" type="curve"/>
      <point x="4.0" y="673.6666666666666" type="line"/>
      <point x="24.666666666666668" y="674.6666666666666"/>
      <point x="51.666666666666664" y="676.3333333333334"/>
      <point x="74.66666666666667" y="677.3333333333334" type="curve"/>
      <point x="71.66666666666667" y="649.6666666666666"/>
      <point x="71.66666666666667" y="627.0"/>
    </contour>
    <contour>
      <point x="176.0" y="154.66666666666666" type="curve" smooth="yes"/>
      <point x="176.0" y="401.0" type="line"/>
      <point x="202.0" y="432.0"/>
      <point x="243.33333333333334" y="453.0"/>
      <point x="283.6666666666667" y="453.3333333333333" type="curve" smooth="yes"/>
      <point x="378.6666666666667" y="454.0"/>
      <point x="422.6666666666667" y="361.0"/>
      <point x="422.6666666666667" y="240.66666666666666" type="curve" smooth="yes"/>
      <point x="422.6666666666667" y="123.66666666666667"/>
      <point x="373.0" y="34.666666666666664"/>
      <point x="279.0" y="35.666666666666664" type="curve" smooth="yes"/>
      <point x="226.66666666666666" y="36.0"/>
      <point x="176.0" y="61.33333333333333"/>
    </contour>
  </outline>
</glyph>
<glyph name="c" format="2">
  <advance width="527.3333333333334"/>
  <unicode hex="0063"/>
  <anchor x="332.3333333333333" y="0.0" name="bottom"/>
  <anchor x="294.6666666666667" y="500.0" name="top"/>
  <outline>
    <contour>
      <point x="284.3333333333333" y="-16.0" type="curve" smooth="yes"/>
      <point x="354.0" y="-16.0"/>
      <point x="440.6666666666667" y="14.333333333333334"/>
      <point x="500.3333333333333" y="103.0" type="curve"/>
      <point x="467.6666666666667" y="131.33333333333334" type="line"/>
      <point x="434.0" y="83.33333333333333"/>
      <point x="373.0" y="47.666666666666664"/>
      <point x="313.0" y="48.33333333333333" type="curve" smooth="yes"/>
      <point x="211.66666666666666" y="49.666666666666664"/>
      <point x="154.33333333333334" y="144.0"/>
      <point x="154.33333333333334" y="266.6666666666667" type="curve" smooth="yes"/>
      <point x="154.33333333333334" y="396.3333333333333"/>
      <point x="216.33333333333334" y="466.6666666666667"/>
      <point x="298.3333333333333" y="468.0" type="curve" smooth="yes"/>
      <point x="323.0" y="468.3333333333333"/>
      <point x="376.3333333333333" y="462.0"/>
      <point x="392.6666666666667" y="421.0" type="curve"/>
      <point x="382.0" y="408.3333333333333"/>
      <point x="378.6666666666667" y="392.3333333333333"/>
      <point x="378.6666666666667" y="379.6666666666667" type="curve" smooth="yes"/>
      <point x="378.6666666666667" y="359.0"/>
      <point x="392.3333333333333" y="327.0"/>
      <point x="432.0" y="328.0" type="curve" smooth="yes"/>
      <point x="466.3333333333333" y="328.3333333333333"/>
      <point x="485.6666666666667" y="356.0"/>
      <point x="485.6666666666667" y="388.3333333333333" type="curve" smooth="yes"/>
      <point x="485.6666666666667" y="455.0"/>
      <point x="414.6666666666667" y="516.0"/>
      <point x="298.3333333333333" y="516.0" type="curve" smooth="yes"/>
      <point x="143.66666666666666" y="516.0"/>
      <point x="37.666666666666664" y="382.6666666666667"/>
      <point x="37.666666666666664" y="240.33333333333334" type="curve" smooth="yes"/>
      <point x="37.666666666666664" y="78.33333333333333"/>
      <point x="149.33333333333334" y="-16.0"/>
    </contour>
  </outline>
</glyph>
<glyph name="e" format="2">
  <advance width="540.6666666666666"/>
  <unicode hex="0065"/>
  <anchor x="329.0" y="0.0" name="bottom"/>
  <anchor x="390.6666666666667" y="5.0" name="ogonek"/>
  <anchor x="281.3333333333333" y="500.0" name="top"/>
  <outline>
    <contour>
      <point x="283.3333333333333" y="-16.0" type="curve" smooth="yes"/>
      <point x="351.3333333333333" y="-16.0"/>
      <point x="445.0" y="11.0"/>
      <point x="505.6666666666667" y="100.66666666666667" type="curve"/>
      <point x="474.6666666666667" y="128.0" type="line"/>
      <point x="436.6666666666667" y="78.0"/>
      <point x="367.6666666666667" y="47.666666666666664"/>
      <point x="313.0" y="47.666666666666664" type="curve" smooth="yes"/>
      <point x="200.33333333333334" y="47.666666666666664"/>
      <point x="155.33333333333334" y="142.0"/>
      <point x="156.0" y="280.3333333333333" type="curve"/>
      <point x="500.0" y="286.3333333333333" type="line"/>
      <point x="500.6666666666667" y="450.0"/>
      <point x="400.6666666666667" y="516.0"/>
      <point x="289.6666666666667" y="516.0" type="curve" smooth="yes"/>
      <point x="138.66666666666666" y="516.0"/>
      <point x="38.333333333333336" y="389.0"/>
      <point x="38.333333333333336" y="249.0" type="curve" smooth="yes"/>
      <point x="38.333333333333336" y="87.0"/>
      <point x="142.33333333333334" y="-16.0"/>
    </contour>
    <contour>
      <point x="160.0" y="331.6666666666667" type="line"/>
      <point x="174.0" y="422.6666666666667"/>
      <point x="220.33333333333334" y="466.6666666666667"/>
      <point x="292.0" y="466.6666666666667" type="curve" smooth="yes"/>
      <point x="359.6666666666667" y="466.6666666666667"/>
      <point x="390.6666666666667" y="406.6666666666667"/>
      <point x="391.3333333333333" y="331.6666666666667" type="curve"/>
    </contour>
  </outline>
</glyph>
<glyph name="f" format="2">
  <advance width="348.3333333333333"/>
  <unicode hex="0066"/>
  <outline>
    <contour>
      <point x="105.66666666666667" y="523.6666666666666" type="curve" smooth="yes"/>
      <point x="105.66666666666667" y="500.0" type="line"/>
      <point x="26.666666666666668" y="500.0" type="line"/>
      <point x="26.666666666666668" y="442.3333333333333" type="line"/>
      <point x="105.66666666666667" y="444.0" type="line"/>
      <point x="106.33333333333333" y="152.66666666666666" type="line" smooth="yes"/>
      <point x="106.33333333333333" y="87.0"/>
      <point x="106.33333333333333" y="41.666666666666664"/>
      <point x="47.0" y="41.666666666666664" type="curve"/>
      <point x="47.0" y="0.0" type="line"/>
      <point x="272.0" y="0.0" type="line"/>
      <point x="272.0" y="52.666666666666664" type="line"/>
      <point x="253.33333333333334" y="52.0"/>
      <point x="228.0" y="51.0"/>
      <point x="206.66666666666666" y="49.666666666666664" type="curve"/>
      <point x="210.33333333333334" y="75.0"/>
      <point x="210.66666666666666" y="100.66666666666666"/>
      <point x="210.66666666666666" y="125.0" type="curve" smooth="yes"/>
      <point x="209.66666666666666" y="445.3333333333333" type="line"/>
      <point x="336.6666666666667" y="448.3333333333333" type="line"/>
      <point x="336.6666666666667" y="500.0" type="line"/>
      <point x="209.33333333333334" y="500.0" type="line"/>
      <point x="209.33333333333334" y="611.0" type="line" smooth="yes"/>
      <point x="209.33333333333334" y="658.6666666666666"/>
      <point x="223.0" y="710.6666666666666"/>
      <point x="275.3333333333333" y="711.0" type="curve" smooth="yes"/>
      <point x="286.6666666666667" y="711.0"/>
      <point x="302.6666666666667" y="707.3333333333334"/>
      <point x="311.6666666666667" y="697.0" type="curve"/>
      <point x="308.3333333333333" y="688.6666666666666"/>
      <point x="307.6666666666667" y="681.3333333333334"/>
      <point x="307.6666666666667" y="673.6666666666666" type="curve" smooth="yes"/>
      <point x="307.6666666666667" y="652.3333333333334"/>
      <point x="322.3333333333333" y="626.3333333333334"/>
      <point x="356.6666666666667" y="627.3333333333334" type="curve" smooth="yes"/>
      <point x="387.3333333333333" y="627.6666666666666"/>
      <point x="404.6666666666667" y="651.3333333333334"/>
      <point x="404.6666666666667" y="679.6666666666666" type="curve" smooth="yes"/>
      <point x="404.6666666666667" y="728.0"/>
      <point x="351.0" y="758.3333333333334"/>
      <point x="291.0" y="758.3333333333334" type="curve" smooth="yes"/>
      <point x="163.0" y="758.3333333333334"/>
      <point x="105.66666666666667" y="676.0"/>
    </contour>
  </outline>
</glyph>
<glyph name="g" format="2">
  <advance width="554.3333333333334"/>
  <unicode hex="0067"/>
  <anchor x="263.6666666666667" y="500.0" name="top"/>
  <outline>
    <contour>
      <point x="275.3333333333333" y="-271.0" type="curve" smooth="yes"/>
      <point x="398.3333333333333" y="-271.0"/>
      <point x="533.0" y="-211.0"/>
      <point x="533.0" y="-101.0" type="curve" smooth="yes"/>
      <point x="533.0" y="9.666666666666666"/>
      <point x="437.3333333333333" y="44.333333333333336"/>
      <point x="283.6666666666667" y="52.0" type="curve" smooth="yes"/>
      <point x="191.0" y="56.333333333333336"/>
      <point x="141.66666666666666" y="61.333333333333336"/>
      <point x="135.0" y="91.0" type="curve" smooth="yes"/>
      <point x="128.33333333333334" y="119.33333333333333"/>
      <point x="160.66666666666666" y="141.66666666666666"/>
      <point x="203.0" y="141.66666666666666" type="curve" smooth="yes"/>
      <point x="227.0" y="141.66666666666666"/>
      <point x="245.0" y="137.33333333333334"/>
      <point x="267.6666666666667" y="137.33333333333334" type="curve" smooth="yes"/>
      <point x="381.3333333333333" y="137.33333333333334"/>
      <point x="484.0" y="218.0"/>
      <point x="484.0" y="332.0" type="curve" smooth="yes"/>
      <point x="484.0" y="379.3333333333333"/>
      <point x="463.0" y="423.3333333333333"/>
      <point x="429.0" y="454.3333333333333" type="curve"/>
      <point x="434.6666666666667" y="481.6666666666667"/>
      <point x="452.6666666666667" y="515.0"/>
      <point x="481.3333333333333" y="520.0" type="curve"/>
      <point x="485.3333333333333" y="499.3333333333333"/>
      <point x="503.3333333333333" y="483.6666666666667"/>
      <point x="525.3333333333334" y="483.6666666666667" type="curve" smooth="yes"/>
      <point x="562.6666666666666" y="482.6666666666667"/>
      <point x="574.6666666666666" y="513.3333333333334"/>
      <point x="574.6666666666666" y="531.3333333333334" type="curve" smooth="yes"/>
      <point x="574.6666666666666" y="565.0"/>
      <point x="554.0" y="586.0"/>
      <point x="516.3333333333334" y="586.0" type="curve" smooth="yes"/>
      <point x="460.0" y="586.0"/>
      <point x="414.0" y="538.6666666666666"/>
      <point x="393.3333333333333" y="481.0" type="curve"/>
      <point x="357.0" y="504.6666666666667"/>
      <point x="309.6666666666667" y="516.0"/>
      <point x="269.0" y="516.0" type="curve" smooth="yes"/>
      <point x="161.33333333333334" y="516.0"/>
      <point x="52.333333333333336" y="435.6666666666667"/>
      <point x="54.0" y="315.6666666666667" type="curve" smooth="yes"/>
      <point x="54.666666666666664" y="247.0"/>
      <point x="94.66666666666667" y="194.33333333333334"/>
      <point x="154.0" y="167.66666666666666" type="curve"/>
      <point x="90.33333333333333" y="153.33333333333334"/>
      <point x="55.0" y="105.66666666666667"/>
      <point x="55.0" y="63.0" type="curve" smooth="yes"/>
      <point x="55.0" y="22.333333333333332"/>
      <point x="78.66666666666667" y="-4.666666666666666"/>
      <point x="125.66666666666667" y="-19.0" type="curve"/>
      <point x="75.0" y="-39.333333333333336"/>
      <point x="32.666666666666664" y="-83.0"/>
      <point x="32.666666666666664" y="-137.33333333333334" type="curve" smooth="yes"/>
      <point x="32.666666666666664" y="-204.0"/>
      <point x="97.0" y="-271.0"/>
    </contour>
    <contour>
      <point x="284.3333333333333" y="-222.0" type="curve" smooth="yes"/>
      <point x="187.66666666666666" y="-222.0"/>
      <point x="125.33333333333333" y="-182.33333333333334"/>
      <point x="126.33333333333333" y="-120.33333333333333" type="curve" smooth="yes"/>
      <point x="126.66666666666667" y="-86.66666666666667"/>
      <point x="144.33333333333334" y="-54.0"/>
      <point x="175.0" y="-32.666666666666664" type="curve"/>
      <point x="206.0" y="-37.666666666666664"/>
      <point x="243.66666666666666" y="-39.333333333333336"/>
      <point x="277.6666666666667" y="-40.666666666666664" type="curve" smooth="yes"/>
      <point x="384.0" y="-44.0"/>
      <point x="453.6666666666667" y="-61.0"/>
      <point x="453.6666666666667" y="-124.0" type="curve" smooth="yes"/>
      <point x="453.6666666666667" y="-174.33333333333334"/>
      <point x="391.6666666666667" y="-222.0"/>
    </contour>
    <contour>
      <point x="271.0" y="183.66666666666666" type="curve" smooth="yes"/>
      <point x="202.66666666666666" y="183.66666666666666"/>
      <point x="164.0" y="249.33333333333334"/>
      <point x="164.0" y="337.0" type="curve" smooth="yes"/>
      <point x="164.0" y="410.6666666666667"/>
      <point x="201.66666666666666" y="470.3333333333333"/>
      <point x="267.3333333333333" y="470.3333333333333" type="curve" smooth="yes"/>
      <point x="337.6666666666667" y="470.3333333333333"/>
      <point x="372.6666666666667" y="394.6666666666667"/>
      <point x="372.6666666666667" y="312.6666666666667" type="curve" smooth="yes"/>
      <point x="372.6666666666667" y="242.33333333333334"/>
      <point x="338.3333333333333" y="183.66666666666666"/>
    </contour>
  </outline>
</glyph>
<glyph name="h" format="2">
  <advance width="606.3333333333334"/>
  <unicode hex="0068"/>
  <anchor x="303.6666666666667" y="250.0" name="center"/>
  <anchor x="156.0" y="703.3333333333334" name="top"/>
  <outline>
    <contour>
      <point x="356.3333333333333" y="41.666666666666664" type="curve"/>
      <point x="356.3333333333333" y="0.0" type="line"/>
      <point x="580.0" y="0.0" type="line"/>
      <point x="580.0" y="52.666666666666664" type="line"/>
      <point x="561.0" y="52.0"/>
      <point x="537.3333333333334" y="51.0"/>
      <point x="516.3333333333334" y="49.666666666666664" type="curve"/>
      <point x="520.0" y="75.0"/>
      <point x="520.3333333333334" y="100.0"/>
      <point x="520.3333333333334" y="124.33333333333333" type="curve" smooth="yes"/>
      <point x="519.6666666666666" y="293.0" type="line" smooth="yes"/>
      <point x="518.6666666666666" y="446.3333333333333"/>
      <point x="471.3333333333333" y="516.0"/>
      <point x="353.3333333333333" y="516.0" type="curve" smooth="yes"/>
      <point x="301.6666666666667" y="516.0"/>
      <point x="237.66666666666666" y="488.3333333333333"/>
      <point x="195.33333333333334" y="453.3333333333333" type="curve"/>
      <point x="195.33333333333334" y="755.0" type="line"/>
      <point x="158.0" y="755.0" type="line"/>
      <point x="143.33333333333334" y="741.3333333333334"/>
      <point x="113.0" y="727.0"/>
      <point x="23.333333333333332" y="727.0" type="curve"/>
      <point x="23.333333333333332" y="673.6666666666666" type="line"/>
      <point x="44.0" y="674.6666666666666"/>
      <point x="71.0" y="676.3333333333334"/>
      <point x="94.0" y="677.3333333333334" type="curve"/>
      <point x="91.0" y="649.6666666666666"/>
      <point x="90.66666666666667" y="627.0"/>
      <point x="90.66666666666667" y="605.0" type="curve" smooth="yes"/>
      <point x="90.66666666666667" y="152.66666666666666" type="line" smooth="yes"/>
      <point x="90.66666666666667" y="87.0"/>
      <point x="90.33333333333333" y="41.666666666666664"/>
      <point x="31.0" y="41.666666666666664" type="curve"/>
      <point x="31.0" y="0.0" type="line"/>
      <point x="254.33333333333334" y="0.0" type="line"/>
      <point x="254.33333333333334" y="52.666666666666664" type="line"/>
      <point x="235.66666666666666" y="52.0"/>
      <point x="212.0" y="51.0"/>
      <point x="190.66666666666666" y="49.666666666666664" type="curve"/>
      <point x="194.33333333333334" y="75.0"/>
      <point x="195.33333333333334" y="100.0"/>
      <point x="195.33333333333334" y="124.33333333333333" type="curve" smooth="yes"/>
      <point x="195.33333333333334" y="396.3333333333333" type="line"/>
      <point x="222.0" y="427.0"/>
      <point x="268.6666666666667" y="449.3333333333333"/>
      <point x="312.3333333333333" y="450.0" type="curve" smooth="yes"/>
      <point x="383.6666666666667" y="450.6666666666667"/>
      <point x="415.3333333333333" y="398.3333333333333"/>
      <point x="415.3333333333333" y="293.3333333333333" type="curve" smooth="yes"/>
      <point x="415.6666666666667" y="152.66666666666666" type="line" smooth="yes"/>
      <point x="415.6666666666667" y="87.0"/>
      <point x="415.6666666666667" y="41.666666666666664"/>
    </contour>
  </outline>
</glyph>
<glyph name="l" format="2">
  <advance width="285.3333333333333"/>
  <unicode hex="006C"/>
  <anchor x="155.33333333333334" y="0.0" name="bottom"/>
  <anchor x="142.66666666666666" y="701.3333333333334" name="top"/>
  <anchor x="275.3333333333333" y="500.0" name="topright"/>
  <outline>
    <contour>
      <point x="31.0" y="41.666666666666664" type="curve"/>
      <point x="31.0" y="0.0" type="line"/>
      <point x="254.33333333333334" y="0.0" type="line"/>
      <point x="254.33333333333334" y="52.666666666666664" type="line"/>
      <point x="235.66666666666666" y="52.0"/>
      <point x="212.0" y="51.0"/>
      <point x="190.66666666666666" y="49.666666666666664" type="curve"/>
      <point x="194.33333333333334" y="75.0"/>
      <point x="195.33333333333334" y="100.0"/>
      <point x="195.33333333333334" y="124.33333333333333" type="curve" smooth="yes"/>
      <point x="194.66666666666666" y="755.0" type="line"/>
      <point x="157.33333333333334" y="755.0" type="line"/>
      <point x="142.66666666666666" y="741.3333333333334"/>
      <point x="112.33333333333333" y="727.0"/>
      <point x="22.666666666666668" y="727.0" type="curve"/>
      <point x="22.666666666666668" y="673.6666666666666" type="line"/>
      <point x="43.333333333333336" y="674.6666666666666"/>
      <point x="70.33333333333333" y="676.3333333333334"/>
      <point x="93.33333333333333" y="677.3333333333334" type="curve"/>
      <point x="90.33333333333333" y="649.6666666666666"/>
      <point x="90.0" y="627.0"/>
      <point x="90.0" y="605.0" type="curve" smooth="yes"/>
      <point x="90.0" y="152.66666666666666" type="line" smooth="yes"/>
      <point x="90.0" y="87.0"/>
      <point x="90.33333333333333" y="41.666666666666664"/>
    </contour>
  </outline>
</glyph>
<glyph name="m" format="2">
  <advance width="902.6666666666666"/>
  <unicode hex="006D"/>
  <outline>
    <contour>
      <point x="43.0" y="0.0" type="line"/>
      <point x="264.6666666666667" y="0.0" type="line"/>
      <point x="264.6666666666667" y="52.666666666666664" type="line"/>
      <point x="246.0" y="52.0"/>
      <point x="223.66666666666666" y="51.0"/>
      <point x="202.66666666666666" y="49.666666666666664" type="curve"/>
      <point x="206.33333333333334" y="75.0"/>
      <point x="206.66666666666666" y="100.0"/>
      <point x="206.66666666666666" y="124.33333333333333" type="curve" smooth="yes"/>
      <point x="206.66666666666666" y="354.3333333333333" type="line" smooth="yes"/>
      <point x="206.66666666666666" y="373.3333333333333"/>
      <point x="206.0" y="390.6666666666667"/>
      <point x="206.0" y="407.0" type="curve"/>
      <point x="232.0" y="432.3333333333333"/>
      <point x="270.0" y="451.3333333333333"/>
      <point x="309.0" y="451.3333333333333" type="curve" smooth="yes"/>
      <point x="376.6666666666667" y="451.6666666666667"/>
      <point x="407.0" y="403.0"/>
      <point x="406.3333333333333" y="298.0" type="curve" smooth="yes"/>
      <point x="406.0" y="152.66666666666666" type="line" smooth="yes"/>
      <point x="405.3333333333333" y="87.0"/>
      <point x="406.0" y="41.666666666666664"/>
      <point x="348.3333333333333" y="41.666666666666664" type="curve"/>
      <point x="348.3333333333333" y="0.0" type="line"/>
      <point x="570.3333333333334" y="0.0" type="line"/>
      <point x="570.3333333333334" y="52.666666666666664" type="line"/>
      <point x="551.3333333333334" y="52.0"/>
      <point x="527.6666666666666" y="51.0"/>
      <point x="506.6666666666667" y="49.666666666666664" type="curve"/>
      <point x="510.3333333333333" y="75.0"/>
      <point x="510.6666666666667" y="100.0"/>
      <point x="510.6666666666667" y="124.33333333333333" type="curve" smooth="yes"/>
      <point x="511.3333333333333" y="191.33333333333334"/>
      <point x="511.3333333333333" y="258.6666666666667"/>
      <point x="512.0" y="325.6666666666667" type="curve" smooth="yes"/>
      <point x="512.0" y="355.0"/>
      <point x="509.0" y="382.3333333333333"/>
      <point x="502.3333333333333" y="406.0" type="curve"/>
      <point x="530.3333333333334" y="431.0"/>
      <point x="569.6666666666666" y="450.0"/>
      <point x="609.3333333333334" y="449.6666666666667" type="curve" smooth="yes"/>
      <point x="677.0" y="449.6666666666667"/>
      <point x="710.3333333333334" y="402.0"/>
      <point x="710.6666666666666" y="297.0" type="curve" smooth="yes"/>
      <point x="710.6666666666666" y="152.66666666666666" type="line" smooth="yes"/>
      <point x="710.6666666666666" y="87.0"/>
      <point x="710.6666666666666" y="41.666666666666664"/>
      <point x="654.6666666666666" y="41.666666666666664" type="curve"/>
      <point x="654.6666666666666" y="0.0" type="line"/>
      <point x="875.0" y="0.0" type="line"/>
      <point x="875.0" y="52.666666666666664" type="line"/>
      <point x="856.3333333333334" y="52.0"/>
      <point x="832.3333333333334" y="51.0"/>
      <point x="811.3333333333334" y="49.666666666666664" type="curve"/>
      <point x="815.0" y="75.0"/>
      <point x="815.3333333333334" y="100.0"/>
      <point x="815.3333333333334" y="124.33333333333333" type="curve" smooth="yes"/>
      <point x="816.0" y="297.3333333333333" type="line" smooth="yes"/>
      <point x="818.0" y="453.6666666666667"/>
      <point x="763.3333333333334" y="516.0"/>
      <point x="650.0" y="516.0" type="curve" smooth="yes"/>
      <point x="594.3333333333334" y="516.0"/>
      <point x="531.0" y="487.3333333333333"/>
      <point x="485.0" y="449.3333333333333" type="curve"/>
      <point x="460.3333333333333" y="491.3333333333333"/>
      <point x="417.3333333333333" y="516.0"/>
      <point x="352.3333333333333" y="516.0" type="curve" smooth="yes"/>
      <point x="302.0" y="516.0"/>
      <point x="246.66666666666666" y="492.0"/>
      <point x="205.0" y="458.0" type="curve"/>
      <point x="204.0" y="477.6666666666667"/>
      <point x="203.0" y="496.6666666666667"/>
      <point x="201.0" y="510.0" type="curve"/>
      <point x="165.33333333333334" y="510.0" type="line"/>
      <point x="150.66666666666666" y="496.3333333333333"/>
      <point x="124.66666666666667" y="482.0"/>
      <point x="35.333333333333336" y="482.0" type="curve"/>
      <point x="35.333333333333336" y="428.6666666666667" type="line"/>
      <point x="56.0" y="429.6666666666667"/>
      <point x="83.0" y="431.3333333333333"/>
      <point x="106.0" y="432.3333333333333" type="curve"/>
      <point x="102.33333333333333" y="407.0"/>
      <point x="102.0" y="382.6666666666667"/>
      <point x="102.0" y="360.6666666666667" type="curve" smooth="yes"/>
      <point x="102.0" y="152.66666666666666" type="line" smooth="yes"/>
      <point x="102.0" y="87.0"/>
      <point x="102.0" y="41.666666666666664"/>
      <point x="43.0" y="41.666666666666664" type="curve"/>
    </contour>
  </outline>
</glyph>
<glyph name="n" format="2">
  <advance width="616.6666666666666"/>
  <unicode hex="006E"/>
  <anchor x="321.6666666666667" y="0.0" name="bottom"/>
  <anchor x="327.3333333333333" y="500.0" name="top"/>
  <outline>
    <contour>
      <point x="43.0" y="0.0" type="line"/>
      <point x="266.3333333333333" y="0.0" type="line"/>
      <point x="266.3333333333333" y="52.666666666666664" type="line"/>
      <point x="247.66666666666666" y="52.0"/>
      <point x="223.66666666666666" y="51.0"/>
      <point x="202.66666666666666" y="49.666666666666664" type="curve"/>
      <point x="206.33333333333334" y="75.0"/>
      <point x="206.66666666666666" y="100.0"/>
      <point x="206.66666666666666" y="124.33333333333333" type="curve" smooth="yes"/>
      <point x="207.33333333333334" y="350.6666666666667" type="line" smooth="yes"/>
      <point x="207.33333333333334" y="366.3333333333333"/>
      <point x="207.33333333333334" y="382.0"/>
      <point x="206.66666666666666" y="395.6666666666667" type="curve"/>
      <point x="234.0" y="427.0"/>
      <point x="279.3333333333333" y="450.6666666666667"/>
      <point x="322.3333333333333" y="451.3333333333333" type="curve" smooth="yes"/>
      <point x="394.6666666666667" y="452.0"/>
      <point x="425.3333333333333" y="398.3333333333333"/>
      <point x="426.0" y="293.3333333333333" type="curve" smooth="yes"/>
      <point x="426.3333333333333" y="152.66666666666666" type="line" smooth="yes"/>
      <point x="426.3333333333333" y="87.0"/>
      <point x="426.3333333333333" y="41.666666666666664"/>
      <point x="367.0" y="41.666666666666664" type="curve"/>
      <point x="367.0" y="0.0" type="line"/>
      <point x="590.3333333333334" y="0.0" type="line"/>
      <point x="590.3333333333334" y="52.666666666666664" type="line"/>
      <point x="571.6666666666666" y="52.0"/>
      <point x="548.0" y="51.0"/>
      <point x="526.6666666666666" y="49.666666666666664" type="curve"/>
      <point x="530.3333333333334" y="75.0"/>
      <point x="530.6666666666666" y="100.0"/>
      <point x="530.6666666666666" y="124.33333333333333" type="curve" smooth="yes"/>
      <point x="530.6666666666666" y="293.0" type="line" smooth="yes"/>
      <point x="530.6666666666666" y="446.3333333333333"/>
      <point x="481.0" y="516.0"/>
      <point x="363.0" y="516.0" type="curve" smooth="yes"/>
      <point x="311.0" y="516.0"/>
      <point x="248.0" y="488.3333333333333"/>
      <point x="206.33333333333334" y="452.6666666666667" type="curve"/>
      <point x="203.66666666666666" y="480.3333333333333"/>
      <point x="204.33333333333334" y="491.3333333333333"/>
      <point x="201.66666666666666" y="510.0" type="curve"/>
      <point x="166.0" y="510.0" type="line"/>
      <point x="151.33333333333334" y="496.3333333333333"/>
      <point x="125.33333333333333" y="482.0"/>
      <point x="36.0" y="482.0" type="curve"/>
      <point x="36.0" y="428.6666666666667" type="line"/>
      <point x="56.666666666666664" y="429.6666666666667"/>
      <point x="83.66666666666667" y="431.3333333333333"/>
      <point x="106.66666666666667" y="432.3333333333333" type="curve"/>
      <point x="103.0" y="407.0"/>
      <point x="102.66666666666667" y="382.6666666666667"/>
      <point x="102.66666666666667" y="360.6666666666667" type="curve" smooth="yes"/>
      <point x="102.0" y="152.66666666666666" type="line" smooth="yes"/>
      <point x="101.33333333333333" y="87.0"/>
      <point x="102.0" y="41.666666666666664"/>
      <point x="43.0" y="41.666666666666664" type="curve"/>
    </contour>
  </outline>
</glyph>
<glyph name="o" format="2">
  <advance width="578.6666666666666"/>
  <unicode hex="006F"/>
  <anchor x="289.6666666666667" y="0.0" name="bottom"/>
  <anchor x="289.6666666666667" y="250.0" name="center"/>
  <anchor x="520.3333333333334" y="10.0" name="ogonek"/>
  <anchor x="289.0" y="500.0" name="top"/>
  <anchor x="449.3333333333333" y="500.0" name="topright"/>
  <outline>
    <contour>
      <point x="290.0" y="-16.0" type="curve" smooth="yes"/>
      <point x="433.3333333333333" y="-16.0"/>
      <point x="541.0" y="101.66666666666667"/>
      <point x="541.0" y="261.0" type="curve" smooth="yes"/>
      <point x="541.0" y="411.0"/>
      <point x="430.0" y="516.0"/>
      <point x="289.0" y="516.0" type="curve" smooth="yes"/>
      <point x="148.66666666666666" y="516.0"/>
      <point x="37.666666666666664" y="399.0"/>
      <point x="37.666666666666664" y="238.33333333333334" type="curve" smooth="yes"/>
      <point x="37.666666666666664" y="87.33333333333333"/>
      <point x="148.33333333333334" y="-16.0"/>
    </contour>
    <contour>
      <point x="296.6666666666667" y="34.33333333333333" type="curve" smooth="yes"/>
      <point x="198.66666666666666" y="33.666666666666664"/>
      <point x="154.66666666666666" y="150.0"/>
      <point x="154.66666666666666" y="266.6666666666667" type="curve" smooth="yes"/>
      <point x="154.66666666666666" y="368.3333333333333"/>
      <point x="192.33333333333334" y="466.6666666666667"/>
      <point x="288.3333333333333" y="467.3333333333333" type="curve" smooth="yes"/>
      <point x="386.6666666666667" y="468.0"/>
      <point x="423.6666666666667" y="346.3333333333333"/>
      <point x="423.6666666666667" y="233.33333333333334" type="curve" smooth="yes"/>
      <point x="423.6666666666667" y="134.33333333333334"/>
      <point x="393.0" y="34.666666666666664"/>
    </contour>
  </outline>
</glyph>
<glyph name="p" format="2">
  <advance width="598.3333333333334"/>
  <unicode hex="0070"/>
  <outline>
    <contour>
      <point x="33.666666666666664" y="-255.0" type="line"/>
      <point x="257.0" y="-255.0" type="line"/>
      <point x="257.0" y="-202.33333333333334" type="line"/>
      <point x="238.33333333333334" y="-203.0"/>
      <point x="214.66666666666666" y="-204.0"/>
      <point x="193.66666666666666" y="-205.33333333333334" type="curve"/>
      <point x="197.0" y="-180.0"/>
      <point x="197.33333333333334" y="-155.0"/>
      <point x="197.33333333333334" y="-130.66666666666666" type="curve" smooth="yes"/>
      <point x="197.33333333333334" y="12.0" type="line"/>
      <point x="228.33333333333334" y="-5.666666666666667"/>
      <point x="263.6666666666667" y="-16.0"/>
      <point x="307.0" y="-16.0" type="curve" smooth="yes"/>
      <point x="446.6666666666667" y="-16.0"/>
      <point x="559.6666666666666" y="98.66666666666667"/>
      <point x="559.6666666666666" y="266.3333333333333" type="curve" smooth="yes"/>
      <point x="559.6666666666666" y="420.3333333333333"/>
      <point x="463.0" y="516.0"/>
      <point x="345.6666666666667" y="516.0" type="curve" smooth="yes"/>
      <point x="294.6666666666667" y="516.0"/>
      <point x="239.66666666666666" y="495.3333333333333"/>
      <point x="197.33333333333334" y="458.0" type="curve"/>
      <point x="196.33333333333334" y="477.3333333333333"/>
      <point x="194.33333333333334" y="496.6666666666667"/>
      <point x="193.0" y="510.0" type="curve"/>
      <point x="156.66666666666666" y="510.0" type="line"/>
      <point x="142.66666666666666" y="496.3333333333333"/>
      <point x="117.0" y="482.0"/>
      <point x="27.333333333333332" y="482.0" type="curve"/>
      <point x="27.333333333333332" y="428.6666666666667" type="line"/>
      <point x="48.333333333333336" y="429.6666666666667"/>
      <point x="75.0" y="431.3333333333333"/>
      <point x="98.33333333333333" y="432.3333333333333" type="curve"/>
      <point x="94.66666666666667" y="407.0"/>
      <point x="94.33333333333333" y="382.6666666666667"/>
      <point x="94.33333333333333" y="360.6666666666667" type="curve" smooth="yes"/>
      <point x="93.0" y="-102.33333333333333" type="line" smooth="yes"/>
      <point x="92.33333333333333" y="-168.0"/>
      <point x="93.0" y="-213.33333333333334"/>
      <point x="33.666666666666664" y="-213.33333333333334" type="curve"/>
    </contour>
    <contour>
      <point x="300.3333333333333" y="35.666666666666664" type="curve" smooth="yes"/>
      <point x="261.3333333333333" y="35.33333333333333"/>
      <point x="224.66666666666666" y="47.666666666666664"/>
      <point x="198.0" y="67.66666666666667" type="curve"/>
      <point x="198.66666666666666" y="313.0"/>
      <point x="198.66666666666666" y="357.3333333333333"/>
      <point x="198.0" y="401.3333333333333" type="curve"/>
      <point x="222.66666666666666" y="430.0"/>
      <point x="262.0" y="453.0"/>
      <point x="303.6666666666667" y="453.3333333333333" type="curve" smooth="yes"/>
      <point x="402.0" y="454.0"/>
      <point x="442.0" y="353.0"/>
      <point x="442.0" y="250.66666666666666" type="curve" smooth="yes"/>
      <point x="442.0" y="129.66666666666666"/>
      <point x="394.3333333333333" y="36.33333333333333"/>
    </contour>
  </outline>
</glyph>
<glyph name="q" format="2">
  <advance width="575.0"/>
  <unicode hex="0071"/>
  <outline>
    <contour>
      <point x="341.3333333333333" y="-255.0" type="line"/>
      <point x="564.6666666666666" y="-255.0" type="line"/>
      <point x="564.6666666666666" y="-202.33333333333334" type="line"/>
      <point x="546.0" y="-203.0"/>
      <point x="522.0" y="-204.0"/>
      <point x="501.0" y="-205.33333333333334" type="curve"/>
      <point x="504.6666666666667" y="-180.0"/>
      <point x="505.0" y="-155.0"/>
      <point x="505.0" y="-130.66666666666666" type="curve" smooth="yes"/>
      <point x="504.3333333333333" y="510.0" type="line"/>
      <point x="467.6666666666667" y="510.0" type="line"/>
      <point x="457.6666666666667" y="498.6666666666667"/>
      <point x="444.0" y="494.0"/>
      <point x="430.6666666666667" y="494.0" type="curve" smooth="yes"/>
      <point x="399.3333333333333" y="494.0"/>
      <point x="355.3333333333333" y="516.0"/>
      <point x="293.3333333333333" y="516.0" type="curve" smooth="yes"/>
      <point x="148.33333333333334" y="516.0"/>
      <point x="38.666666666666664" y="403.3333333333333"/>
      <point x="38.666666666666664" y="238.33333333333334" type="curve" smooth="yes"/>
      <point x="38.666666666666664" y="83.66666666666667"/>
      <point x="132.0" y="-16.0"/>
      <point x="255.33333333333334" y="-16.0" type="curve" smooth="yes"/>
      <point x="313.6666666666667" y="-16.0"/>
      <point x="363.0" y="4.333333333333334"/>
      <point x="400.6666666666667" y="44.666666666666664" type="curve"/>
      <point x="400.3333333333333" y="-102.33333333333333" type="line" smooth="yes"/>
      <point x="400.3333333333333" y="-168.0"/>
      <point x="400.3333333333333" y="-213.33333333333334"/>
      <point x="341.3333333333333" y="-213.33333333333334" type="curve"/>
    </contour>
    <contour>
      <point x="296.6666666666667" y="46.666666666666664" type="curve" smooth="yes"/>
      <point x="205.0" y="46.666666666666664"/>
      <point x="156.66666666666666" y="145.66666666666666"/>
      <point x="156.33333333333334" y="259.3333333333333" type="curve" smooth="yes"/>
      <point x="155.66666666666666" y="376.6666666666667"/>
      <point x="204.0" y="466.6666666666667"/>
      <point x="298.0" y="467.0" type="curve" smooth="yes"/>
      <point x="366.3333333333333" y="467.0"/>
      <point x="400.3333333333333" y="436.0"/>
      <point x="400.3333333333333" y="357.6666666666667" type="curve" smooth="yes"/>
      <point x="400.3333333333333" y="105.0" type="line"/>
      <point x="376.6666666666667" y="70.33333333333333"/>
      <point x="337.0" y="46.666666666666664"/>
    </contour>
  </outline>
</glyph>
<glyph name="r" format="2">
  <advance width="448.6666666666667"/>
  <unicode hex="0072"/>
  <anchor x="224.66666666666666" y="0.0" name="bottom"/>
  <anchor x="266.0" y="500.0" name="top"/>
  <outline>
    <contour>
      <point x="43.0" y="41.666666666666664" type="curve"/>
      <point x="43.0" y="0.0" type="line"/>
      <point x="267.0" y="0.0" type="line"/>
      <point x="267.0" y="52.666666666666664" type="line"/>
      <point x="248.33333333333334" y="52.0"/>
      <point x="224.33333333333334" y="51.0"/>
      <point x="203.33333333333334" y="49.666666666666664" type="curve"/>
      <point x="207.0" y="75.0"/>
      <point x="207.33333333333334" y="100.0"/>
      <point x="207.33333333333334" y="124.33333333333333" type="curve" smooth="yes"/>
      <point x="206.66666666666666" y="342.6666666666667" type="line"/>
      <point x="234.0" y="398.3333333333333"/>
      <point x="286.3333333333333" y="449.0"/>
      <point x="333.6666666666667" y="447.6666666666667" type="curve"/>
      <point x="332.3333333333333" y="413.0"/>
      <point x="357.0" y="391.6666666666667"/>
      <point x="385.3333333333333" y="391.0" type="curve" smooth="yes"/>
      <point x="426.3333333333333" y="390.0"/>
      <point x="442.0" y="425.0"/>
      <point x="442.0" y="446.3333333333333" type="curve" smooth="yes"/>
      <point x="442.0" y="495.0"/>
      <point x="406.6666666666667" y="516.0"/>
      <point x="366.3333333333333" y="516.0" type="curve" smooth="yes"/>
      <point x="302.3333333333333" y="516.0"/>
      <point x="243.33333333333334" y="470.0"/>
      <point x="205.66666666666666" y="415.3333333333333" type="curve"/>
      <point x="205.0" y="456.6666666666667"/>
      <point x="203.0" y="491.3333333333333"/>
      <point x="201.0" y="510.0" type="curve"/>
      <point x="165.33333333333334" y="510.0" type="line"/>
      <point x="150.66666666666666" y="496.3333333333333"/>
      <point x="124.66666666666667" y="482.0"/>
      <point x="69.33333333333333" y="482.0" type="curve" smooth="yes"/>
      <point x="35.333333333333336" y="482.0" type="line"/>
      <point x="35.333333333333336" y="429.3333333333333" type="line"/>
      <point x="56.0" y="430.3333333333333"/>
      <point x="83.0" y="431.3333333333333"/>
      <point x="106.0" y="432.3333333333333" type="curve"/>
      <point x="102.33333333333333" y="407.0"/>
      <point x="102.0" y="382.6666666666667"/>
      <point x="102.0" y="360.6666666666667" type="curve" smooth="yes"/>
      <point x="102.0" y="152.66666666666666" type="line" smooth="yes"/>
      <point x="102.0" y="87.0"/>
      <point x="102.0" y="41.666666666666664"/>
    </contour>
  </outline>
</glyph>
<glyph name="s" format="2">
  <advance width="470.3333333333333"/>
  <unicode hex="0073"/>
  <anchor x="268.6666666666667" y="0.0" name="bottom"/>
  <anchor x="231.0" y="500.0" name="top"/>
  <outline>
    <contour>
      <point x="256.3333333333333" y="-16.0" type="curve" smooth="yes"/>
      <point x="344.0" y="-16.0"/>
      <point x="432.3333333333333" y="31.333333333333332"/>
      <point x="432.3333333333333" y="133.33333333333334" type="curve" smooth="yes"/>
      <point x="432.3333333333333" y="224.66666666666666"/>
      <point x="354.0" y="262.6666666666667"/>
      <point x="269.6666666666667" y="295.6666666666667" type="curve" smooth="yes"/>
      <point x="200.0" y="322.0"/>
      <point x="138.33333333333334" y="342.6666666666667"/>
      <point x="138.33333333333334" y="399.6666666666667" type="curve" smooth="yes"/>
      <point x="138.33333333333334" y="439.0"/>
      <point x="173.0" y="468.0"/>
      <point x="225.66666666666666" y="468.0" type="curve" smooth="yes"/>
      <point x="306.3333333333333" y="468.0"/>
      <point x="349.3333333333333" y="404.3333333333333"/>
      <point x="356.0" y="335.3333333333333" type="curve"/>
      <point x="399.0" y="335.3333333333333" type="line"/>
      <point x="399.0" y="511.0" type="line"/>
      <point x="345.6666666666667" y="511.0" type="line"/>
      <point x="347.0" y="476.0" type="line"/>
      <point x="309.0" y="505.6666666666667"/>
      <point x="260.3333333333333" y="516.0"/>
      <point x="224.33333333333334" y="516.0" type="curve" smooth="yes"/>
      <point x="90.66666666666667" y="516.0"/>
      <point x="47.666666666666664" y="428.6666666666667"/>
      <point x="47.666666666666664" y="365.6666666666667" type="curve" smooth="yes"/>
      <point x="47.666666666666664" y="262.3333333333333"/>
      <point x="140.33333333333334" y="231.0"/>
      <point x="221.33333333333334" y="199.66666666666666" type="curve" smooth="yes"/>
      <point x="287.6666666666667" y="173.33333333333334"/>
      <point x="338.3333333333333" y="153.33333333333334"/>
      <point x="338.6666666666667" y="103.33333333333333" type="curve" smooth="yes"/>
      <point x="338.6666666666667" y="55.666666666666664"/>
      <point x="287.3333333333333" y="34.0"/>
      <point x="242.33333333333334" y="34.0" type="curve" smooth="yes"/>
      <point x="162.66666666666666" y="34.0"/>
      <point x="96.66666666666667" y="89.33333333333333"/>
      <point x="92.0" y="165.0" type="curve"/>
      <point x="49.666666666666664" y="165.0" type="line"/>
      <point x="55.0" y="-7.0" type="line"/>
      <point x="108.33333333333333" y="-7.0" type="line"/>
      <point x="105.0" y="26.333333333333332" type="line"/>
      <point x="137.33333333333334" y="3.3333333333333335"/>
      <point x="192.33333333333334" y="-16.0"/>
    </contour>
  </outline>
</glyph>
<glyph name="u" format="2">
  <advance width="604.0"/>
  <unicode hex="0075"/>
  <anchor x="302.3333333333333" y="0.0" name="bottom"/>
  <anchor x="576.0" y="0.0" name="ogonek"/>
  <anchor x="302.6666666666667" y="500.0" name="top"/>
  <anchor x="560.0" y="500.0" name="topright"/>
  <outline>
    <contour>
      <point x="252.66666666666666" y="-16.0" type="curve" smooth="yes"/>
      <point x="312.6666666666667" y="-16.0"/>
      <point x="370.3333333333333" y="18.333333333333332"/>
      <point x="411.3333333333333" y="57.333333333333336" type="curve"/>
      <point x="412.6666666666667" y="39.666666666666664"/>
      <point x="414.6666666666667" y="21.0"/>
      <point x="418.0" y="0.0" type="curve"/>
      <point x="576.6666666666666" y="0.0" type="line"/>
      <point x="576.6666666666666" y="53.33333333333333" type="line"/>
      <point x="556.0" y="52.666666666666664"/>
      <point x="530.0" y="51.0"/>
      <point x="507.0" y="49.666666666666664" type="curve"/>
      <point x="510.0" y="77.66666666666667"/>
      <point x="511.0" y="121.33333333333333"/>
      <point x="511.0" y="141.66666666666666" type="curve" smooth="yes"/>
      <point x="511.6666666666667" y="510.0" type="line"/>
      <point x="474.0" y="510.0" type="line"/>
      <point x="459.6666666666667" y="496.6666666666667"/>
      <point x="428.0" y="482.0"/>
      <point x="369.0" y="482.0" type="curve" smooth="yes"/>
      <point x="340.3333333333333" y="482.0" type="line"/>
      <point x="340.3333333333333" y="429.3333333333333" type="line"/>
      <point x="361.0" y="430.3333333333333"/>
      <point x="388.6666666666667" y="431.3333333333333"/>
      <point x="411.6666666666667" y="432.3333333333333" type="curve"/>
      <point x="408.0" y="407.0"/>
      <point x="407.0" y="382.0"/>
      <point x="407.0" y="352.6666666666667" type="curve" smooth="yes"/>
      <point x="407.0" y="116.0" type="line"/>
      <point x="380.6666666666667" y="80.0"/>
      <point x="334.3333333333333" y="49.33333333333333"/>
      <point x="289.6666666666667" y="48.666666666666664" type="curve" smooth="yes"/>
      <point x="220.33333333333334" y="48.0"/>
      <point x="194.0" y="99.0"/>
      <point x="194.0" y="204.66666666666666" type="curve" smooth="yes"/>
      <point x="194.0" y="510.0" type="line"/>
      <point x="156.33333333333334" y="510.0" type="line"/>
      <point x="141.66666666666666" y="496.3333333333333"/>
      <point x="112.0" y="482.0"/>
      <point x="46.333333333333336" y="482.0" type="curve" smooth="yes"/>
      <point x="22.333333333333332" y="482.0" type="line"/>
      <point x="22.333333333333332" y="429.3333333333333" type="line"/>
      <point x="42.333333333333336" y="430.3333333333333"/>
      <point x="69.33333333333333" y="431.3333333333333"/>
      <point x="91.66666666666667" y="432.3333333333333" type="curve"/>
      <point x="88.33333333333333" y="407.0"/>
      <point x="88.0" y="382.0"/>
      <point x="88.0" y="360.0" type="curve" smooth="yes"/>
      <point x="88.0" y="203.0" type="line" smooth="yes"/>
      <point x="88.0" y="41.666666666666664"/>
      <point x="140.0" y="-16.0"/>
    </contour>
  </outline>
</glyph>
<glyph name="v" format="2">
  <advance width="516.0"/>
  <unicode hex="0076"/>
  <outline>
    <contour>
      <point x="231.66666666666666" y="-3.0" type="line"/>
      <point x="287.3333333333333" y="-3.0" type="line"/>
      <point x="417.3333333333333" y="328.6666666666667" type="line" smooth="yes"/>
      <point x="446.0" y="402.0"/>
      <point x="468.0" y="456.0"/>
      <point x="513.0" y="458.6666666666667" type="curve"/>
      <point x="513.0" y="500.0" type="line"/>
      <point x="344.3333333333333" y="500.0" type="line"/>
      <point x="344.3333333333333" y="447.3333333333333" type="line"/>
      <point x="407.6666666666667" y="450.6666666666667" type="line"/>
      <point x="399.6666666666667" y="435.6666666666667"/>
      <point x="388.0" y="413.3333333333333"/>
      <point x="376.6666666666667" y="381.0" type="curve" smooth="yes"/>
      <point x="309.0" y="194.33333333333334" type="line" smooth="yes"/>
      <point x="301.0" y="170.33333333333334"/>
      <point x="291.6666666666667" y="145.66666666666666"/>
      <point x="283.6666666666667" y="123.0" type="curve"/>
      <point x="282.6666666666667" y="123.0" type="line"/>
      <point x="272.3333333333333" y="149.0"/>
      <point x="262.3333333333333" y="174.66666666666666"/>
      <point x="252.0" y="198.66666666666666" type="curve" smooth="yes"/>
      <point x="183.33333333333334" y="358.6666666666667" type="line" smooth="yes"/>
      <point x="162.0" y="410.6666666666667"/>
      <point x="152.0" y="458.0"/>
      <point x="206.66666666666666" y="458.6666666666667" type="curve"/>
      <point x="206.66666666666666" y="500.0" type="line"/>
      <point x="6.0" y="500.0" type="line"/>
      <point x="6.0" y="447.3333333333333" type="line"/>
      <point x="47.0" y="450.0" type="line"/>
      <point x="49.333333333333336" y="426.6666666666667"/>
      <point x="54.333333333333336" y="397.0"/>
      <point x="83.66666666666667" y="330.0" type="curve" smooth="yes"/>
    </contour>
  </outline>
</glyph>
<glyph name="w" format="2">
  <advance width="804.3333333333334"/>
  <unicode hex="0077"/>
  <anchor x="406.0" y="500.0" name="top"/>
  <outline>
    <contour>
      <point x="208.33333333333334" y="-3.0" type="line"/>
      <point x="266.6666666666667" y="-3.0" type="line"/>
      <point x="347.6666666666667" y="234.0" type="line"/>
      <point x="358.0" y="264.6666666666667"/>
      <point x="375.6666666666667" y="319.0"/>
      <point x="387.3333333333333" y="361.0" type="curve"/>
      <point x="399.0" y="323.6666666666667"/>
      <point x="412.6666666666667" y="280.6666666666667"/>
      <point x="423.0" y="250.0" type="curve"/>
      <point x="509.3333333333333" y="-3.0" type="line"/>
      <point x="571.3333333333334" y="-3.0" type="line"/>
      <point x="705.3333333333334" y="370.0" type="line" smooth="yes"/>
      <point x="719.6666666666666" y="410.0"/>
      <point x="739.0" y="456.0"/>
      <point x="802.6666666666666" y="458.6666666666667" type="curve"/>
      <point x="802.6666666666666" y="500.0" type="line"/>
      <point x="623.3333333333334" y="500.0" type="line"/>
      <point x="623.3333333333334" y="447.3333333333333" type="line"/>
      <point x="681.0" y="450.6666666666667" type="line"/>
      <point x="669.0" y="432.6666666666667"/>
      <point x="661.0" y="409.3333333333333"/>
      <point x="651.3333333333334" y="379.3333333333333" type="curve" smooth="yes"/>
      <point x="594.3333333333334" y="210.33333333333334" type="line"/>
      <point x="585.0" y="182.66666666666666"/>
      <point x="574.6666666666666" y="151.33333333333334"/>
      <point x="566.3333333333334" y="123.33333333333333" type="curve"/>
      <point x="556.6666666666666" y="152.33333333333334"/>
      <point x="547.0" y="184.66666666666666"/>
      <point x="537.0" y="214.0" type="curve"/>
      <point x="443.0" y="500.0" type="line"/>
      <point x="379.3333333333333" y="500.0" type="line"/>
      <point x="295.6666666666667" y="239.66666666666666" type="line"/>
      <point x="282.6666666666667" y="198.33333333333334"/>
      <point x="272.3333333333333" y="163.66666666666666"/>
      <point x="262.0" y="130.33333333333334" type="curve"/>
      <point x="253.0" y="162.33333333333334"/>
      <point x="243.66666666666666" y="195.66666666666666"/>
      <point x="233.66666666666666" y="226.66666666666666" type="curve"/>
      <point x="191.66666666666666" y="360.6666666666667" type="line" smooth="yes"/>
      <point x="173.33333333333334" y="417.0"/>
      <point x="174.0" y="456.6666666666667"/>
      <point x="228.0" y="458.6666666666667" type="curve"/>
      <point x="228.0" y="500.0" type="line"/>
      <point x="6.666666666666667" y="500.0" type="line"/>
      <point x="6.666666666666667" y="447.3333333333333" type="line"/>
      <point x="55.0" y="450.0" type="line"/>
      <point x="59.333333333333336" y="431.3333333333333"/>
      <point x="64.66666666666667" y="413.6666666666667"/>
      <point x="80.66666666666667" y="368.6666666666667" type="curve" smooth="yes"/>
    </contour>
  </outline>
</glyph>
<glyph name="x" format="2">
  <advance width="536.0"/>
  <unicode hex="0078"/>
  <outline>
    <contour>
      <point x="29.333333333333332" y="0.0" type="line"/>
      <point x="196.66666666666666" y="0.0" type="line"/>
      <point x="196.66666666666666" y="52.666666666666664" type="line"/>
      <point x="130.0" y="49.33333333333333" type="line"/>
      <point x="147.33333333333334" y="66.33333333333333"/>
      <point x="160.0" y="81.66666666666667"/>
      <point x="175.66666666666666" y="102.66666666666667" type="curve" smooth="yes"/>
      <point x="247.33333333333334" y="198.0" type="line"/>
      <point x="337.3333333333333" y="90.33333333333333" type="line" smooth="yes"/>
      <point x="364.0" y="58.0"/>
      <point x="351.0" y="42.0"/>
      <point x="315.6666666666667" y="41.33333333333333" type="curve"/>
      <point x="315.6666666666667" y="0.0" type="line"/>
      <point x="523.0" y="0.0" type="line"/>
      <point x="523.0" y="52.666666666666664" type="line"/>
      <point x="481.6666666666667" y="50.0" type="line"/>
      <point x="467.3333333333333" y="74.66666666666667"/>
      <point x="452.3333333333333" y="92.66666666666667"/>
      <point x="436.3333333333333" y="113.0" type="curve" smooth="yes"/>
      <point x="305.6666666666667" y="272.0" type="line"/>
      <point x="379.3333333333333" y="360.6666666666667" type="line" smooth="yes"/>
      <point x="425.0" y="416.3333333333333"/>
      <point x="448.6666666666667" y="442.3333333333333"/>
      <point x="498.6666666666667" y="458.6666666666667" type="curve"/>
      <point x="498.6666666666667" y="500.0" type="line"/>
      <point x="330.6666666666667" y="500.0" type="line"/>
      <point x="330.6666666666667" y="447.3333333333333" type="line"/>
      <point x="393.0" y="451.3333333333333" type="line"/>
      <point x="377.6666666666667" y="436.3333333333333"/>
      <point x="365.3333333333333" y="420.0"/>
      <point x="346.6666666666667" y="397.6666666666667" type="curve" smooth="yes"/>
      <point x="273.0" y="309.0" type="line"/>
      <point x="219.0" y="379.6666666666667" type="line" smooth="yes"/>
      <point x="177.66666666666666" y="434.3333333333333"/>
      <point x="180.33333333333334" y="456.6666666666667"/>
      <point x="232.66666666666666" y="458.6666666666667" type="curve"/>
      <point x="232.66666666666666" y="500.0" type="line"/>
      <point x="21.666666666666668" y="500.0" type="line"/>
      <point x="21.666666666666668" y="447.3333333333333" type="line"/>
      <point x="62.0" y="449.3333333333333" type="line"/>
      <point x="69.66666666666667" y="429.3333333333333"/>
      <point x="88.33333333333333" y="398.6666666666667"/>
      <point x="115.0" y="364.0" type="curve" smooth="yes"/>
      <point x="138.66666666666666" y="334.6666666666667"/>
      <point x="183.33333333333334" y="275.0"/>
      <point x="213.66666666666666" y="237.0" type="curve"/>
      <point x="118.0" y="117.0" type="line" smooth="yes"/>
      <point x="84.33333333333333" y="74.66666666666667"/>
      <point x="65.66666666666667" y="51.666666666666664"/>
      <point x="29.333333333333332" y="41.33333333333333" type="curve"/>
    </contour>
  </outline>
</glyph>
<glyph name="y" format="2">
  <advance width="535.6666666666666"/>
  <unicode hex="0079"/>
  <anchor x="370.6666666666667" y="0.0" name="bottom"/>
  <anchor x="289.6666666666667" y="500.0" name="top"/>
  <outline>
    <contour>
      <point x="130.0" y="-271.0" type="curve" smooth="yes"/>
      <point x="219.66666666666666" y="-271.0"/>
      <point x="256.6666666666667" y="-184.0"/>
      <point x="315.3333333333333" y="-17.666666666666664" type="curve" smooth="yes"/>
      <point x="440.3333333333333" y="334.0" type="line" smooth="yes"/>
      <point x="464.0" y="399.3333333333333"/>
      <point x="484.6666666666667" y="442.6666666666667"/>
      <point x="531.6666666666666" y="458.6666666666667" type="curve"/>
      <point x="531.6666666666666" y="500.0" type="line"/>
      <point x="367.6666666666667" y="500.0" type="line"/>
      <point x="367.6666666666667" y="447.3333333333333" type="line"/>
      <point x="432.6666666666667" y="451.0" type="line"/>
      <point x="417.3333333333333" y="436.3333333333333"/>
      <point x="398.6666666666667" y="383.3333333333333"/>
      <point x="386.0" y="345.6666666666667" type="curve" smooth="yes"/>
      <point x="357.6666666666667" y="261.6666666666667"/>
      <point x="331.6666666666667" y="180.0"/>
      <point x="307.3333333333333" y="112.0" type="curve"/>
      <point x="196.66666666666666" y="354.0" type="line" smooth="yes"/>
      <point x="167.33333333333334" y="416.6666666666667"/>
      <point x="169.0" y="454.0"/>
      <point x="222.66666666666666" y="458.6666666666667" type="curve" smooth="yes"/>
      <point x="225.33333333333334" y="458.6666666666667" type="line"/>
      <point x="225.33333333333334" y="500.0" type="line"/>
      <point x="4.333333333333333" y="500.0" type="line"/>
      <point x="4.333333333333333" y="447.3333333333333" type="line"/>
      <point x="51.666666666666664" y="449.3333333333333" type="line"/>
      <point x="56.333333333333336" y="424.6666666666667"/>
      <point x="67.0" y="387.0"/>
      <point x="103.0" y="312.3333333333333" type="curve" smooth="yes"/>
      <point x="259.6666666666667" y="-16.0" type="line"/>
      <point x="236.66666666666666" y="-83.66666666666667"/>
      <point x="216.0" y="-137.33333333333334"/>
      <point x="199.66666666666666" y="-167.0" type="curve" smooth="yes"/>
      <point x="185.0" y="-194.0"/>
      <point x="167.0" y="-209.0"/>
      <point x="152.33333333333334" y="-210.33333333333334" type="curve" smooth="yes"/>
      <point x="148.66666666666666" y="-210.66666666666666"/>
      <point x="145.66666666666666" y="-210.66666666666666"/>
      <point x="143.33333333333334" y="-209.33333333333334" type="curve"/>
      <point x="144.33333333333334" y="-204.33333333333334"/>
      <point x="144.33333333333334" y="-199.66666666666666"/>
      <point x="144.33333333333334" y="-195.66666666666666" type="curve" smooth="yes"/>
      <point x="144.33333333333334" y="-173.0"/>
      <point x="130.33333333333334" y="-147.0"/>
      <point x="99.33333333333333" y="-148.0" type="curve" smooth="yes"/>
      <point x="69.66666666666667" y="-148.33333333333334"/>
      <point x="49.666666666666664" y="-175.0"/>
      <point x="49.666666666666664" y="-203.0" type="curve" smooth="yes"/>
      <point x="49.666666666666664" y="-246.66666666666666"/>
      <point x="85.66666666666667" y="-271.0"/>
    </contour>
  </outline>
</glyph>
<glyph name="z" format="2">
  <advance width="512.0"/>
  <unicode hex="007A"/>
  <anchor x="266.3333333333333" y="500.0" name="top"/>
  <outline>
    <contour>
      <point x="38.333333333333336" y="0.0" type="line"/>
      <point x="458.6666666666667" y="0.0" type="line"/>
      <point x="471.6666666666667" y="186.66666666666666" type="line"/>
      <point x="431.6666666666667" y="186.66666666666666" type="line"/>
      <point x="420.3333333333333" y="109.66666666666667"/>
      <point x="396.6666666666667" y="47.0"/>
      <point x="320.3333333333333" y="48.33333333333333" type="curve" smooth="yes"/>
      <point x="144.66666666666666" y="51.666666666666664" type="line"/>
      <point x="167.33333333333334" y="71.0"/>
      <point x="180.33333333333334" y="86.0"/>
      <point x="198.0" y="109.33333333333333" type="curve" smooth="yes"/>
      <point x="460.3333333333333" y="457.6666666666667" type="line"/>
      <point x="460.3333333333333" y="500.0" type="line"/>
      <point x="64.0" y="500.0" type="line"/>
      <point x="51.333333333333336" y="316.3333333333333" type="line"/>
      <point x="92.66666666666667" y="316.3333333333333" type="line"/>
      <point x="103.33333333333333" y="390.6666666666667"/>
      <point x="120.33333333333333" y="451.3333333333333"/>
      <point x="185.66666666666666" y="452.3333333333333" type="curve" smooth="yes"/>
      <point x="356.0" y="455.0" type="line"/>
      <point x="345.6666666666667" y="447.6666666666667"/>
      <point x="322.3333333333333" y="419.3333333333333"/>
      <point x="301.0" y="391.6666666666667" type="curve" smooth="yes"/>
      <point x="38.333333333333336" y="51.33333333333333" type="line"/>
    </contour>
  </outline>
</glyph>
<glyph name="braceleft" format="2">
  <advance width="345.3333333333333"/>
  <unicode hex="007B"/>
  <outline>
    <contour>
      <point x="307.0" y="-271.0" type="curve" smooth="yes"/>
      <point x="335.0" y="-271.0" type="line"/>
      <point x="335.0" y="-228.66666666666666" type="line"/>
      <point x="238.33333333333334" y="-231.66666666666666"/>
      <point x="209.0" y="-185.0"/>
      <point x="209.0" y="-71.0" type="curve" smooth="yes"/>
      <point x="209.0" y="-30.333333333333332"/>
      <point x="220.0" y="59.66666666666667"/>
      <point x="221.33333333333334" y="107.66666666666667" type="curve" smooth="yes"/>
      <point x="224.0" y="198.66666666666666"/>
      <point x="162.66666666666666" y="251.0"/>
      <point x="90.66666666666667" y="262.0" type="curve"/>
      <point x="90.66666666666667" y="264.0" type="line"/>
      <point x="163.33333333333334" y="274.6666666666667"/>
      <point x="224.33333333333334" y="324.0"/>
      <point x="221.0" y="415.6666666666667" type="curve" smooth="yes"/>
      <point x="219.66666666666666" y="460.6666666666667"/>
      <point x="209.0" y="528.0"/>
      <point x="209.0" y="568.0" type="curve" smooth="yes"/>
      <point x="209.0" y="682.0"/>
      <point x="238.33333333333334" y="717.0"/>
      <point x="335.0" y="713.6666666666666" type="curve"/>
      <point x="335.0" y="760.0" type="line"/>
      <point x="307.0" y="760.0" type="line" smooth="yes"/>
      <point x="165.0" y="760.0"/>
      <point x="112.66666666666667" y="695.0"/>
      <point x="112.66666666666667" y="554.0" type="curve" smooth="yes"/>
      <point x="112.66666666666667" y="495.0"/>
      <point x="122.66666666666667" y="438.0"/>
      <point x="122.66666666666667" y="386.0" type="curve" smooth="yes"/>
      <point x="122.66666666666667" y="318.0"/>
      <point x="100.66666666666667" y="292.3333333333333"/>
      <point x="26.666666666666668" y="292.3333333333333" type="curve" smooth="yes"/>
      <point x="3.666666666666667" y="292.3333333333333" type="line"/>
      <point x="3.666666666666667" y="234.0" type="line"/>
      <point x="26.666666666666668" y="234.0" type="line" smooth="yes"/>
      <point x="100.66666666666667" y="234.0"/>
      <point x="122.66666666666667" y="204.0"/>
      <point x="122.66666666666667" y="136.0" type="curve" smooth="yes"/>
      <point x="122.66666666666667" y="84.0"/>
      <point x="112.66666666666667" y="2.0"/>
      <point x="112.66666666666667" y="-57.0" type="curve" smooth="yes"/>
      <point x="112.66666666666667" y="-198.0"/>
      <point x="165.0" y="-271.0"/>
    </contour>
  </outline>
</glyph>
<glyph name="bar" format="2">
  <advance width="240.33333333333334"/>
  <unicode hex="007C"/>
  <outline>
    <contour>
      <point x="75.66666666666667" y="-271.0" type="line"/>
      <point x="165.0" y="-271.0" type="line"/>
      <point x="169.0" y="760.0" type="line"/>
      <point x="73.0" y="760.0" type="line"/>
    </contour>
  </outline>
</glyph>
<glyph name="asciitilde" format="2">
  <advance width="530.0"/>
  <unicode hex="007E"/>
  <outline>
    <contour>
      <point x="368.3333333333333" y="221.0" type="curve" smooth="yes"/>
      <point x="421.0" y="221.0"/>
      <point x="460.0" y="243.0"/>
      <point x="487.3333333333333" y="273.0" type="curve"/>
      <point x="487.3333333333333" y="354.3333333333333" type="line"/>
      <point x="453.0" y="323.3333333333333"/>
      <point x="408.3333333333333" y="303.3333333333333"/>
      <point x="360.3333333333333" y="307.3333333333333" type="curve" smooth="yes"/>
      <point x="289.0" y="313.3333333333333"/>
      <point x="273.0" y="382.3333333333333"/>
      <point x="170.0" y="382.3333333333333" type="curve" smooth="yes"/>
      <point x="117.33333333333333" y="382.3333333333333"/>
      <point x="85.0" y="363.3333333333333"/>
      <point x="43.0" y="329.3333333333333" type="curve"/>
      <point x="43.0" y="248.0" type="line"/>
      <point x="79.0" y="274.0"/>
      <point x="111.33333333333333" y="296.0"/>
      <point x="166.0" y="296.0" type="curve" smooth="yes"/>
      <point x="246.0" y="296.0"/>
      <point x="268.0" y="221.0"/>
    </contour>
  </outline>
</glyph>
<glyph name="cent" format="2">
  <advance width="542.3333333333334"/>
  <unicode hex="00A2"/>
  <outline>
    <contour>
      <point x="251.66666666666666" y="-135.0" type="line"/>
      <point x="318.0" y="-135.0" type="line"/>
      <point x="319.0" y="-15.0" type="line"/>
      <point x="381.3333333333333" y="-7.333333333333334"/>
      <point x="452.6666666666667" y="26.666666666666668"/>
      <point x="503.6666666666667" y="103.0" type="curve"/>
      <point x="471.0" y="131.33333333333334" type="line"/>
      <point x="437.3333333333333" y="83.33333333333333"/>
      <point x="376.3333333333333" y="47.0"/>
      <point x="316.3333333333333" y="47.666666666666664" type="curve" smooth="yes"/>
      <point x="215.0" y="49.0"/>
      <point x="157.66666666666666" y="144.0"/>
      <point x="157.66666666666666" y="266.6666666666667" type="curve" smooth="yes"/>
      <point x="157.66666666666666" y="396.3333333333333"/>
      <point x="219.66666666666666" y="467.3333333333333"/>
      <point x="301.6666666666667" y="468.6666666666667" type="curve" smooth="yes"/>
      <point x="326.3333333333333" y="469.0"/>
      <point x="379.6666666666667" y="462.6666666666667"/>
      <point x="396.0" y="421.6666666666667" type="curve"/>
      <point x="386.0" y="409.0"/>
      <point x="382.0" y="393.0"/>
      <point x="382.0" y="380.3333333333333" type="curve" smooth="yes"/>
      <point x="382.0" y="359.6666666666667"/>
      <point x="395.6666666666667" y="327.6666666666667"/>
      <point x="436.0" y="328.6666666666667" type="curve" smooth="yes"/>
      <point x="469.6666666666667" y="329.0"/>
      <point x="489.0" y="356.6666666666667"/>
      <point x="489.0" y="389.0" type="curve" smooth="yes"/>
      <point x="489.0" y="450.6666666666667"/>
      <point x="427.6666666666667" y="507.6666666666667"/>
      <point x="325.0" y="515.3333333333334" type="curve"/>
      <point x="326.0" y="623.3333333333334" type="line"/>
      <point x="253.0" y="623.3333333333334" type="line"/>
      <point x="253.33333333333334" y="514.6666666666666" type="line"/>
      <point x="125.0" y="490.6666666666667"/>
      <point x="41.0" y="367.3333333333333"/>
      <point x="41.0" y="240.33333333333334" type="curve" smooth="yes"/>
      <point x="41.0" y="93.0"/>
      <point x="133.0" y="0.6666666666666665"/>
      <point x="251.66666666666666" y="-15.0" type="curve"/>
    </contour>
  </outline>
</glyph>
